<?xml version="1.0" standalone="no"?>
<!DOCTYPE svg PUBLIC "-//W3C//DTD SVG 20010904//EN"
 "http://www.w3.org/TR/2001/REC-SVG-20010904/DTD/svg10.dtd">
<svg version="1.0" xmlns="http://www.w3.org/2000/svg"
 width="439.000000pt" height="139.000000pt" viewBox="0 0 439.000000 139.000000"
 style="enable-background:new 0 0 258.3 70.7;" xml:space="preserve" preserveAspectRatio="xMidYMid meet"  >
<style type="text/css">
	.st0{fill:#fff;}
	.st1{fill:#fff;}
</style>

<g transform="translate(0.000000,139.000000) scale(0.100000,-0.100000)"
fill="#fff" stroke="none">
<path d="M2125 1364 c-128 -6 -482 -34 -575 -45 -156 -19 -463 -78 -590 -113
-258 -71 -423 -149 -520 -246 -78 -77 -96 -140 -61 -215 131 -279 978 -486
1991 -485 277 0 639 22 840 50 411 58 688 130 904 235 121 59 227 154 247 222
39 135 -105 273 -397 378 -363 132 -898 209 -1505 219 -140 2 -290 2 -334 0z
m-749 -242 c5 -4 39 -52 75 -107 67 -102 217 -296 240 -311 7 -4 29 -10 48
-13 19 -4 36 -11 38 -17 3 -10 -354 -40 -364 -30 -11 10 9 24 42 30 42 8 43
18 9 68 l-27 38 -127 0 -127 0 -27 -50 c-33 -61 -29 -80 19 -80 24 0 35 -4 35
-15 0 -8 -8 -15 -17 -15 -28 0 -195 -19 -220 -25 -40 -9 -29 29 13 44 27 10
46 29 81 84 26 40 83 128 128 197 140 212 150 223 181 202z m646 -79 c40 -36
10 -63 -69 -63 -26 0 -56 7 -65 14 -25 18 -22 51 5 64 29 15 106 6 129 -15z
m319 -3 c48 -26 4 -70 -69 -70 -64 0 -106 45 -64 69 22 14 108 14 133 1z
m1159 -89 c0 -10 -53 -70 -125 -140 -69 -67 -125 -124 -125 -126 0 -3 36 -5
80 -5 l81 0 21 35 c32 56 52 43 56 -34 3 -62 2 -63 -20 -58 -24 6 -265 26
-358 30 -31 1 -55 7 -55 13 0 6 41 44 90 86 50 42 108 95 130 118 l40 42 -70
-5 c-59 -4 -73 -9 -92 -31 -12 -14 -32 -26 -43 -26 -19 0 -21 5 -18 43 l3 42
65 7 c53 6 175 16 318 26 15 2 22 -4 22 -17z m-1478 -151 c-3 -104 -8 -142
-21 -165 -21 -37 -82 -72 -139 -81 -58 -9 -61 -20 -7 -27 49 -7 125 -42 125
-57 0 -6 -21 -10 -46 -10 -37 0 -50 5 -66 25 -24 31 -72 34 -90 5 -22 -35 -52
-25 -65 21 -15 56 1 119 31 119 12 0 25 -9 31 -22 7 -16 20 -24 41 -26 51 -5
59 15 62 159 4 122 3 128 -17 139 -12 6 -31 8 -41 5 -13 -4 -20 -2 -20 7 0 9
30 19 93 29 145 25 133 37 129 -121z m891 111 c106 -51 101 -168 -10 -222 -43
-21 -61 -24 -168 -23 -103 0 -127 3 -173 23 -63 29 -92 62 -92 108 0 45 13 67
53 92 87 54 300 66 390 22z m-557 -3 c-13 -60 -16 -156 -7 -181 8 -21 17 -27
41 -27 17 0 30 -5 30 -12 0 -10 -38 -13 -150 -15 -83 -1 -150 2 -150 7 0 10
25 20 51 20 24 0 31 28 27 110 l-3 65 -37 3 c-21 2 -38 7 -38 11 0 9 150 37
208 40 29 1 32 -2 28 -21z m1419 12 c8 -14 -31 -77 -56 -91 -11 -5 -24 -7 -29
-4 -17 11 -11 64 10 85 21 21 65 27 75 10z m-55 -139 c10 -20 4 -51 -10 -51
-10 0 -52 -71 -46 -77 2 -3 14 1 26 7 23 12 50 7 50 -9 0 -6 -18 -20 -40 -31
-47 -24 -98 -20 -125 10 -15 17 -14 21 14 61 39 53 41 72 5 59 -28 -11 -47 -5
-41 13 4 13 78 35 124 36 22 1 35 -5 43 -18z m-2616 -311 l91 -7 -107 -2
c-108 -1 -138 3 -138 21 0 6 13 7 31 3 17 -4 73 -11 123 -15z m2576 0 c11 -7
-1 -9 -40 -9 -42 1 -49 3 -30 9 35 11 53 11 70 0z"/>
<path d="M1262 903 l-52 -78 50 -3 c28 -2 72 -2 100 0 l49 3 -48 78 -48 77
-51 -77z"/>
<path d="M2675 898 c-33 -17 -45 -40 -45 -81 0 -54 25 -103 61 -117 36 -16
100 -6 116 17 37 50 21 153 -27 178 -34 18 -77 19 -105 3z"/>
</g>
</svg>
