<svg xmlns="http://www.w3.org/2000/svg" data-name="Camada 1" viewBox="0 0 100 125" x="0px" y="0px" fill="#fff"><path d="M57.09,46.5a1,1,0,0,0-1.79.11,23.46,23.46,0,0,0-1.46,7.28c.06,3.71,2.2,7,4.82,9.42,3.12,2.92,4.72,5.86,4.85,10.28A47.11,47.11,0,0,1,61.92,85a52.49,52.49,0,0,1-2.43,8.11A10.41,10.41,0,0,1,57.93,96a4,4,0,0,1-2.81,1.53c-1.76.06-3.26-1.48-3.76-3.17a12,12,0,0,1,0-5.24l1.3-8.39c.32-2.07.63-4.27-.21-6.18C51.51,72.28,49.19,71,47,70c-4-1.78-8.19-4.23-10.53-8.14-2-3.33-1.65-7.3-.67-10.9,1.09-4,2.1-8.06,3.14-12.09.33-1.27.66-2.55,1-3.82.17-.71-.23-.59-.81-.54a17.61,17.61,0,0,0-2,.26,13.28,13.28,0,0,0-3.71,1.38,16.35,16.35,0,0,0-5.7,5.39c-1.3,2-1.82,4.75-3.8,6.19-1.19.86-3.2,1.09-4-.39A4.42,4.42,0,0,1,20,44a39.5,39.5,0,0,1,2.78-7.55c.23-.41.47-.82.73-1.21,4.23-6.43,11.48-9.38,18.88-10.06a25.6,25.6,0,0,1,3.39-.1c6.18.18,13.39,2.3,16.4,8.21,1.47,2.89,2.16,6.13,3.06,9.2.25.86.51,1.72.72,2.59a.64.64,0,0,0,.83.57c2.94-.37,5.84-.79,8.77-1.22,1.43-.22,3.22-.13,4.23,1a2.62,2.62,0,0,1,0,3.67,6.15,6.15,0,0,1-2.23,1.07c-3,.94-6,1.81-9,2.84-2.38.83-5.14,2-7.58.69C59.32,52.85,57.09,46.5,57.09,46.5Z"/><path d="M45,73.44a8.86,8.86,0,0,1-.71,1.31,91.05,91.05,0,0,1-9.37,13q-2.66,3.08-5.55,5.9c-1.7,1.67-3.46,3.68-6.05,3.7-3,0-4.18-4.37-2.76-6.45,5.15-7.59,10.56-15,15.77-22.58a1.1,1.1,0,0,0,.14-.21A31.32,31.32,0,0,0,45,73.44Z"/><path d="M43.5,11.88A9.42,9.42,0,1,1,62.33,12a9.42,9.42,0,0,1-18.83-.11Z"/></svg>