<?xml version="1.0" standalone="no"?>
<!DOCTYPE svg PUBLIC "-//W3C//DTD SVG 20010904//EN"
 "http://www.w3.org/TR/2001/REC-SVG-20010904/DTD/svg10.dtd">
<svg version="1.0" xmlns="http://www.w3.org/2000/svg"
 width="1536.000000pt" height="1536.000000pt" viewBox="0 0 1536.000000 1536.000000"
 preserveAspectRatio="xMidYMid meet">

<g transform="translate(0.000000,1536.000000) scale(0.100000,-0.100000)"
fill="#000000" stroke="none">
<path d="M13624 11398 l-19 -23 23 19 c21 18 27 26 19 26 -2 0 -12 -10 -23
-22z"/>
<path d="M6000 11400 c-615 -4 -176 -6 1310 -7 1229 -1 2228 2 2220 7 -16 9
-1950 9 -3530 0z"/>
<path d="M9584 11399 c-3 -5 16 -9 42 -9 26 0 45 3 42 6 -10 10 -78 12 -84 3z"/>
<path d="M9692 11399 c13 -8 926 -13 917 -5 -2 2 -212 6 -467 8 -255 3 -457 1
-450 -3z"/>
<path d="M1720 11395 c0 -2 14 -11 30 -20 33 -17 38 -14 14 9 -14 15 -44 22
-44 11z"/>
<path d="M2798 11393 c12 -2 30 -2 40 0 9 3 -1 5 -23 4 -22 0 -30 -2 -17 -4z"/>
<path d="M2958 11393 c45 -2 119 -2 165 0 45 1 8 3 -83 3 -91 0 -128 -2 -82
-3z"/>
<path d="M3292 11393 c48 -2 129 -2 180 0 51 1 12 3 -87 3 -99 0 -141 -2 -93
-3z"/>
<path d="M3763 11393 c9 -2 25 -2 35 0 9 3 1 5 -18 5 -19 0 -27 -2 -17 -5z"/>
<path d="M3838 11393 c12 -2 30 -2 40 0 9 3 -1 5 -23 4 -22 0 -30 -2 -17 -4z"/>
<path d="M3928 11393 c6 -2 18 -2 25 0 6 3 1 5 -13 5 -14 0 -19 -2 -12 -5z"/>
<path d="M4038 11393 c12 -2 30 -2 40 0 9 3 -1 5 -23 4 -22 0 -30 -2 -17 -4z"/>
<path d="M4148 11393 c12 -2 32 -2 45 0 12 2 2 4 -23 4 -25 0 -35 -2 -22 -4z"/>
<path d="M4358 11393 c7 -3 16 -2 19 1 4 3 -2 6 -13 5 -11 0 -14 -3 -6 -6z"/>
<path d="M4458 11393 c12 -2 32 -2 45 0 12 2 2 4 -23 4 -25 0 -35 -2 -22 -4z"/>
<path d="M4668 11393 c72 -2 192 -2 265 0 72 1 13 3 -133 3 -146 0 -205 -2
-132 -3z"/>
<path d="M10853 11393 c131 -2 343 -2 470 0 128 1 21 2 -238 2 -258 0 -363 -1
-232 -2z"/>
<path d="M11578 11393 c6 -2 18 -2 25 0 6 3 1 5 -13 5 -14 0 -19 -2 -12 -5z"/>
<path d="M11693 11393 c31 -2 83 -2 115 0 31 2 5 3 -58 3 -63 0 -89 -1 -57 -3z"/>
<path d="M12032 11393 c92 -2 245 -2 340 0 95 1 20 3 -167 3 -187 0 -265 -2
-173 -3z"/>
<path d="M12633 11393 c37 -2 97 -2 135 0 37 2 6 3 -68 3 -74 0 -105 -1 -67
-3z"/>
<path d="M12877 11393 c18 -2 50 -2 70 0 21 2 7 4 -32 4 -38 0 -55 -2 -38 -4z"/>
<path d="M13926 11321 c51 -150 10 -457 -87 -641 -99 -187 -309 -400 -575
-584 -71 -49 -147 -104 -169 -122 -41 -33 -220 -156 -570 -392 -110 -74 -238
-162 -285 -196 -47 -33 -182 -125 -300 -205 -118 -79 -294 -198 -390 -263 -96
-65 -272 -183 -390 -263 -367 -246 -1053 -708 -1284 -865 -76 -52 -148 -102
-161 -110 -125 -82 -155 -104 -155 -111 0 -5 -5 -9 -11 -9 -11 0 -381 -242
-414 -271 -11 -9 -34 -25 -52 -36 -17 -10 -121 -76 -232 -148 -494 -320 -637
-387 -951 -446 -94 -18 -138 -20 -240 -16 -286 12 -540 99 -855 293 -60 37
-157 95 -215 130 -58 35 -116 71 -129 81 -41 30 -55 37 -46 24 11 -19 -19 -45
-159 -135 -72 -47 -451 -298 -843 -558 -392 -260 -761 -504 -820 -543 -59 -38
-228 -148 -375 -245 -266 -175 -649 -426 -998 -655 -102 -67 -227 -148 -278
-181 -51 -32 -182 -117 -292 -189 -109 -71 -245 -160 -302 -197 -174 -112
-410 -277 -468 -327 -30 -26 -73 -59 -95 -74 -22 -15 -37 -27 -35 -28 3 0 19
-2 35 -3 43 -5 200 -75 168 -76 -7 0 -13 -4 -13 -10 0 -5 7 -6 17 -3 10 4 14
2 10 -4 -7 -11 15 -24 46 -28 10 -1 25 -12 33 -24 9 -12 22 -20 29 -17 7 2 12
-2 11 -11 0 -9 6 -18 14 -20 13 -4 13 -3 0 6 -9 7 -10 11 -3 11 6 0 19 -10 27
-21 8 -12 21 -19 29 -16 8 3 28 -3 46 -14 17 -10 31 -15 31 -10 0 5 11 8 25 7
14 0 25 -3 25 -6 0 -6 49 -12 103 -14 16 -1 25 -6 23 -12 -3 -9 3 -9 24 -1 20
8 25 14 17 19 -7 5 0 8 18 8 21 0 26 -3 16 -9 -21 -13 2 -21 61 -20 85 1 100
1 163 -1 82 -2 85 -2 85 11 0 8 -4 8 -14 0 -9 -8 -16 -8 -20 -2 -10 16 28 18
52 2 19 -11 28 -12 43 -3 23 15 32 15 24 2 -10 -16 22 -23 55 -12 18 7 30 7
30 1 0 -5 5 -9 11 -9 5 0 7 5 4 10 -3 6 -1 10 4 10 6 0 11 -4 11 -10 0 -5 9
-10 20 -10 11 0 20 -4 20 -9 0 -5 11 -4 25 2 14 7 23 17 21 23 -3 7 5 9 22 6
l25 -5 -22 -18 c-15 -12 -18 -19 -9 -19 7 0 20 9 28 20 8 11 22 20 32 20 23 0
23 -17 0 -23 -13 -4 -12 -5 5 -6 12 0 25 4 29 10 4 8 8 8 13 0 5 -7 14 -7 31
2 30 15 73 19 65 6 -4 -5 -1 -9 4 -9 6 0 11 5 11 10 0 14 28 12 33 -2 2 -7 8
-9 13 -5 5 5 0 15 -11 24 -17 14 -18 15 -2 9 10 -3 21 -6 23 -6 2 0 4 -6 4
-13 0 -14 34 -16 46 -4 4 4 13 2 21 -4 10 -9 13 -8 13 2 0 11 2 11 10 -1 9
-13 11 -13 19 -1 8 12 12 13 25 1 14 -11 16 -10 10 6 -5 18 -5 18 10 0 9 -11
16 -15 16 -9 0 12 18 12 36 0 6 -3 14 -3 18 1 10 9 85 9 79 0 -2 -5 2 -8 11
-8 8 0 22 -3 30 -6 13 -5 15 -2 9 12 -6 16 -4 17 9 6 17 -14 108 -25 108 -12
0 4 18 7 40 7 22 -1 40 -4 40 -7 0 -4 16 -5 35 -4 19 2 37 -1 41 -7 4 -6 11
-6 20 1 7 7 55 13 106 15 51 2 107 6 123 9 23 5 26 4 10 -3 -19 -9 -19 -10 2
-10 12 -1 23 5 26 12 3 9 9 7 24 -5 16 -15 23 -15 39 -5 21 13 53 15 70 4 7
-4 40 -6 75 -5 35 1 77 -2 93 -7 19 -5 27 -4 23 2 -4 7 8 8 36 3 43 -8 94 -6
104 4 4 3 12 1 19 -5 9 -7 24 -7 48 0 20 5 34 6 32 2 -3 -4 8 -8 24 -8 17 0
30 4 30 8 0 3 13 9 30 11 30 5 41 -6 18 -15 -7 -3 -1 -6 15 -6 15 -1 27 3 27
9 0 6 9 6 24 0 13 -5 26 -6 29 -3 10 10 397 8 397 -2 0 -5 5 -4 10 1 13 13
109 6 127 -8 8 -7 20 -4 35 6 25 18 53 22 43 6 -3 -6 1 -7 9 -4 9 3 16 2 16
-3 0 -11 40 -11 57 0 6 4 33 9 58 11 29 2 42 0 34 -5 -21 -13 7 -12 33 2 13 7
18 7 14 1 -7 -12 137 -6 163 7 19 9 59 7 69 -4 4 -5 -1 -5 -10 -2 -10 4 -18 2
-18 -4 0 -7 8 -9 23 -4 25 8 32 9 150 4 49 -3 91 -1 93 3 10 16 44 8 45 -9 0
-10 3 -13 5 -7 3 8 44 10 132 6 74 -2 143 0 165 6 31 9 39 8 44 -4 3 -8 9 -14
15 -14 5 0 6 5 3 10 -3 6 -3 11 2 11 33 6 54 5 58 -1 2 -3 51 -5 109 -4 59 2
106 -1 106 -5 0 -4 25 -4 56 1 39 6 60 5 70 -3 13 -11 38 -4 30 9 -5 9 142 7
174 -2 20 -6 22 -5 10 4 -12 9 -10 10 10 3 14 -4 51 -7 83 -7 31 1 57 -2 57
-6 0 -4 20 -6 45 -4 25 2 66 6 91 8 29 2 42 1 33 -5 -17 -11 33 -11 108 0 35
5 54 4 56 -3 3 -8 11 -7 25 1 14 8 23 9 27 3 4 -6 11 -8 16 -4 6 3 111 6 234
6 124 0 227 3 229 7 3 4 31 4 63 -1 64 -10 406 -12 436 -2 11 3 23 1 27 -6 6
-9 13 -9 29 -1 11 7 21 8 21 2 0 -10 4 -10 124 -10 46 0 86 5 94 11 8 7 16 8
20 2 10 -13 53 -16 67 -4 9 7 15 8 19 1 4 -6 17 -6 36 0 23 8 34 7 52 -5 20
-14 23 -14 40 1 10 9 18 12 18 7 0 -11 150 -12 167 -1 6 4 15 3 18 -3 5 -8 11
-7 22 2 12 10 17 9 24 -4 7 -13 16 -15 37 -9 15 5 63 7 107 5 55 -3 74 -1 60
5 -17 8 -14 10 18 10 20 1 37 -3 37 -9 0 -13 47 -13 55 1 4 6 14 7 24 3 9 -4
73 -8 142 -9 70 -1 131 -5 137 -9 6 -3 13 -3 16 2 3 5 44 7 91 6 61 -2 85 0
85 9 0 7 4 6 10 -3 5 -8 10 -10 10 -5 0 14 48 15 53 1 3 -8 28 -11 73 -10 38
1 71 3 74 4 16 6 168 -3 183 -11 12 -7 17 -6 15 2 -2 8 12 11 42 10 140 -6
277 -2 295 8 5 3 18 6 28 6 13 1 17 -3 14 -17 -3 -10 -1 -18 4 -18 5 0 9 4 9
9 0 6 64 7 156 4 128 -5 158 -4 165 8 7 11 9 11 9 1 0 -19 109 -14 133 6 9 8
17 11 17 5 0 -5 42 -8 102 -6 62 1 107 -2 115 -9 8 -6 30 -8 58 -4 52 8 137
-2 129 -15 -3 -5 2 -9 10 -9 8 0 18 5 21 10 4 7 34 9 77 6 39 -3 75 -3 81 1
18 11 121 13 127 3 4 -6 29 -5 69 2 48 9 67 9 82 0 12 -8 19 -8 19 -2 0 6 13
9 28 8 15 -1 33 1 40 6 7 4 12 2 12 -5 0 -8 3 -9 13 0 8 6 16 9 19 6 9 -9 118
-12 118 -3 0 5 7 2 16 -6 19 -20 25 -20 18 -1 -8 19 3 19 22 0 8 -8 21 -12 29
-9 8 4 15 2 15 -4 0 -8 52 -9 70 -1 3 1 16 3 30 4 14 1 34 6 45 10 18 8 18 7
6 -8 -8 -10 -9 -17 -3 -17 6 0 14 5 17 10 4 6 16 8 27 4 17 -5 20 -3 15 10 -4
9 -2 16 3 16 6 0 10 -4 10 -9 0 -4 16 -7 35 -5 21 1 35 -2 35 -9 0 -6 6 -3 13
7 11 14 21 16 66 10 30 -4 55 -13 58 -21 4 -10 9 -11 19 -2 8 6 12 14 9 18 -6
10 58 0 72 -11 7 -6 13 -4 17 4 5 10 7 10 12 1 3 -7 12 -13 19 -13 7 0 15 6
18 13 3 8 9 6 19 -7 12 -15 22 -17 56 -11 23 4 42 10 42 14 0 4 14 8 30 8 22
0 29 -4 26 -14 -4 -11 -1 -11 15 -2 11 6 28 8 36 4 9 -3 20 0 25 7 8 10 11 10
15 1 2 -7 18 -13 34 -13 23 0 27 3 22 18 -5 13 -4 15 8 6 8 -5 27 -16 42 -22
27 -12 28 -11 21 10 -6 21 -5 21 10 9 12 -10 20 -11 24 -4 4 6 23 14 42 18 51
11 76 25 60 35 -8 5 -1 10 21 15 19 4 37 13 41 19 5 7 8 4 8 -7 0 -10 5 -15
11 -12 6 4 8 13 5 21 -4 10 2 14 19 14 13 0 26 4 30 10 3 5 12 7 20 3 10 -3
15 1 15 12 0 12 -5 15 -17 11 -17 -7 -17 -6 0 11 17 16 19 17 30 2 10 -13 12
-2 12 53 0 38 2 71 5 73 3 2 5 44 5 94 0 74 2 91 14 91 11 0 10 4 -5 15 -16
13 -17 16 -4 25 10 6 11 10 3 10 -7 0 -13 9 -13 20 0 11 5 20 12 20 6 0 3 7
-8 15 -18 14 -18 14 0 15 13 0 16 3 9 13 -6 6 -11 27 -11 46 0 18 -6 39 -11
44 -6 6 -11 21 -11 34 0 17 4 21 18 17 13 -4 12 -1 -5 14 -19 17 -21 26 -17
78 10 104 10 272 0 267 -5 -4 -6 8 -3 26 8 40 -2 113 -14 105 -5 -3 -9 2 -9
10 0 9 5 16 11 16 6 0 8 9 4 20 -4 13 -2 20 7 20 10 0 9 3 -2 10 -10 6 -11 10
-2 10 6 0 12 7 12 15 0 13 -4 14 -22 4 -22 -12 -22 -12 -5 14 9 14 14 33 11
41 -3 8 -1 23 5 34 7 13 7 22 -1 30 -9 9 -9 12 -1 12 8 0 7 9 -2 27 -11 22
-12 29 -2 33 13 6 19 150 5 150 -4 0 -8 7 -8 16 0 8 3 13 8 11 4 -3 8 6 8 19
2 25 -11 33 -19 12 -2 -7 -4 -1 -4 14 0 15 3 26 6 23 10 -5 5 81 -5 96 -4 8
-3 9 4 5 12 -7 17 6 6 16 -10 11 -10 228 1 232 6 2 6 11 -3 25 -7 11 -9 21 -5
21 5 0 8 61 8 135 0 74 3 135 8 135 4 0 5 6 0 13 -9 14 -12 57 -3 57 8 0 -1
84 -11 94 -4 5 -4 17 1 27 6 10 7 20 3 22 -9 6 -9 319 -1 333 3 5 4 25 3 44
-8 97 -8 138 0 150 5 9 4 15 -3 18 -7 2 -12 8 -12 14 0 6 7 8 15 5 8 -4 17 -2
20 3 4 6 0 10 -8 10 -11 0 -16 18 -19 68 -5 72 -2 85 12 62 7 -11 9 -8 8 13
-1 15 -7 27 -13 27 -6 0 -10 65 -10 185 0 102 2 185 5 185 3 0 4 64 2 143 -2
78 -4 170 -3 204 1 34 -3 64 -9 68 -6 3 -7 11 -4 17 4 5 7 63 8 128 0 65 3
117 6 115 3 -2 6 55 6 126 1 90 -2 129 -10 129 -6 0 -3 5 8 11 11 7 14 14 8
18 -15 9 -22 181 -8 181 7 0 6 4 -1 8 -20 12 -13 314 6 307 10 -4 11 -2 3 7
-12 15 -20 243 -10 254 4 4 3 15 -3 26 -7 14 -7 23 2 34 7 9 8 14 1 14 -7 0
-9 37 -6 113 5 124 5 127 3 244 -2 58 2 87 12 100 9 11 10 14 2 9 -9 -5 -13
-1 -13 13 0 11 5 23 10 26 6 3 10 11 10 16 0 6 -4 8 -9 5 -5 -3 -11 3 -14 14
-3 11 -1 23 4 26 6 3 7 15 4 27 -5 17 -4 19 4 7 6 -8 11 -13 12 -10 6 30 10
58 10 73 0 10 7 21 16 24 14 6 14 7 -3 14 -16 6 -16 8 -2 8 11 1 15 6 12 16
-9 22 5 38 22 24 10 -8 17 -7 29 4 8 9 15 19 15 23 0 5 -5 3 -12 -4 -16 -16
-28 -15 -28 2 0 8 7 17 16 20 9 3 14 12 11 20 -4 9 0 12 13 9 12 -3 20 2 23
14 3 10 6 3 7 -17 l2 -35 9 32 c5 18 15 32 22 30 7 -1 14 15 17 43 5 41 6 43
18 25 13 -19 13 -19 7 -1 -3 11 0 23 7 29 9 6 8 7 -5 3 -10 -3 -16 -2 -12 3 3
5 -1 12 -7 15 -7 3 1 3 17 0 21 -4 26 -3 16 4 -7 5 -10 15 -6 22 4 7 2 16 -6
21 -12 7 -11 9 1 9 8 0 24 7 35 16 17 13 18 16 5 24 -12 8 -11 10 8 10 24 0
30 15 10 23 -8 3 -6 6 5 6 12 1 17 9 16 29 -2 23 -2 24 -6 5 -7 -37 -18 -26
-18 17 0 29 3 39 13 35 8 -3 10 0 6 6 -4 6 0 15 7 20 12 8 12 10 0 18 -8 5
-10 14 -6 21 5 8 4 11 -1 7 -6 -3 -15 9 -22 26 -16 38 -41 96 -52 117 -4 8
-14 14 -23 14 -9 -1 -13 5 -10 16 3 12 -4 22 -24 32 -18 9 -27 20 -25 32 2 11
-1 15 -7 11 -6 -3 -11 1 -11 9 0 8 -13 24 -30 36 -16 12 -30 28 -30 36 0 8 -7
14 -15 14 -18 0 -20 16 -2 24 6 3 1 3 -12 0 -14 -4 -21 -2 -18 3 4 6 -10 23
-30 39 -51 41 -98 87 -95 93 1 2 -12 6 -29 8 -18 2 -39 12 -46 23 -8 11 -19
18 -24 15 -5 -4 -9 0 -9 7 0 8 -7 23 -14 34 -13 17 -15 10 -10 -66 19 -356 35
-2524 32 -4360 l-3 -1965 -35 0 c-52 0 -70 24 -71 93 -2 231 3 5227 6 5232 2
3 5 108 6 233 2 125 7 227 11 227 8 0 9 -24 10 -150 0 -63 0 -63 14 35 16 114
23 543 11 682 -8 94 -20 140 -56 211 -27 54 -42 61 -25 13z m621 -813 c-3 -8
-6 -5 -6 6 -1 11 2 17 5 13 3 -3 4 -12 1 -19z m-812 -330 c3 -3 -3 -8 -14 -11
-11 -2 -22 1 -24 7 -5 12 27 15 38 4z m-59 -13 c11 -10 27 -13 59 -8 38 5 45
3 45 -11 0 -11 -5 -14 -12 -10 -8 5 -9 2 -4 -11 4 -10 2 -21 -5 -25 -8 -6 -8
-9 0 -14 6 -4 11 -2 11 3 0 6 4 11 9 11 10 0 7 -32 -5 -52 -4 -7 -3 -8 4 -4 8
5 12 -3 12 -23 0 -18 -5 -31 -12 -31 -10 0 -10 -3 0 -9 11 -7 12 -26 6 -92 -4
-46 -8 -101 -8 -122 -1 -20 -4 -37 -7 -37 -3 0 -5 -22 -5 -50 1 -27 -3 -50 -8
-50 -4 0 -3 -6 3 -14 8 -10 9 -16 1 -21 -16 -10 -12 -25 8 -25 10 0 13 -3 6
-8 -12 -8 -13 -130 -1 -149 4 -6 1 -13 -5 -16 -10 -3 -10 -9 -1 -25 8 -14 9
-23 3 -27 -6 -4 -8 -11 -4 -16 3 -5 10 -6 16 -3 6 4 5 -3 -2 -16 -7 -14 -11
-49 -8 -91 2 -37 0 -65 -4 -63 -4 3 -8 0 -8 -5 0 -6 3 -11 8 -11 4 0 7 -20 7
-44 0 -34 -3 -42 -12 -34 -9 7 -13 7 -13 -1 0 -6 7 -14 15 -17 8 -4 13 -10 10
-14 -3 -5 -1 -11 5 -15 6 -4 6 -13 0 -25 -6 -11 -15 -29 -20 -40 -8 -15 -7
-20 2 -21 10 0 10 -2 1 -6 -7 -2 -13 -9 -13 -14 0 -6 4 -7 10 -4 6 4 8 -7 4
-27 -4 -23 -3 -29 4 -19 7 10 11 10 17 1 4 -6 -1 -17 -11 -25 -11 -7 -16 -17
-12 -21 4 -4 3 -13 -3 -21 -9 -10 -8 -13 3 -13 10 0 13 -11 10 -40 -2 -22 -8
-38 -12 -35 -5 3 -6 -4 -3 -14 3 -13 11 -18 21 -14 12 4 10 -1 -6 -16 -15 -15
-20 -27 -14 -34 5 -7 8 -30 6 -52 -8 -140 -6 -166 10 -184 9 -9 16 -28 16 -42
0 -18 -3 -20 -9 -10 -5 8 -7 20 -4 27 2 6 -1 15 -8 19 -7 5 -10 3 -7 -6 3 -8
1 -26 -3 -41 -4 -16 -4 -28 0 -28 7 0 9 -10 14 -90 2 -31 -1 -61 -7 -69 -8
-11 -8 -15 2 -18 17 -6 16 -104 -3 -129 -8 -10 -14 -26 -14 -34 0 -10 3 -8 8
5 7 16 10 10 14 -25 9 -80 7 -120 -4 -120 -8 0 -8 -4 -1 -13 6 -7 9 -26 7 -42
-2 -17 -4 -34 -4 -40 -1 -5 -6 -3 -11 5 -5 8 -10 11 -10 7 0 -4 8 -20 17 -34
17 -26 17 -27 0 -20 -11 4 -16 3 -12 -3 3 -6 16 -10 27 -10 19 0 20 -1 6 -17
-9 -10 -19 -37 -23 -60 -6 -38 -4 -43 12 -43 16 0 15 -3 -6 -19 -21 -16 -21
-19 -7 -24 13 -5 15 -13 10 -29 -4 -13 -11 -26 -17 -30 -7 -4 -5 -15 6 -31 23
-35 18 -66 -11 -74 -17 -4 -20 -8 -11 -14 8 -4 16 -3 20 3 4 6 10 2 14 -11 4
-12 0 -30 -9 -43 -10 -13 -16 -17 -16 -9 0 8 -3 11 -7 8 -3 -4 2 -16 12 -27
10 -11 15 -23 12 -27 -4 -3 -2 -12 5 -20 8 -10 8 -17 0 -25 -9 -9 -9 -15 0
-26 7 -8 8 -16 2 -20 -13 -10 -16 -32 -4 -32 5 0 7 -7 3 -16 -3 -9 0 -20 8
-25 11 -7 11 -9 1 -9 -7 0 -10 -4 -7 -10 3 -5 2 -10 -3 -10 -13 0 -8 -80 6
-89 10 -6 10 -10 -1 -20 -9 -7 -13 -21 -9 -33 3 -14 1 -19 -6 -14 -7 4 -12 0
-12 -10 0 -16 2 -15 22 2 20 18 21 18 15 1 -4 -10 -7 -22 -7 -27 0 -4 -10 -6
-22 -4 -13 2 -18 2 -11 -2 7 -3 10 -11 7 -19 -4 -9 0 -12 14 -8 11 2 23 0 27
-7 4 -7 1 -10 -7 -8 -7 2 -13 0 -13 -3 0 -4 -9 -17 -20 -30 -17 -19 -18 -22
-2 -16 11 4 17 1 17 -8 0 -8 -6 -15 -14 -15 -23 0 -27 -16 -9 -31 14 -12 16
-12 9 0 -5 8 -3 17 5 22 22 14 25 11 26 -33 2 -34 0 -39 -8 -25 -6 9 -14 15
-20 12 -12 -8 -12 -72 1 -96 8 -14 7 -19 -1 -19 -7 0 -10 -3 -6 -6 3 -3 2 -16
-3 -29 -5 -14 -5 -26 3 -34 9 -9 15 -64 17 -158 0 -11 7 -24 15 -27 22 -8 18
-25 -5 -19 -11 3 -20 12 -20 19 0 8 -5 14 -10 14 -6 0 -4 -12 4 -29 14 -26 14
-30 1 -35 -8 -3 -15 -10 -15 -16 0 -7 6 -8 19 -1 17 10 18 9 7 -14 -6 -14 -14
-25 -18 -25 -5 0 -8 -5 -8 -11 0 -6 7 -9 15 -5 17 6 21 -19 4 -29 -6 -4 -8
-13 -5 -21 3 -7 1 -16 -5 -20 -6 -3 -6 -10 -1 -17 13 -18 22 -47 14 -46 -19 3
-25 -2 -12 -11 10 -6 14 -27 15 -64 0 -38 4 -56 13 -56 6 0 12 -4 12 -10 0 -5
-6 -7 -14 -4 -16 6 -29 -33 -12 -40 8 -3 8 -7 -1 -13 -8 -6 -9 -14 -3 -23 13
-20 12 -33 0 -25 -5 3 -10 1 -10 -4 0 -6 4 -11 9 -11 6 0 9 -9 8 -20 -1 -15
-6 -18 -21 -14 -16 5 -17 4 -6 -8 15 -15 48 -18 68 -5 8 5 12 3 12 -7 0 -11
-10 -16 -32 -16 -24 0 -29 -3 -21 -11 9 -9 6 -17 -13 -31 -13 -11 -24 -29 -23
-41 0 -21 0 -22 9 -2 4 12 15 27 24 34 14 12 15 6 10 -60 -3 -41 -7 -81 -9
-89 -3 -8 -1 -21 4 -29 5 -8 7 -21 4 -28 -5 -12 -7 -12 -14 -1 -7 10 -9 10 -9
0 0 -7 7 -15 15 -18 14 -6 14 -8 -1 -18 -13 -10 -14 -17 -5 -34 14 -27 14 -35
-1 -26 -7 5 -8 3 -2 -7 11 -18 14 -160 3 -154 -4 3 -11 0 -15 -7 -4 -7 -4 -10
1 -6 13 12 35 -12 35 -38 0 -13 -4 -24 -9 -24 -5 0 -12 -7 -15 -16 -3 -8 -2
-12 4 -9 13 8 13 -55 0 -75 -5 -9 -5 -19 2 -27 8 -10 6 -13 -6 -13 -22 0 -20
-8 7 -30 18 -16 19 -18 4 -16 -10 1 -27 10 -37 19 -11 9 -31 19 -45 23 -14 3
-25 9 -25 13 0 8 -71 44 -76 38 -2 -2 35 -29 84 -61 122 -80 177 -153 234
-315 48 -135 4 -336 -103 -472 -42 -54 -132 -113 -161 -106 -30 8 -161 90
-263 165 -100 73 -528 354 -1008 661 -48 31 -170 110 -272 176 -237 154 -335
218 -524 338 -84 53 -217 139 -295 190 -182 120 -644 421 -789 514 -573 367
-1217 794 -1272 844 -11 10 -31 28 -45 39 -22 19 -22 21 -5 17 11 -3 28 -8 37
-12 13 -5 16 -2 12 17 -5 20 -4 21 6 6 13 -21 35 -24 27 -5 -3 8 3 20 13 27
11 8 17 17 15 20 -2 4 3 16 11 26 14 17 15 17 10 2 -3 -10 -1 -18 5 -18 6 0
13 9 16 20 4 15 9 18 18 10 9 -8 14 -6 19 5 3 8 12 15 20 15 8 0 18 5 22 11 4
8 -1 9 -17 4 -19 -5 -21 -4 -9 4 8 6 26 11 39 11 14 0 22 5 19 13 -2 6 8 25
24 40 20 20 28 23 28 12 0 -8 5 -15 10 -15 6 0 10 8 10 19 0 22 25 45 40 36 5
-3 10 0 10 8 0 7 11 19 24 26 13 7 29 23 35 35 14 25 58 48 67 35 3 -6 14 -1
23 10 10 11 21 17 25 14 4 -4 4 1 0 12 -6 15 -4 17 9 12 25 -10 21 2 -14 34
l-32 30 28 -11 c15 -6 58 -30 96 -55 39 -25 75 -42 84 -39 19 8 19 23 0 30
-21 9 -9 23 14 17 13 -3 18 -10 13 -21 -5 -14 -4 -15 10 -2 9 9 12 18 6 21 -8
5 -2 25 20 59 2 2 7 -1 11 -8 6 -10 14 -9 37 3 27 15 27 16 5 13 -13 -2 -26 3
-28 10 -3 8 4 11 19 10 17 -2 22 2 20 14 -3 17 30 34 47 23 5 -3 13 0 17 6 5
8 3 9 -6 4 -8 -5 -11 -3 -8 6 5 16 40 19 50 4 4 -6 8 -2 8 8 0 9 -4 17 -10 17
-5 0 -10 5 -10 11 0 5 5 7 10 4 6 -3 13 1 16 9 3 9 14 16 23 16 10 0 27 9 39
20 12 11 32 20 45 20 21 0 24 4 21 28 -2 15 -1 21 2 14 4 -8 10 -10 17 -3 7 5
23 11 37 13 14 2 24 9 23 16 -2 6 3 11 9 9 7 -1 14 8 16 20 2 13 9 20 16 17 7
-3 19 3 27 12 9 12 10 15 2 10 -7 -4 -13 -2 -13 3 0 6 8 11 19 11 10 0 32 7
47 15 16 8 22 15 15 15 -11 0 -12 3 -3 12 8 8 15 8 27 -2 13 -11 14 -10 9 4
-5 12 2 19 26 27 24 9 29 14 18 21 -9 7 -3 7 17 3 l29 -6 -19 22 c-20 22 -20
22 2 15 15 -5 28 0 47 19 14 14 26 30 26 35 0 4 9 6 19 3 15 -4 20 1 23 19 2
16 11 24 28 26 14 2 30 8 36 13 6 5 18 8 25 6 8 -2 11 -2 7 0 -5 3 -8 9 -8 14
0 5 3 8 8 8 22 -4 62 2 59 9 -5 16 44 53 64 47 24 -8 25 3 2 22 -17 14 -17 14
0 9 10 -3 17 0 17 8 0 8 10 16 22 19 19 5 20 8 7 23 -12 16 -12 17 3 11 10 -3
26 3 42 18 14 13 26 20 26 15 0 -6 7 -10 16 -10 14 0 15 2 3 17 -13 15 -11 16
13 10 24 -6 28 -4 34 17 4 17 11 23 22 19 12 -5 14 -2 9 11 -6 15 -3 17 17 12
19 -5 26 -1 31 14 4 11 10 18 15 15 5 -3 12 1 17 8 7 13 45 24 95 30 9 1 14 5
11 10 -3 5 -11 6 -19 3 -8 -3 -14 -1 -14 4 0 6 9 10 20 10 18 0 26 16 21 44
-1 5 9 1 24 -8 25 -16 25 -16 25 9 0 14 6 25 13 25 16 0 48 36 39 45 -4 3 2 3
13 -1 18 -7 18 -6 6 9 -18 23 2 22 25 0 17 -17 18 -17 11 0 -9 23 37 71 59 63
9 -3 25 1 37 9 12 9 16 15 8 15 -10 0 -11 3 -2 14 15 18 57 26 70 13 7 -7 8
-2 4 13 -4 15 -2 21 5 16 6 -3 13 2 15 11 4 14 5 13 6 -4 1 -16 6 -21 16 -17
9 4 14 14 13 23 -2 11 4 16 18 15 16 0 20 4 16 20 -4 15 -1 18 11 13 11 -4 17
-1 17 7 0 8 12 17 26 20 19 5 24 11 19 25 -3 11 -1 22 4 26 7 3 8 0 5 -10 -5
-11 -2 -14 10 -9 10 4 15 13 12 20 -3 8 1 14 9 14 7 0 20 6 27 13 7 8 26 17
41 21 18 4 27 13 27 26 0 11 5 20 10 20 6 0 10 -5 10 -12 0 -6 14 4 30 22 28
32 32 33 53 21 21 -13 21 -13 7 4 -14 16 -12 17 18 11 21 -5 32 -4 32 3 0 6
-12 11 -26 11 -14 0 -23 4 -19 10 3 6 18 7 32 4 22 -6 25 -4 20 10 -6 14 -2
16 23 12 16 -2 32 0 36 5 3 5 -2 9 -10 9 -9 0 -16 5 -16 10 0 6 -7 10 -16 10
-8 0 -13 4 -9 10 6 10 36 2 47 -14 5 -7 8 -3 8 8 0 14 6 17 29 14 21 -3 28 -1
24 9 -3 8 -13 11 -23 8 -10 -3 -22 0 -26 7 -4 7 -4 10 1 6 10 -10 58 16 90 48
14 14 32 23 40 20 8 -3 15 -1 15 4 0 6 5 10 10 10 6 0 10 -7 10 -15 0 -8 5
-15 11 -15 6 0 9 9 6 20 -4 17 -2 20 14 15 13 -4 19 -2 19 9 0 10 -6 13 -17 9
-15 -5 -16 -3 -6 7 7 7 26 13 43 13 17 0 29 5 27 11 -2 5 6 20 16 33 15 16 28
21 46 18 14 -3 21 -3 14 1 -8 4 -6 15 9 40 15 26 23 32 33 24 13 -10 45 -4 45
9 0 4 -5 12 -11 18 -9 9 -7 10 10 6 12 -3 21 -1 21 6 0 6 7 11 15 11 8 0 15
-5 15 -11 0 -5 5 -7 12 -3 9 6 9 9 0 12 -22 7 -13 21 23 36 19 8 35 19 35 25
0 5 10 7 23 4 18 -5 20 -3 10 8 -16 16 -17 29 -2 29 5 0 8 -4 4 -9 -3 -6 6 -6
24 -1 36 10 70 29 54 30 -7 0 -13 8 -13 18 0 13 2 14 9 4 6 -10 17 -2 43 28
20 22 41 40 48 40 9 0 8 -6 -3 -18 -23 -25 -21 -35 2 -20 11 7 22 21 25 31 2
10 9 16 14 13 6 -3 12 1 16 9 3 8 12 12 21 9 8 -4 15 -1 15 6 0 7 7 10 16 6
11 -4 14 -1 9 13 -4 14 3 25 25 41 16 12 30 28 30 36 0 9 5 12 11 8 16 -9 59
16 59 35 0 13 2 14 9 2 7 -11 13 -6 26 18 9 18 19 30 22 27 4 -3 17 1 30 9 13
9 23 13 23 9 0 -3 14 6 31 20 17 14 38 26 47 26 15 0 15 -2 2 -10 -8 -5 -11
-10 -6 -10 16 0 86 62 84 75 -2 7 6 21 17 32 11 10 25 27 31 38 6 10 17 21 25
24 12 3 12 1 -1 -15 -14 -18 -14 -18 5 -4 11 8 22 18 25 21 3 3 25 20 49 37
34 25 47 29 57 21 11 -9 14 -8 14 4 0 9 -4 19 -10 22 -11 7 -14 25 -4 25 3 0
12 -7 20 -15z m-256 -205 c0 -5 -10 -15 -22 -21 -23 -12 -23 -12 -4 10 21 23
26 26 26 11z m-600 -420 c-8 -5 -19 -10 -25 -10 -5 0 -3 5 5 10 8 5 20 10 25
10 6 0 3 -5 -5 -10z m970 -154 c0 -3 -4 -8 -10 -11 -5 -3 -10 -1 -10 4 0 6 5
11 10 11 6 0 10 -2 10 -4z m-1550 -226 c0 -5 -5 -10 -11 -10 -5 0 -7 5 -4 10
3 6 8 10 11 10 2 0 4 -4 4 -10z m1564 -415 c-4 -8 -8 -15 -10 -15 -2 0 -4 7
-4 15 0 8 4 15 10 15 5 0 7 -7 4 -15z m423 -17 c-3 -8 -6 -5 -6 6 -1 11 2 17
5 13 3 -3 4 -12 1 -19z m-5 -175 c-4 -292 -8 -319 -10 -80 -1 130 1 237 6 237
4 0 6 -71 4 -157z m-2 -678 c0 -192 -2 -351 -5 -353 -3 -3 -5 156 -5 353 0
197 2 356 5 353 3 -3 5 -162 5 -353z m-430 -284 c0 -6 -4 -13 -10 -16 -5 -3
-10 1 -10 9 0 9 5 16 10 16 6 0 10 -4 10 -9z m20 -61 c0 -5 -4 -10 -10 -10 -5
0 -10 5 -10 10 0 6 5 10 10 10 6 0 10 -4 10 -10z m413 -1044 c1 -559 -1 -1016
-5 -1016 -5 0 -8 460 -8 1022 0 562 2 1019 5 1016 3 -3 7 -463 8 -1022z
m-4523 934 c0 -5 -5 -10 -11 -10 -5 0 -7 5 -4 10 3 6 8 10 11 10 2 0 4 -4 4
-10z m-3125 -362 c39 -23 95 -57 125 -77 173 -114 455 -256 585 -296 33 -10
65 -21 70 -25 6 -4 35 -13 65 -20 30 -7 60 -20 66 -28 6 -8 16 -12 21 -9 6 4
22 -4 34 -18 13 -13 30 -25 37 -25 7 0 15 -7 18 -15 4 -8 10 -13 14 -10 5 3
11 1 15 -5 3 -5 1 -10 -4 -10 -6 0 -11 -4 -11 -10 0 -5 8 -6 17 -3 12 5 15 2
11 -9 -6 -14 -2 -16 41 -20 11 -1 17 -6 15 -10 -3 -4 6 -10 20 -14 15 -3 23
-11 20 -19 -4 -10 1 -12 15 -8 12 3 21 1 21 -6 0 -6 12 -11 26 -11 18 0 24 -4
21 -13 -4 -10 2 -13 19 -9 25 4 34 -13 12 -21 -7 -2 -10 -7 -7 -11 4 -4 15 1
25 11 12 13 19 14 22 5 2 -6 12 -12 21 -12 14 0 17 -6 13 -25 -2 -15 0 -25 7
-25 6 0 11 5 11 12 0 9 3 9 11 1 6 -6 19 -9 28 -6 12 4 13 2 3 -4 -7 -5 -10
-17 -6 -27 5 -12 10 -14 19 -6 9 7 16 6 25 -5 11 -13 8 -15 -16 -16 -27 -2
-28 -2 -4 -6 14 -3 29 -9 35 -14 14 -14 42 -11 59 6 8 8 17 11 21 6 3 -5 -4
-12 -15 -16 -11 -3 -20 -11 -20 -16 0 -5 8 -4 19 3 15 9 24 7 51 -12 27 -19
36 -21 52 -11 21 13 38 7 38 -14 0 -9 6 -12 17 -8 12 5 15 2 10 -10 -4 -11 -1
-17 8 -17 8 0 15 5 15 10 0 18 25 11 38 -11 13 -20 15 -20 32 -4 12 11 20 13
25 5 3 -5 11 -7 17 -4 6 4 5 10 -3 16 -10 7 -8 8 6 3 11 -4 25 -8 32 -8 6 0 9
-7 6 -16 -5 -13 -3 -14 7 -4 10 9 17 10 27 1 10 -8 12 -8 8 3 -4 11 4 14 35
14 29 0 40 -4 41 -15 1 -10 3 -9 6 3 3 13 10 16 21 12 24 -10 82 -15 81 -7 -3
19 2 32 12 32 6 0 8 -7 4 -17 -4 -12 -3 -14 3 -8 6 6 12 19 14 30 3 16 10 19
33 17 37 -5 44 -10 25 -22 -12 -8 -11 -10 7 -10 22 0 53 24 53 41 0 6 10 8 23
4 16 -5 18 -4 8 3 -16 12 -7 44 11 41 43 -5 68 2 68 20 0 10 7 22 16 25 9 4
14 13 10 21 -5 13 -2 14 15 4 24 -12 39 1 39 33 0 10 9 22 20 28 11 6 18 15
15 20 -3 5 7 20 22 34 15 14 22 26 15 26 -6 0 -12 5 -12 10 0 7 7 7 21 -1 13
-7 19 -7 15 -1 -4 6 0 14 7 19 7 4 16 16 20 26 5 13 1 17 -16 18 l-22 2 22 4
c13 2 29 14 37 25 11 15 21 19 40 14 16 -4 26 -2 26 4 0 6 -5 8 -12 4 -8 -5
-9 -2 -5 10 4 9 3 15 -1 13 -4 -2 -15 4 -24 15 -20 21 -19 22 15 9 32 -12 67
19 48 43 -9 11 -8 15 4 19 8 4 12 13 9 22 -3 8 -2 15 4 15 5 0 12 7 16 15 4
13 2 14 -14 5 -26 -14 -26 1 0 23 14 11 20 13 21 4 0 -6 6 6 13 28 7 22 11 44
8 48 -6 12 39 -12 63 -33 11 -10 34 -26 52 -37 34 -19 267 -170 468 -304 66
-44 127 -82 135 -86 8 -3 33 -20 55 -37 21 -17 47 -35 56 -41 104 -62 180
-110 264 -165 55 -37 138 -91 185 -121 132 -85 301 -195 350 -229 25 -17 101
-67 170 -112 69 -45 190 -125 269 -177 79 -53 150 -100 159 -106 9 -5 51 -32
93 -60 43 -27 121 -77 174 -110 52 -33 122 -79 155 -102 33 -24 62 -43 65 -43
7 0 208 -129 295 -190 41 -28 84 -56 95 -61 29 -14 42 -22 225 -144 91 -60
180 -118 199 -128 19 -10 41 -25 48 -33 8 -8 21 -14 29 -14 8 0 12 -4 9 -10
-3 -5 0 -8 7 -5 7 3 29 -8 48 -25 51 -45 60 -51 60 -46 0 3 34 -17 76 -45 41
-28 82 -53 90 -56 8 -3 14 -12 14 -20 0 -8 4 -12 9 -9 5 3 14 -1 21 -9 7 -8
19 -15 27 -15 11 0 14 -7 10 -21 -5 -17 -2 -20 15 -16 15 4 47 -12 110 -55 48
-33 88 -64 88 -70 0 -5 5 -6 12 -2 7 4 8 3 4 -5 -4 -6 -12 -8 -18 -5 -6 4 -14
0 -20 -7 -7 -11 -8 -10 -6 5 2 14 -4 20 -27 22 -61 7 -139 21 -122 23 9 0 17
6 17 12 0 6 -7 9 -15 5 -8 -3 -15 -2 -15 3 0 4 -34 7 -77 8 -54 0 -69 -3 -53
-9 17 -6 20 -12 12 -20 -8 -8 -15 -6 -27 6 -18 18 -35 21 -35 6 0 -5 5 -10 12
-10 6 0 8 -3 5 -6 -4 -4 -20 -1 -37 6 -23 10 -34 10 -43 1 -6 -6 -16 -11 -21
-11 -6 0 -2 7 9 16 17 12 18 16 5 24 -18 11 -30 4 -30 -18 0 -10 -7 -3 -16 15
-9 18 -21 30 -26 27 -6 -4 -6 -10 1 -17 6 -6 11 -18 11 -27 -1 -11 -5 -10 -19
6 -13 16 -25 20 -44 17 -15 -3 -33 -1 -40 5 -7 6 -40 12 -72 14 -33 2 -64 8
-68 13 -4 6 -5 -2 -1 -17 7 -32 -11 -39 -19 -8 -7 26 -23 26 -37 0 -6 -11 -15
-20 -21 -20 -6 0 -6 7 1 20 9 16 8 20 -5 20 -8 0 -16 -8 -16 -17 -1 -17 -2
-17 -6 0 -5 18 -23 24 -23 7 0 -16 -37 -11 -44 6 -8 22 -28 6 -21 -17 9 -26
-10 -24 -30 4 l-17 22 7 -22 c5 -17 2 -23 -9 -23 -9 0 -16 4 -16 10 0 5 -6 7
-13 4 -7 -2 -23 -1 -35 3 -16 6 -19 12 -12 23 8 12 12 13 19 2 7 -12 12 -12
30 -1 11 8 21 17 21 21 0 11 -23 5 -32 -7 -5 -6 -11 -5 -17 4 -7 11 -14 9 -34
-13 -21 -22 -26 -24 -31 -11 -3 9 -11 13 -16 10 -6 -4 -17 -1 -25 5 -12 10
-15 9 -15 -7 0 -19 -18 -43 -32 -43 -4 0 -8 5 -8 10 0 6 7 10 15 10 8 0 15 4
15 8 0 5 -13 9 -30 9 -16 0 -27 -4 -24 -9 7 -11 -9 -10 -42 2 -16 6 -31 7 -38
1 -6 -5 -22 -12 -36 -15 -19 -6 -21 -5 -10 3 11 8 12 13 3 22 -8 8 -14 6 -22
-9 -9 -17 -7 -23 11 -36 15 -11 18 -16 7 -16 -8 0 -22 8 -30 18 -52 57 -111
70 -117 25 -5 -31 -22 -29 -22 2 0 14 -4 25 -10 25 -5 0 -10 -9 -10 -20 0 -11
-4 -20 -10 -20 -5 0 -10 9 -10 20 0 20 0 20 -32 0 -23 -14 -35 -16 -45 -8 -9
7 -14 6 -19 -6 -13 -34 -41 -13 -35 27 0 4 -3 7 -8 7 -5 0 -16 3 -25 6 -9 3
-16 1 -16 -5 0 -6 3 -10 8 -10 19 3 23 -2 12 -16 -11 -13 -14 -13 -26 2 -12
16 -13 16 -14 2 0 -9 -9 -19 -20 -22 -16 -4 -20 0 -20 21 0 22 -2 24 -10 12
-8 -11 -9 -7 -5 15 l6 30 -15 -25 c-10 -18 -11 -29 -4 -38 8 -9 8 -16 0 -24
-9 -9 -12 -8 -12 6 0 15 -3 16 -15 6 -9 -7 -18 -10 -21 -7 -6 6 16 48 31 59 6
5 5 8 -2 8 -16 0 -53 -36 -53 -51 0 -5 -5 -7 -11 -3 -6 3 -9 17 -6 30 3 19 0
24 -17 23 -11 0 -15 -3 -8 -6 6 -2 12 -9 12 -15 0 -6 -16 -7 -41 -3 -29 5 -40
4 -35 -4 4 -6 16 -11 27 -11 11 0 19 -7 19 -17 0 -11 -3 -14 -8 -7 -11 17 -90
34 -96 20 -3 -7 -8 -6 -15 4 -10 13 -12 13 -22 0 -8 -11 -12 -12 -16 -2 -2 6
-8 10 -12 8 -4 -3 -6 9 -5 27 2 18 1 24 -2 15 -6 -20 -29 -24 -39 -8 -4 6 -12
7 -18 3 -17 -11 -31 -10 -40 2 -6 7 -10 6 -14 -3 -2 -6 -8 -10 -13 -7 -4 3 -7
-3 -6 -12 0 -9 -5 -18 -11 -20 -7 -3 -13 2 -13 11 0 20 -16 21 -24 1 -3 -8
-10 -15 -16 -15 -17 0 -24 31 -9 42 10 7 9 8 -6 2 -11 -4 -45 -7 -75 -6 -35 2
-50 -1 -41 -7 7 -5 22 -6 32 -4 11 3 19 0 19 -7 0 -7 8 -9 20 -5 14 4 20 2 20
-9 0 -22 -16 -28 -30 -11 -17 20 -40 19 -41 -2 -1 -16 -2 -16 -6 -2 -4 18 -60
33 -86 23 -8 -3 -32 -1 -52 5 -33 9 -35 8 -30 -10 5 -14 2 -19 -10 -19 -12 0
-16 6 -12 20 3 11 1 20 -4 20 -5 0 -9 -9 -9 -21 0 -12 -4 -17 -11 -14 -6 4 -8
13 -5 21 3 8 1 14 -4 14 -6 0 -10 -8 -11 -17 0 -13 -2 -14 -6 -4 -4 11 -10 8
-24 -10 l-19 -24 0 23 c0 26 -8 27 -38 6 -23 -16 -31 -7 -11 13 8 8 8 13 0 18
-7 4 -10 1 -9 -7 2 -8 -5 -12 -19 -11 -20 2 -28 -6 -24 -29 0 -4 -6 -5 -14 -2
-8 4 -12 10 -9 15 3 5 -7 14 -21 19 -34 13 -35 13 -35 -3 0 -14 -11 -17 -62
-18 -16 -1 -28 -5 -28 -9 0 -8 -49 5 -82 21 -21 11 -24 -1 -5 -20 23 -23 -23
0 -51 25 -14 13 -30 24 -36 24 -6 0 -5 -4 3 -9 10 -7 10 -10 1 -16 -19 -12
-54 -12 -62 -1 -4 6 -13 4 -24 -5 -16 -12 -17 -12 -11 3 5 13 2 17 -12 15 -11
-2 -26 -9 -35 -16 -10 -9 -28 -11 -57 -6 -29 5 -38 10 -28 16 10 6 11 9 1 9
-7 0 -22 -15 -33 -32 -12 -18 -18 -25 -15 -14 4 10 1 25 -5 32 -13 16 -33 19
-24 4 3 -5 1 -10 -5 -10 -7 0 -9 -9 -5 -22 5 -20 4 -21 -5 -5 -6 9 -18 17 -26
17 -8 0 -12 -4 -9 -10 10 -17 -4 -11 -24 9 -11 11 -17 22 -13 25 3 3 -2 6 -11
6 -21 0 -22 -16 -1 -24 8 -3 12 -11 9 -17 -5 -7 -13 -5 -25 6 -14 13 -23 14
-38 6 -11 -6 -22 -7 -26 -4 -3 3 -6 -3 -6 -15 0 -12 -4 -22 -10 -22 -5 0 -10
7 -10 15 0 8 -7 15 -16 15 -11 0 -14 -6 -9 -20 8 -24 -1 -26 -23 -3 -12 12
-13 18 -4 21 17 5 15 22 -3 22 -8 0 -15 -4 -15 -10 0 -5 -7 -10 -16 -10 -10 0
-14 6 -10 15 3 8 2 15 -3 15 -11 0 -32 -25 -27 -31 8 -8 -79 -4 -92 5 -8 5
-18 4 -25 -3 -8 -8 -6 -11 6 -11 26 0 20 -17 -7 -22 -19 -4 -22 -1 -18 14 3
12 -1 18 -13 18 -9 0 -19 -9 -22 -20 -3 -11 -10 -20 -15 -20 -6 0 -8 7 -4 15
4 11 -2 15 -20 15 -14 0 -22 -4 -19 -10 3 -5 0 -10 -8 -10 -8 0 -14 7 -13 16
0 9 -6 19 -14 21 -12 4 -12 3 -1 -5 8 -6 9 -12 3 -16 -6 -3 -13 -2 -17 4 -9
14 -43 13 -48 -2 -2 -7 -2 -3 0 10 2 12 0 22 -4 22 -17 -1 -43 -28 -43 -46 0
-17 -1 -17 -15 2 -8 10 -15 29 -15 42 0 12 -4 22 -10 22 -5 0 -10 -8 -10 -18
0 -27 -10 -33 -33 -20 -16 8 -22 8 -25 -1 -2 -6 -8 -9 -13 -6 -5 4 -6 -1 -3
-9 3 -9 3 -16 -1 -16 -11 0 -61 54 -67 71 -3 8 -9 10 -14 5 -5 -5 -4 -11 4
-13 6 -3 12 -9 12 -14 0 -14 -28 -11 -33 4 -2 6 -8 9 -13 4 -4 -4 2 -14 14
-23 12 -8 22 -20 22 -26 0 -7 -5 -7 -14 1 -8 6 -18 10 -22 9 -5 -2 -9 0 -9 3
0 3 -6 13 -14 22 -12 15 -10 18 10 26 13 5 18 10 11 10 -19 1 -63 -35 -54 -43
8 -9 -17 -26 -38 -26 -13 0 -13 1 0 10 8 5 11 12 8 16 -11 10 -60 -5 -53 -16
3 -6 1 -10 -4 -10 -6 0 -11 4 -11 9 0 5 -9 7 -20 4 -11 -3 -20 0 -20 6 0 6 7
11 16 11 31 0 7 23 -26 25 -19 2 -28 1 -19 -2 9 -2 19 -17 21 -32 4 -26 2 -28
-14 -17 -10 6 -18 16 -18 23 0 7 -10 18 -22 24 -19 9 -21 9 -10 -2 14 -16 16
-33 2 -24 -5 3 -10 1 -10 -4 0 -6 -4 -11 -10 -11 -5 0 -10 7 -10 15 0 19 -39
20 -46 0 -3 -8 -15 -17 -26 -21 -19 -6 -19 -6 -1 -20 17 -14 16 -14 -5 -4 -12
6 -26 8 -31 5 -5 -3 -11 -1 -13 4 -1 4 -43 11 -91 14 -67 4 -87 2 -84 -7 3 -8
-4 -11 -25 -8 -29 4 -29 5 -7 16 12 6 24 17 25 24 1 7 0 8 -3 2 -7 -14 -60
-12 -67 3 -2 6 -4 1 -3 -13 2 -27 -10 -29 -62 -8 -14 6 -36 11 -49 12 -13 1
-27 7 -31 14 -8 14 -41 6 -41 -10 0 -7 4 -7 13 0 8 6 17 4 30 -8 17 -16 16
-17 -25 -17 -49 -1 -66 6 -47 18 7 4 10 12 5 16 -5 4 -11 2 -13 -5 -3 -6 -9
-10 -14 -7 -5 4 -6 -1 -3 -9 4 -11 0 -16 -10 -16 -9 0 -16 8 -17 18 0 13 -2
14 -6 2 -12 -31 -53 -34 -53 -4 0 12 -5 12 -33 1 -33 -14 -71 -16 -83 -4 -13
13 -47 7 -61 -10 -12 -16 -13 -15 -6 12 6 27 5 29 -10 16 -10 -7 -17 -10 -17
-5 0 5 -5 2 -10 -6 -8 -12 -10 -12 -11 5 0 11 -3 14 -6 8 -2 -7 -20 -13 -39
-13 -25 0 -34 4 -35 18 0 12 -3 10 -10 -7 -5 -14 -7 -31 -5 -38 3 -7 1 -13 -4
-13 -6 0 -10 6 -10 13 0 6 -7 3 -16 -8 -15 -20 -15 -20 -34 5 -11 14 -20 30
-20 35 0 6 9 -3 20 -20 20 -29 20 -30 26 -7 4 12 13 22 20 22 8 0 14 4 14 10
0 5 -25 8 -56 6 -39 -2 -54 0 -50 9 3 8 -7 7 -30 -4 -19 -8 -34 -20 -34 -26 0
-5 -12 -11 -27 -12 -15 0 -29 -6 -31 -12 -6 -17 -27 -13 -56 10 -14 11 -26 17
-26 14 0 -4 -7 -2 -15 5 -8 7 -15 9 -15 6 0 -11 27 -36 33 -30 3 3 8 1 11 -4
3 -5 -3 -12 -14 -15 -11 -3 -20 -1 -20 5 0 5 -10 6 -22 3 -18 -5 -19 -4 -8 4
8 5 11 13 7 17 -3 4 -13 1 -22 -6 -8 -7 -33 -11 -60 -8 -25 2 -45 0 -45 -3 0
-8 -38 -5 -46 4 -14 14 -64 7 -64 -8 0 -8 -7 -15 -16 -15 -14 0 -14 3 -4 15
11 13 8 15 -16 14 -16 0 -23 -3 -16 -6 6 -2 12 -11 12 -19 0 -9 -4 -12 -10 -9
-5 3 -10 1 -10 -5 0 -6 -5 -8 -10 -5 -6 4 -8 10 -6 14 3 3 -4 7 -15 7 -10 0
-19 -4 -19 -9 0 -4 -4 -6 -9 -3 -5 4 -12 0 -15 -6 -3 -7 -3 -1 0 15 5 23 3 27
-17 26 -13 0 -18 -3 -11 -6 10 -4 9 -8 -5 -19 -10 -7 -22 -13 -28 -14 -5 0 -4
4 4 9 11 7 9 11 -9 21 -20 10 -21 10 -16 -8 5 -15 1 -21 -16 -25 -28 -8 -34
-2 -19 16 9 12 7 14 -13 12 -13 -2 -32 -6 -43 -9 -10 -3 -33 -2 -51 3 -20 6
-32 6 -32 0 0 -15 -30 -10 -37 7 -5 13 -7 13 -14 2 -7 -10 -9 -10 -9 0 0 6 -5
12 -11 12 -6 0 -8 -9 -4 -22 6 -21 5 -22 -8 -5 -15 18 -43 24 -32 7 3 -5 -3
-10 -13 -10 -16 0 -19 5 -14 22 4 18 2 20 -19 15 -13 -4 -30 -7 -36 -7 -7 0
-13 -4 -13 -9 0 -5 10 -7 23 -5 22 4 22 4 -1 -6 -13 -5 -28 -8 -32 -5 -5 3
-11 1 -15 -5 -3 -5 -11 -10 -17 -10 -7 0 -2 9 10 20 22 20 32 67 12 55 -5 -3
-10 -11 -10 -16 0 -33 -93 -67 -109 -40 -4 6 -17 8 -29 4 -12 -3 -19 -10 -16
-15 7 -10 -13 -28 -31 -28 -5 0 -3 4 5 10 12 7 9 13 -15 34 -17 14 -33 26 -37
26 -15 0 -8 -15 12 -28 21 -13 27 -32 10 -32 -5 0 -15 6 -22 14 -11 12 -17 12
-41 0 -23 -13 -33 -13 -67 -1 -22 7 -37 17 -33 22 5 4 2 5 -5 1 -7 -4 -19 -3
-26 3 -10 8 -18 6 -31 -9 -10 -11 -24 -20 -32 -20 -8 0 -11 -4 -8 -10 11 -18
-11 -11 -29 9 -10 11 -25 17 -36 14 -11 -3 -33 0 -50 6 -17 5 -28 6 -25 2 3
-5 3 -16 0 -24 -6 -15 -51 -12 -61 4 -3 5 -13 9 -22 9 -13 0 -13 -2 4 -14 17
-13 14 -13 -21 -1 -25 8 -42 10 -46 3 -4 -5 -13 -3 -23 7 -9 9 -16 14 -16 10
0 -3 -9 -1 -20 5 -16 9 -20 8 -20 -5 0 -8 -3 -14 -7 -14 -21 3 -32 -2 -27 -14
3 -10 -8 -13 -48 -12 -29 0 -58 4 -65 8 -6 4 -23 3 -38 -3 -35 -13 -38 -13
-32 5 4 8 2 17 -3 20 -6 4 -10 -3 -10 -15 0 -16 -5 -21 -22 -18 -15 2 -22 -2
-20 -10 2 -9 -2 -11 -10 -5 -7 4 -21 6 -30 5 -27 -5 -22 16 5 21 l22 4 -22 2
c-13 0 -32 -8 -43 -19 -23 -23 -39 -27 -21 -6 9 11 8 15 -5 20 -10 4 -22 2
-28 -4 -7 -7 -5 -10 4 -10 11 -1 10 -5 -4 -15 -24 -18 -40 -20 -30 -3 11 17
12 68 2 68 -5 0 -8 -10 -6 -22 2 -19 -2 -23 -27 -25 -16 -1 -49 -6 -72 -11
-36 -8 -43 -7 -43 6 0 13 -3 13 -12 4 -14 -14 -58 -16 -58 -3 0 5 6 11 13 14
6 2 9 8 5 12 -11 11 -28 -4 -28 -26 0 -10 -5 -19 -11 -19 -7 0 -10 12 -7 30
l5 30 -22 -20 c-25 -23 -39 -26 -32 -6 4 10 1 13 -9 9 -7 -3 -14 -12 -14 -21
0 -21 -10 -10 -15 18 -2 12 -7 25 -11 29 -4 3 -5 -1 -1 -11 8 -22 -3 -30 -21
-16 -11 10 -20 6 -44 -22 -16 -19 -27 -30 -25 -25 3 6 -1 19 -8 29 -11 14 -20
17 -42 11 -39 -11 -103 -13 -97 -3 3 4 -2 5 -11 2 -12 -5 -13 -9 -4 -20 8 -9
8 -14 1 -14 -6 0 -13 4 -17 9 -7 12 -59 3 -64 -11 -2 -6 -7 -5 -12 3 -6 10 -9
11 -9 2 0 -7 -5 -13 -11 -13 -6 0 -9 7 -5 15 3 9 0 15 -8 15 -7 0 -19 -7 -26
-15 -13 -16 -45 -21 -35 -6 3 5 1 12 -5 16 -5 3 -10 1 -10 -5 0 -6 -10 -10
-22 -9 -13 2 -29 0 -37 -5 -8 -5 -16 -4 -20 2 -4 6 -12 7 -20 3 -16 -11 -51
-2 -51 12 0 5 -9 2 -20 -8 -22 -20 -50 -14 -51 12 0 14 -2 13 -10 -5 -9 -23
-12 -23 -76 -17 -38 4 -73 12 -80 17 -8 6 -21 3 -38 -8 -20 -13 -29 -14 -38
-5 -9 10 -8 11 6 6 9 -4 17 -3 17 3 0 5 -16 12 -35 14 -24 3 -35 0 -35 -9 0
-7 -7 -10 -15 -7 -8 4 -15 1 -15 -5 0 -6 -10 -11 -22 -11 -21 0 -21 0 -2 15
15 11 16 14 4 15 -9 0 -21 -5 -26 -10 -7 -7 -25 -8 -51 -2 -23 5 -47 6 -54 1
-8 -5 -10 -9 -6 -9 5 0 5 -5 1 -11 -5 -8 -9 -8 -14 1 -6 9 -13 9 -31 -2 -13
-7 -26 -16 -29 -20 -3 -4 -17 -2 -31 6 -13 7 -30 11 -37 8 -6 -2 -12 2 -12 8
0 8 -8 10 -22 6 -45 -14 -73 -14 -88 -1 -9 8 -22 10 -35 5 -20 -9 -6 -15 24
-11 11 2 11 0 0 -12 -10 -10 -18 -12 -26 -5 -7 5 -18 6 -24 2 -8 -5 -10 -2 -6
8 3 10 0 15 -11 14 -10 0 -16 5 -14 14 3 11 0 11 -15 -3 -15 -13 -22 -14 -32
-4 -11 10 -11 8 0 -10 8 -14 17 -19 24 -13 6 5 17 5 24 1 9 -6 4 -10 -16 -14
-15 -3 -29 -1 -31 4 -5 13 -30 11 -35 -3 -4 -10 -7 -10 -15 0 -5 7 -24 14 -43
16 -19 2 -42 7 -52 11 -11 4 -23 3 -30 -4 -6 -6 -21 -11 -33 -11 -13 0 -26 -5
-29 -10 -7 -12 -25 -4 -25 12 0 5 7 8 15 5 8 -4 17 -2 20 3 4 6 16 10 28 11
21 0 21 1 2 8 -11 5 -25 4 -32 -1 -7 -6 -22 -8 -33 -5 -17 4 -20 2 -15 -14 4
-10 2 -19 -3 -19 -6 0 -12 6 -15 13 -4 14 -77 17 -77 2 0 -5 -7 -2 -14 8 -14
18 -14 18 -21 -2 -3 -11 -12 -18 -20 -15 -7 3 -16 0 -20 -6 -5 -8 -14 -6 -31
5 -13 8 -24 11 -24 6 0 -6 8 -15 17 -21 17 -11 17 -11 1 -6 -10 3 -19 2 -22
-2 -3 -5 -23 -9 -46 -10 -27 -2 -39 1 -35 8 9 14 -41 13 -66 -3 -17 -9 -23 -9
-26 1 -3 6 -9 12 -14 12 -6 0 -7 -5 -4 -10 7 -11 -76 -10 -85 1 -3 4 -16 10
-30 14 -23 6 -24 6 -7 -7 16 -12 -1 -14 -130 -12 -81 0 -156 4 -165 9 -13 5
-18 3 -18 -9 0 -9 3 -16 8 -17 26 -2 1190 -8 1816 -8 412 -1 747 -3 744 -6 -2
-3 -646 -5 -1431 -5 l-1427 -1 -55 26 c-30 15 -55 30 -55 34 0 5 17 11 38 13
24 4 71 29 132 70 52 36 110 73 128 82 19 10 30 21 26 28 -5 7 -3 8 5 4 7 -5
20 -2 29 6 9 8 39 27 67 43 27 16 58 36 68 45 17 16 196 133 238 157 12 6 24
15 28 20 8 13 158 103 171 103 5 0 10 3 10 8 1 4 30 25 66 47 35 22 88 57 117
78 29 22 61 43 72 48 11 5 32 17 47 27 14 9 48 30 75 46 26 16 91 59 143 95
52 36 136 92 185 123 50 32 167 107 260 169 94 61 249 162 345 225 96 62 185
120 197 129 13 9 24 14 26 13 2 -2 10 4 19 12 9 8 35 27 59 42 58 35 400 264
416 278 7 5 19 10 27 10 8 0 19 6 23 13 4 8 28 26 53 40 25 14 55 36 68 47 12
12 26 19 31 16 5 -3 14 1 21 10 16 19 188 134 201 134 5 0 9 4 9 8 0 5 12 15
28 23 15 7 43 26 63 41 20 15 44 28 52 28 8 0 20 7 27 15 7 8 19 15 27 15 19
0 44 25 35 35 -4 5 1 5 10 2 9 -3 22 1 29 9 7 8 19 12 27 9 10 -3 12 0 8 10
-4 10 2 19 18 25 13 5 25 13 27 18 2 5 45 34 94 65 50 31 95 60 100 65 25 21
261 177 268 177 4 0 7 4 6 8 0 13 70 49 82 42 5 -4 8 -1 7 7 -2 7 3 12 10 11
6 -2 12 1 12 6 0 9 68 56 80 56 3 0 12 6 20 13 25 21 170 122 176 122 12 0 34
29 34 45 0 21 13 17 105 -37z m7672 -320 c-3 -8 -6 -5 -6 6 -1 11 2 17 5 13 3
-3 4 -12 1 -19z m-473 -93 c3 -8 1 -15 -4 -15 -6 0 -10 7 -10 15 0 8 2 15 4
15 2 0 6 -7 10 -15z m16 -63 c0 -8 -1 -13 -3 -11 -1 2 -9 12 -16 22 -12 15
-12 17 3 11 9 -3 16 -13 16 -22z m-6215 8 c3 -5 1 -10 -4 -10 -6 0 -11 5 -11
10 0 6 2 10 4 10 3 0 8 -4 11 -10z m6215 -92 c0 -5 -4 -8 -10 -8 -5 0 -10 10
-10 23 0 18 2 19 10 7 5 -8 10 -18 10 -22z m-4913 -200 c-3 -8 -6 -5 -6 6 -1
11 2 17 5 13 3 -3 4 -12 1 -19z m-47 -48 c0 -5 -4 -10 -10 -10 -5 0 -10 5 -10
10 0 6 5 10 10 10 6 0 10 -4 10 -10z m4970 -40 c0 -5 -4 -10 -9 -10 -6 0 -13
5 -16 10 -3 6 1 10 9 10 9 0 16 -4 16 -10z m-5453 -52 c-3 -7 -5 -2 -5 12 0
14 2 19 5 13 2 -7 2 -19 0 -25z m138 12 c-3 -5 -11 -10 -16 -10 -6 0 -7 5 -4
10 3 6 11 10 16 10 6 0 7 -4 4 -10z m5310 -10 c3 -5 1 -10 -4 -10 -6 0 -11 5
-11 10 0 6 2 10 4 10 3 0 8 -4 11 -10z m-11 -45 c-4 -8 -10 -13 -15 -10 -4 3
-6 12 -3 20 4 8 10 13 15 10 4 -3 6 -12 3 -20z m33 -7 c-3 -8 -6 -5 -6 6 -1
11 2 17 5 13 3 -3 4 -12 1 -19z m2 -128 c-1 -33 -6 -60 -12 -60 -5 0 -7 10 -3
23 3 12 6 39 6 60 0 20 2 37 5 37 3 0 5 -27 4 -60z m-2 -102 c-3 -7 -5 -2 -5
12 0 14 2 19 5 13 2 -7 2 -19 0 -25z m3 -285 c0 -61 -3 -83 -10 -73 -13 20
-13 160 0 160 6 0 10 -36 10 -87z m-3 -170 c-2 -16 -4 -5 -4 22 0 28 2 40 4
28 2 -13 2 -35 0 -50z m405 -157 c1 -97 -2 -179 -5 -183 -4 -3 -7 78 -7 182 0
104 2 186 5 183 3 -3 6 -85 7 -182z m-439 140 c4 -10 1 -13 -9 -9 -15 6 -19
23 -5 23 5 0 11 -7 14 -14z m36 -213 c1 -117 -3 -204 -9 -213 -7 -10 -10 52
-9 198 1 116 6 212 10 212 4 0 8 -89 8 -197z m-29 37 c0 -5 -2 -10 -4 -10 -3
0 -8 5 -11 10 -3 6 -1 10 4 10 6 0 11 -4 11 -10z m432 -307 c-5 -181 -8 -199
-10 -50 -1 81 1 147 6 147 4 0 6 -44 4 -97z m-405 2 c-1 -33 -2 -34 -20 -18
-10 10 -14 19 -8 21 6 2 11 10 11 18 0 8 4 14 9 14 5 0 9 -16 8 -35z m440 -37
c-3 -7 -5 -2 -5 12 0 14 2 19 5 13 2 -7 2 -19 0 -25z m-413 -14 c3 -8 2 -12
-4 -9 -6 3 -10 10 -10 16 0 14 7 11 14 -7z m-2516 -657 c12 -13 19 -26 16 -30
-4 -3 -15 4 -25 16 -18 22 -18 22 -33 2 -12 -16 -17 -18 -27 -7 -11 10 -10 12
4 12 10 0 20 7 23 15 8 21 17 19 42 -8z m-978 -7 c0 -5 -4 -10 -10 -10 -5 0
-10 5 -10 10 0 6 5 10 10 10 6 0 10 -4 10 -10z m262 -22 c-9 -9 -12 -7 -12 12
0 19 3 21 12 12 9 -9 9 -15 0 -24z m1428 3 c24 -9 24 -10 -7 -10 -28 -1 -33 3
-33 22 0 14 3 18 8 10 4 -7 19 -16 32 -22z m-4397 0 c10 -10 7 -12 -12 -9 -14
1 -26 8 -28 15 -5 15 23 11 40 -6z m1491 3 c3 -8 2 -12 -4 -9 -6 3 -10 10 -10
16 0 14 7 11 14 -7z m1866 12 c0 -2 -9 -6 -20 -9 -11 -3 -20 -1 -20 4 0 5 9 9
20 9 11 0 20 -2 20 -4z m916 -23 c-10 -10 -19 5 -10 18 6 11 8 11 12 0 2 -7 1
-15 -2 -18z m-126 7 c0 -5 -4 -10 -10 -10 -5 0 -10 5 -10 10 0 6 5 10 10 10 6
0 10 -4 10 -10z m580 0 c0 -5 -4 -10 -10 -10 -5 0 -10 5 -10 10 0 6 5 10 10
10 6 0 10 -4 10 -10z m344 -14 c-3 -9 -10 -16 -15 -16 -5 0 -4 9 3 20 14 22
21 20 12 -4z m76 14 c0 -5 -4 -10 -10 -10 -5 0 -10 5 -10 10 0 6 5 10 10 10 6
0 10 -4 10 -10z m-2240 -10 c0 -5 -2 -10 -4 -10 -3 0 -8 5 -11 10 -3 6 -1 10
4 10 6 0 11 -4 11 -10z m1700 0 c0 -5 -6 -10 -14 -10 -8 0 -18 5 -21 10 -3 6
3 10 14 10 12 0 21 -4 21 -10z m170 6 c0 -2 -7 -9 -15 -16 -13 -11 -14 -10 -9
4 5 14 24 23 24 12z m405 -6 c3 -5 1 -10 -4 -10 -6 0 -11 5 -11 10 0 6 2 10 4
10 3 0 8 -4 11 -10z m35 1 c0 -6 -4 -13 -10 -16 -5 -3 -10 1 -10 9 0 9 5 16
10 16 6 0 10 -4 10 -9z m-3175 -11 c3 -6 -1 -7 -9 -4 -18 7 -21 14 -7 14 6 0
13 -4 16 -10z m50 0 c3 -5 1 -10 -4 -10 -6 0 -11 5 -11 10 0 6 2 10 4 10 3 0
8 -4 11 -10z m2870 0 c3 -5 -1 -10 -10 -10 -9 0 -13 5 -10 10 3 6 8 10 10 10
2 0 7 -4 10 -10z m-5346 -26 c22 5 23 5 8 -5 -10 -6 -29 -8 -43 -5 -15 4 -24
2 -24 -5 0 -7 -2 -10 -5 -8 -2 3 -2 15 1 27 6 19 8 20 22 6 9 -10 24 -13 41
-10z m411 22 c0 -2 -7 -7 -16 -10 -8 -3 -12 -2 -9 4 6 10 25 14 25 6z m4790
-6 c0 -5 -2 -10 -4 -10 -3 0 -8 5 -11 10 -3 6 -1 10 4 10 6 0 11 -4 11 -10z
m800 -1 c0 -6 -6 -9 -14 -6 -7 3 -19 0 -25 -6 -8 -8 -11 -7 -11 6 0 11 8 17
25 17 14 0 25 -5 25 -11z m-5913 -5 c-3 -3 -12 -4 -19 -1 -8 3 -5 6 6 6 11 1
17 -2 13 -5z m783 2 c0 -3 -4 -8 -10 -11 -5 -3 -10 -1 -10 4 0 6 5 11 10 11 6
0 10 -2 10 -4z m450 -6 c0 -5 -5 -10 -11 -10 -5 0 -7 5 -4 10 3 6 8 10 11 10
2 0 4 -4 4 -10z m-2570 -10 c0 -5 -5 -10 -11 -10 -5 0 -7 5 -4 10 3 6 8 10 11
10 2 0 4 -4 4 -10z m580 0 c0 -5 -4 -10 -10 -10 -5 0 -10 5 -10 10 0 6 5 10
10 10 6 0 10 -4 10 -10z m-426 -9 c11 -4 15 -10 9 -14 -5 -3 -19 0 -29 8 -20
15 -11 18 20 6z m273 3 c-3 -3 -12 -4 -19 -1 -8 3 -5 6 6 6 11 1 17 -2 13 -5z
m1613 -4 c0 -5 -4 -10 -10 -10 -5 0 -10 5 -10 10 0 6 5 10 10 10 6 0 10 -4 10
-10z m-1770 -10 c0 -5 -4 -10 -10 -10 -5 0 -10 5 -10 10 0 6 5 10 10 10 6 0
10 -4 10 -10z m721 -13 c-10 -9 -11 -8 -5 6 3 10 9 15 12 12 3 -3 0 -11 -7
-18z m389 13 c0 -5 -2 -10 -4 -10 -3 0 -8 5 -11 10 -3 6 -1 10 4 10 6 0 11 -4
11 -10z m40 0 c0 -5 -4 -10 -10 -10 -5 0 -10 5 -10 10 0 6 5 10 10 10 6 0 10
-4 10 -10z m-2638 -15 c0 -5 -5 -11 -11 -13 -6 -2 -11 4 -11 13 0 9 5 15 11
13 6 -2 11 -8 11 -13z m2248 5 c0 -5 -5 -10 -11 -10 -5 0 -7 5 -4 10 3 6 8 10
11 10 2 0 4 -4 4 -10z m6486 -9 c-7 -11 22 -23 36 -14 7 3 8 1 4 -6 -4 -6 -18
-9 -34 -5 -15 3 -33 6 -39 6 -19 2 -16 8 10 18 29 11 29 12 23 1z m-8024 -8
c-6 -2 -9 -10 -6 -15 4 -7 2 -8 -4 -4 -18 11 -14 26 6 25 10 0 12 -3 4 -6z
m-47 -13 c3 -5 1 -10 -4 -10 -6 0 -11 5 -11 10 0 6 2 10 4 10 3 0 8 -4 11 -10z
m-2395 -10 c0 -5 -5 -10 -11 -10 -5 0 -7 5 -4 10 3 6 8 10 11 10 2 0 4 -4 4
-10z m147 -15 c0 -8 -6 -15 -14 -15 -17 0 -17 17 0 23 6 3 12 6 13 6 0 1 1 -6
1 -14z m10403 11 c0 -7 -123 -46 -144 -45 -12 0 8 11 44 23 63 22 100 30 100
22z m-10586 -14 c6 -10 -40 -10 -50 1 -4 4 4 7 19 7 14 0 28 -4 31 -8z m593 2
c-3 -3 -12 -4 -19 -1 -8 3 -5 6 6 6 11 1 17 -2 13 -5z m118 -14 c3 -5 -1 -10
-10 -10 -9 0 -13 5 -10 10 3 6 8 10 10 10 2 0 7 -4 10 -10z m9642 -24 c3 -3
-29 -5 -73 -5 -61 2 -70 3 -39 8 47 8 103 6 112 -3z m-7742 -12 c-28 -7 -145
-11 -145 -4 0 5 12 10 28 12 30 3 133 -3 117 -8z m1125 0 c0 -2 -118 -3 -262
-2 l-263 2 230 6 c216 5 295 3 295 -6z m5857 10 c-3 -3 -12 -4 -19 -1 -8 3 -5
6 6 6 11 1 17 -2 13 -5z m151 -1 c-15 -2 -42 -2 -60 0 -18 2 -6 4 27 4 33 0
48 -2 33 -4z m289 1 c-3 -3 -12 -4 -19 -1 -8 3 -5 6 6 6 11 1 17 -2 13 -5z
m56 -1 c-7 -2 -19 -2 -25 0 -7 3 -2 5 12 5 14 0 19 -2 13 -5z m-7935 -8 c-7
-7 -359 -7 -366 0 -3 3 79 5 183 5 104 0 186 -2 183 -5z m55 -2 c-7 -2 -21 -2
-30 0 -10 3 -4 5 12 5 17 0 24 -2 18 -5z m142 -3 c3 -5 1 -10 -4 -10 -6 0 -11
5 -11 10 0 6 2 10 4 10 3 0 8 -4 11 -10z m528 3 c-13 -2 -33 -2 -45 0 -13 2
-3 4 22 4 25 0 35 -2 23 -4z m124 1 c-3 -3 -12 -4 -19 -1 -8 3 -5 6 6 6 11 1
17 -2 13 -5z m770 0 c-3 -3 -12 -4 -19 -1 -8 3 -5 6 6 6 11 1 17 -2 13 -5z
m86 -1 c-13 -2 -35 -2 -50 0 -16 2 -5 4 22 4 28 0 40 -2 28 -4z m70 0 c-7 -2
-21 -2 -30 0 -10 3 -4 5 12 5 17 0 24 -2 18 -5z m224 1 c-3 -3 -12 -4 -19 -1
-8 3 -5 6 6 6 11 1 17 -2 13 -5z m141 -1 c-15 -2 -42 -2 -60 0 -18 2 -6 4 27
4 33 0 48 -2 33 -4z m115 0 c-7 -2 -21 -2 -30 0 -10 3 -4 5 12 5 17 0 24 -2
18 -5z m60 0 c-7 -2 -21 -2 -30 0 -10 3 -4 5 12 5 17 0 24 -2 18 -5z m410 0
c-7 -2 -21 -2 -30 0 -10 3 -4 5 12 5 17 0 24 -2 18 -5z m1004 1 c-3 -3 -12 -4
-19 -1 -8 3 -5 6 6 6 11 1 17 -2 13 -5z m1930 0 c-3 -3 -12 -4 -19 -1 -8 3 -5
6 6 6 11 1 17 -2 13 -5z m-5399 -11 c-10 -2 -26 -2 -35 0 -10 3 -2 5 17 5 19
0 27 -2 18 -5z m269 1 c-3 -3 -12 -4 -19 -1 -8 3 -5 6 6 6 11 1 17 -2 13 -5z
m40 0 c-3 -3 -12 -4 -19 -1 -8 3 -5 6 6 6 11 1 17 -2 13 -5z m-3017 -204 c-8
-5 -19 -10 -25 -10 -5 0 -3 5 5 10 8 5 20 10 25 10 6 0 3 -5 -5 -10z m5460
-10 c0 -5 -5 -10 -11 -10 -5 0 -7 5 -4 10 3 6 8 10 11 10 2 0 4 -4 4 -10z
m-5140 -4 c0 -3 -4 -8 -10 -11 -5 -3 -10 -1 -10 4 0 6 5 11 10 11 6 0 10 -2
10 -4z m4020 -6 c8 -5 11 -10 5 -10 -5 0 -17 5 -25 10 -8 5 -10 10 -5 10 6 0
17 -5 25 -10z m1300 6 c0 -3 -4 -8 -10 -11 -5 -3 -10 -1 -10 4 0 6 5 11 10 11
6 0 10 -2 10 -4z m-623 -22 c-3 -3 -12 -4 -19 -1 -8 3 -5 6 6 6 11 1 17 -2 13
-5z m3928 -4 c3 -5 2 -10 -4 -10 -5 0 -13 5 -16 10 -3 6 -2 10 4 10 5 0 13 -4
16 -10z m880 0 c-3 -5 -12 -10 -18 -10 -7 0 -6 4 3 10 19 12 23 12 15 0z
m1232 4 c-3 -3 -12 -4 -19 -1 -8 3 -5 6 6 6 11 1 17 -2 13 -5z"/>
<path d="M13735 10140 c-3 -5 -1 -10 4 -10 6 0 11 5 11 10 0 6 -2 10 -4 10 -3
0 -8 -4 -11 -10z"/>
<path d="M13635 10110 c-3 -5 -1 -10 4 -10 6 0 11 5 11 10 0 6 -2 10 -4 10 -3
0 -8 -4 -11 -10z"/>
<path d="M13771 9944 c0 -11 3 -14 6 -6 3 7 2 16 -1 19 -3 4 -6 -2 -5 -13z"/>
<path d="M12555 9350 c-3 -5 1 -10 9 -10 9 0 16 5 16 10 0 6 -4 10 -9 10 -6 0
-13 -4 -16 -10z"/>
<path d="M12425 9230 c-3 -5 -1 -10 4 -10 6 0 11 5 11 10 0 6 -2 10 -4 10 -3
0 -8 -4 -11 -10z"/>
<path d="M11530 8620 c0 -5 5 -10 10 -10 6 0 10 5 10 10 0 6 -4 10 -10 10 -5
0 -10 -4 -10 -10z"/>
<path d="M11505 8609 c-4 -6 -5 -12 -2 -15 2 -3 7 2 10 11 7 17 1 20 -8 4z"/>
<path d="M11340 8470 c0 -5 5 -10 10 -10 6 0 10 5 10 10 0 6 -4 10 -10 10 -5
0 -10 -4 -10 -10z"/>
<path d="M11021 8256 c-8 -9 -11 -19 -7 -23 9 -9 29 13 24 27 -2 8 -8 7 -17
-4z"/>
<path d="M13755 8091 c-3 -5 -2 -12 3 -15 5 -3 9 1 9 9 0 17 -3 19 -12 6z"/>
<path d="M10710 8034 c0 -8 5 -12 10 -9 6 3 10 10 10 16 0 5 -4 9 -10 9 -5 0
-10 -7 -10 -16z"/>
<path d="M13740 7930 c-9 -6 -10 -10 -3 -10 6 0 15 5 18 10 8 12 4 12 -15 0z"/>
<path d="M10155 7610 c3 -5 11 -10 16 -10 6 0 7 5 4 10 -3 6 -11 10 -16 10 -6
0 -7 -4 -4 -10z"/>
<path d="M10040 7540 c0 -5 5 -10 10 -10 6 0 10 5 10 10 0 6 -4 10 -10 10 -5
0 -10 -4 -10 -10z"/>
<path d="M13750 7400 c0 -5 5 -10 11 -10 5 0 7 5 4 10 -3 6 -8 10 -11 10 -2 0
-4 -4 -4 -10z"/>
<path d="M9890 7375 c0 -11 89 -64 95 -55 3 5 -10 16 -30 24 -19 8 -35 20 -35
25 0 6 -7 11 -15 11 -8 0 -15 -2 -15 -5z"/>
<path d="M10015 7285 c17 -14 38 -25 48 -25 9 0 17 -7 17 -15 0 -9 9 -15 21
-15 19 0 18 2 -8 24 -15 13 -38 26 -50 30 -13 4 -23 12 -23 17 0 5 -8 9 -17 9
-14 -1 -11 -6 12 -25z"/>
<path d="M10140 7206 c0 -3 20 -18 45 -35 25 -17 45 -27 45 -23 0 4 -10 14
-21 22 -12 8 -27 21 -35 28 -12 11 -34 17 -34 8z"/>
<path d="M10240 7136 c0 -8 92 -58 97 -52 3 3 -3 9 -13 13 -10 4 -28 15 -38
25 -18 16 -46 25 -46 14z"/>
<path d="M13740 7070 c0 -11 2 -20 4 -20 2 0 6 9 9 20 3 11 1 20 -4 20 -5 0
-9 -9 -9 -20z"/>
<path d="M10360 7055 c0 -2 10 -10 23 -16 20 -11 21 -11 8 4 -13 16 -31 23
-31 12z"/>
<path d="M10415 7020 c3 -5 11 -10 16 -10 6 0 7 5 4 10 -3 6 -11 10 -16 10 -6
0 -7 -4 -4 -10z"/>
<path d="M10483 6978 c10 -7 28 -21 39 -30 12 -10 26 -18 32 -18 14 1 -20 27
-59 46 -17 8 -22 9 -12 2z"/>
<path d="M10580 6916 c0 -2 7 -9 15 -16 13 -11 14 -10 9 4 -5 14 -24 23 -24
12z"/>
<path d="M10634 6875 c11 -8 27 -15 35 -15 13 1 12 4 -3 15 -11 8 -27 15 -35
15 -13 -1 -12 -4 3 -15z"/>
<path d="M10685 6840 c3 -5 10 -10 15 -10 5 0 34 -16 64 -35 69 -44 83 -45 25
-2 -71 52 -121 75 -104 47z"/>
<path d="M10850 6741 c0 -5 7 -12 16 -15 14 -5 15 -4 4 9 -14 17 -20 19 -20 6z"/>
<path d="M10910 6702 c0 -6 9 -12 20 -15 11 -3 20 -3 20 -1 0 2 -9 8 -20 14
-11 6 -20 7 -20 2z"/>
<path d="M10960 6673 c1 -8 39 -35 125 -86 28 -16 52 -33 55 -37 10 -14 70
-40 70 -30 0 5 -6 10 -13 10 -7 0 -31 15 -53 33 -21 17 -59 43 -84 56 -25 13
-52 29 -60 36 -25 20 -40 27 -40 18z"/>
<path d="M11220 6506 c0 -8 122 -88 126 -83 4 4 -13 16 -98 71 -16 10 -28 16
-28 12z"/>
<path d="M11360 6410 c0 -5 3 -10 8 -10 4 0 46 -25 92 -56 47 -30 94 -60 105
-65 11 -5 31 -16 45 -26 14 -9 9 -2 -10 15 -19 17 -41 31 -47 32 -7 0 -13 4
-13 8 0 4 -12 13 -27 19 -16 6 -56 30 -90 52 -35 23 -63 37 -63 31z"/>
<path d="M13725 6389 c-11 -17 1 -21 15 -4 8 9 8 15 2 15 -6 0 -14 -5 -17 -11z"/>
<path d="M11655 6225 c36 -28 156 -106 360 -232 110 -69 233 -147 273 -174 39
-27 72 -46 72 -43 0 10 -42 44 -75 61 -16 9 -32 19 -35 22 -9 10 -69 51 -76
51 -13 0 -220 130 -378 237 -70 46 -179 107 -141 78z"/>
<path d="M13725 5930 c3 -5 8 -10 11 -10 2 0 4 5 4 10 0 6 -5 10 -11 10 -5 0
-7 -4 -4 -10z"/>
<path d="M12573 5640 c26 -16 50 -30 52 -30 2 0 25 -14 50 -31 25 -17 51 -29
58 -26 7 3 5 8 -8 13 -11 4 -22 10 -25 14 -15 18 -147 90 -164 90 -6 0 11 -13
37 -30z"/>
<path d="M12750 5534 c0 -2 9 -8 20 -14 11 -6 20 -7 20 -2 0 6 -9 12 -20 15
-11 3 -20 3 -20 1z"/>
<path d="M12900 5447 c0 -3 19 -17 43 -32 24 -16 36 -21 28 -11 -14 16 -71 51
-71 43z"/>
<path d="M13027 5359 c7 -7 15 -10 18 -7 3 3 -2 9 -12 12 -14 6 -15 5 -6 -5z"/>
<path d="M13060 5351 c0 -17 18 -21 24 -6 3 9 0 15 -9 15 -8 0 -15 -4 -15 -9z"/>
<path d="M13097 5319 c7 -7 15 -10 18 -7 3 3 -2 9 -12 12 -14 6 -15 5 -6 -5z"/>
<path d="M13150 5291 c0 -5 7 -12 16 -15 24 -9 27 -7 10 9 -17 17 -26 19 -26
6z"/>
<path d="M13225 5240 c3 -5 11 -10 16 -10 6 0 7 5 4 10 -3 6 -11 10 -16 10 -6
0 -7 -4 -4 -10z"/>
<path d="M13295 5201 c22 -17 44 -31 48 -31 4 0 25 -11 45 -25 20 -14 41 -25
46 -25 5 0 -11 13 -35 30 -24 16 -49 30 -56 30 -6 0 -18 8 -25 19 -7 10 -24
22 -38 26 -20 6 -17 1 15 -24z"/>
<path d="M9158 6543 c7 -3 16 -2 19 1 4 3 -2 6 -13 5 -11 0 -14 -3 -6 -6z"/>
<path d="M9090 6433 c-38 -7 -47 -22 -12 -21 17 1 33 7 36 15 3 7 4 12 3 12
-1 -1 -13 -4 -27 -6z"/>
<path d="M8850 6240 c0 -5 5 -10 10 -10 6 0 10 5 10 10 0 6 -4 10 -10 10 -5 0
-10 -4 -10 -10z"/>
<path d="M8295 6130 c3 -5 10 -10 16 -10 5 0 9 5 9 10 0 6 -7 10 -16 10 -8 0
-12 -4 -9 -10z"/>
<path d="M11710 4326 c0 -2 7 -7 16 -10 8 -3 12 -2 9 4 -6 10 -25 14 -25 6z"/>
<path d="M10215 4280 c4 -6 11 -8 16 -5 14 9 11 15 -7 15 -8 0 -12 -5 -9 -10z"/>
<path d="M12751 4274 c0 -11 3 -14 6 -6 3 7 2 16 -1 19 -3 4 -6 -2 -5 -13z"/>
<path d="M10730 4271 c0 -6 4 -13 10 -16 6 -3 7 1 4 9 -7 18 -14 21 -14 7z"/>
<path d="M10810 4270 c0 -5 5 -10 10 -10 6 0 10 5 10 10 0 6 -4 10 -10 10 -5
0 -10 -4 -10 -10z"/>
<path d="M11451 4271 c-9 -6 -10 -11 -2 -15 6 -4 11 -3 11 3 0 5 8 12 18 14
12 3 13 5 2 6 -8 0 -21 -3 -29 -8z"/>
<path d="M11696 4271 c-8 -13 5 -71 15 -71 5 0 9 9 9 20 0 11 -4 20 -10 20
-12 0 -9 22 5 32 6 5 6 8 -2 8 -6 0 -14 -4 -17 -9z"/>
<path d="M10155 4256 c-14 -10 -15 -15 -5 -21 8 -5 11 -4 6 3 -4 6 3 12 16 14
14 2 18 6 12 10 -6 4 -19 1 -29 -6z"/>
<path d="M12050 4255 c0 -8 5 -15 10 -15 6 0 10 7 10 15 0 8 -4 15 -10 15 -5
0 -10 -7 -10 -15z"/>
<path d="M12165 4260 c-3 -5 -1 -10 4 -10 6 0 11 5 11 10 0 6 -2 10 -4 10 -3
0 -8 -4 -11 -10z"/>
<path d="M12226 4256 c21 -15 30 -14 19 3 -3 6 -14 11 -23 11 -13 0 -13 -2 4
-14z"/>
<path d="M12590 4262 c0 -12 19 -26 26 -19 2 2 -2 10 -11 17 -9 8 -15 8 -15 2z"/>
<path d="M9225 4250 c-7 -12 12 -12 40 0 18 8 17 9 -7 9 -15 1 -30 -3 -33 -9z"/>
<path d="M9394 4240 c0 -14 5 -18 17 -15 10 3 20 1 24 -5 10 -17 75 -13 75 5
0 8 -4 15 -10 15 -5 0 -10 -4 -10 -10 0 -17 -27 -11 -34 7 -6 15 -8 15 -16 3
-8 -12 -10 -12 -16 3 -9 23 -30 22 -30 -3z"/>
<path d="M9520 4250 c0 -5 6 -7 14 -4 8 3 17 1 21 -5 3 -6 1 -11 -4 -11 -6 0
-11 -5 -11 -11 0 -8 4 -8 14 1 8 6 12 18 9 26 -6 16 -43 20 -43 4z"/>
<path d="M9807 4253 c-3 -5 5 -8 18 -8 13 0 21 3 18 8 -2 4 -10 7 -18 7 -8 0
-16 -3 -18 -7z"/>
<path d="M10655 4250 c-3 -5 1 -10 10 -10 9 0 13 5 10 10 -3 6 -8 10 -10 10
-2 0 -7 -4 -10 -10z"/>
<path d="M11768 4253 c7 -3 16 -2 19 1 4 3 -2 6 -13 5 -11 0 -14 -3 -6 -6z"/>
<path d="M12649 4243 c-12 -16 -12 -17 2 -5 9 7 25 10 35 6 16 -5 16 -4 4 5
-20 15 -25 14 -41 -6z"/>
<path d="M8950 4240 c0 -5 7 -10 16 -10 8 0 12 5 9 10 -3 6 -10 10 -16 10 -5
0 -9 -4 -9 -10z"/>
<path d="M10471 4233 c-18 -20 -6 -29 14 -10 8 9 12 18 8 20 -5 3 -14 -2 -22
-10z"/>
<path d="M11880 4240 c12 -8 7 -9 -21 -4 -21 3 -39 1 -43 -4 -4 -6 10 -10 36
-9 40 2 56 17 26 25 -9 2 -8 0 2 -8z"/>
<path d="M12285 4240 c-3 -5 1 -10 9 -10 9 0 16 5 16 10 0 6 -4 10 -9 10 -6 0
-13 -4 -16 -10z"/>
<path d="M7436 4223 c-6 -14 -5 -15 5 -6 7 7 10 15 7 18 -3 3 -9 -2 -12 -12z"/>
<path d="M7538 4233 c23 -9 12 -23 -18 -23 -30 0 -40 -13 -19 -26 6 -3 15 -1
19 6 4 6 9 11 11 10 2 -1 12 2 22 6 14 5 15 9 6 20 -6 8 -17 14 -23 13 -7 0
-6 -2 2 -6z"/>
<path d="M8920 4229 c0 -5 5 -7 10 -4 6 3 10 8 10 11 0 2 -4 4 -10 4 -5 0 -10
-5 -10 -11z"/>
<path d="M9160 4224 c0 -14 3 -14 15 -4 8 7 15 14 15 16 0 2 -7 4 -15 4 -8 0
-15 -7 -15 -16z"/>
<path d="M9960 4230 c8 -5 22 -9 30 -9 10 0 8 3 -5 9 -27 12 -43 12 -25 0z"/>
<path d="M12096 4225 c4 -8 8 -15 10 -15 2 0 4 7 4 15 0 8 -4 15 -10 15 -5 0
-7 -7 -4 -15z"/>
<path d="M12165 4230 c-7 -12 2 -12 30 0 19 8 19 9 -2 9 -12 1 -25 -3 -28 -9z"/>
<path d="M7965 4221 c-10 -17 12 -21 25 -6 10 12 10 15 -3 15 -9 0 -18 -4 -22
-9z"/>
<path d="M8360 4220 c8 -5 20 -10 25 -10 6 0 3 5 -5 10 -8 5 -19 10 -25 10 -5
0 -3 -5 5 -10z"/>
<path d="M8428 4218 c9 -9 15 -9 24 0 9 9 7 12 -12 12 -19 0 -21 -3 -12 -12z"/>
<path d="M8689 4223 c11 -4 8 -10 -10 -24 -20 -15 -21 -19 -6 -19 9 0 17 5 17
10 0 6 7 10 16 10 14 0 14 3 4 15 -7 8 -18 15 -24 14 -6 0 -5 -3 3 -6z"/>
<path d="M12905 4220 c-4 -6 6 -10 22 -10 22 0 25 2 13 10 -19 12 -27 12 -35
0z"/>
<path d="M13290 4219 c0 -5 5 -7 10 -4 6 3 10 8 10 11 0 2 -4 4 -10 4 -5 0
-10 -5 -10 -11z"/>
<path d="M7007 4209 c7 -7 15 -10 18 -7 3 3 -2 9 -12 12 -14 6 -15 5 -6 -5z"/>
<path d="M8495 4210 c-4 -6 8 -10 29 -10 20 0 36 5 36 10 0 6 -13 10 -29 10
-17 0 -33 -4 -36 -10z"/>
<path d="M8645 4209 c-11 -16 -1 -19 13 -3 7 8 8 14 3 14 -5 0 -13 -5 -16 -11z"/>
<path d="M6490 4194 c0 -8 5 -12 10 -9 6 4 8 11 5 16 -9 14 -15 11 -15 -7z"/>
<path d="M13104 4196 c-10 -8 -16 -17 -13 -20 3 -3 14 3 24 14 21 23 17 26
-11 6z"/>
<path d="M5858 4178 c-8 -19 16 -45 27 -28 3 5 2 10 -4 10 -5 0 -11 8 -13 18
-3 16 -4 16 -10 0z"/>
<path d="M7040 4179 c0 -5 11 -9 25 -9 14 0 25 2 25 4 0 2 -11 6 -25 8 -14 3
-25 1 -25 -3z"/>
<path d="M5745 4170 c3 -5 8 -10 11 -10 2 0 4 5 4 10 0 6 -5 10 -11 10 -5 0
-7 -4 -4 -10z"/>
<path d="M6205 4170 c-3 -6 0 -10 7 -11 7 0 21 -2 31 -4 10 -2 17 1 15 7 -5
15 -45 20 -53 8z"/>
<path d="M6808 4173 c7 -3 16 -2 19 1 4 3 -2 6 -13 5 -11 0 -14 -3 -6 -6z"/>
<path d="M13390 4170 c0 -5 5 -10 11 -10 5 0 7 5 4 10 -3 6 -8 10 -11 10 -2 0
-4 -4 -4 -10z"/>
<path d="M5535 4150 c3 -5 8 -10 11 -10 2 0 4 5 4 10 0 6 -5 10 -11 10 -5 0
-7 -4 -4 -10z"/>
<path d="M5435 4140 c-3 -5 -1 -10 4 -10 6 0 11 5 11 10 0 6 -2 10 -4 10 -3 0
-8 -4 -11 -10z"/>
<path d="M5575 4140 c-3 -5 -1 -10 4 -10 6 0 11 5 11 10 0 6 -2 10 -4 10 -3 0
-8 -4 -11 -10z"/>
<path d="M5600 4140 c0 -5 6 -10 14 -10 8 0 18 5 21 10 3 6 -3 10 -14 10 -12
0 -21 -4 -21 -10z"/>
<path d="M4080 4120 c0 -5 10 -10 23 -10 18 0 19 2 7 10 -19 13 -30 13 -30 0z"/>
<path d="M4150 4100 c17 -11 67 -14 57 -3 -4 3 -22 8 -39 10 -24 2 -29 0 -18
-7z"/>
<path d="M3652 4084 c10 -10 23 -14 34 -10 21 8 14 15 -22 22 -27 5 -28 4 -12
-12z"/>
<path d="M3304 4078 c12 -7 21 -7 28 0 6 6 0 10 -18 10 -23 0 -24 -2 -10 -10z"/>
<path d="M2687 4064 c3 -7 9 -14 14 -14 14 0 10 17 -5 23 -10 4 -13 1 -9 -9z"/>
<path d="M2806 4064 c-4 -9 -4 -19 -1 -22 2 -3 7 3 11 12 4 9 4 19 1 22 -2 3
-7 -3 -11 -12z"/>
<path d="M2632 4061 c-11 -7 -11 -9 0 -14 9 -3 15 1 15 9 0 8 -1 14 -1 14 -1
0 -7 -4 -14 -9z"/>
<path d="M2835 4060 c3 -5 8 -10 11 -10 2 0 4 5 4 10 0 6 -5 10 -11 10 -5 0
-7 -4 -4 -10z"/>
<path d="M1926 4045 c-4 -12 -1 -16 11 -13 18 3 21 20 5 26 -5 1 -12 -4 -16
-13z"/>
<path d="M2130 4039 c0 -7 -22 -9 -65 -6 -36 2 -68 0 -71 -4 -5 -9 29 -11 136
-11 80 1 80 1 80 12 0 5 -13 7 -30 4 -19 -4 -30 -2 -30 5 0 6 -4 11 -10 11 -5
0 -10 -5 -10 -11z"/>
<path d="M13474 11281 c-66 -50 -89 -71 -80 -71 7 0 65 44 121 92 24 20 -6 5
-41 -21z"/>
<path d="M1870 11293 c0 -5 13 -17 28 -27 l27 -19 -24 26 c-26 28 -31 32 -31
20z"/>
<path d="M1940 11236 c0 -2 16 -16 35 -30 19 -15 35 -23 35 -19 0 4 -16 18
-35 31 -19 12 -35 20 -35 18z"/>
<path d="M2020 11176 c0 -2 8 -10 18 -17 15 -13 16 -12 3 4 -13 16 -21 21 -21
13z"/>
<path d="M13217 11083 c-25 -21 -44 -39 -42 -41 2 -2 27 15 55 37 29 23 48 41
42 41 -5 0 -30 -17 -55 -37z"/>
<path d="M2130 11096 c0 -2 8 -10 18 -17 15 -13 16 -12 3 4 -13 16 -21 21 -21
13z"/>
<path d="M13119 11003 c-13 -16 -12 -17 4 -4 16 13 21 21 13 21 -2 0 -10 -8
-17 -17z"/>
<path d="M12993 10919 c-33 -21 -40 -29 -25 -29 8 1 70 50 62 50 -3 0 -20 -10
-37 -21z"/>
<path d="M1451 10840 c0 -14 4 -34 9 -45 7 -17 9 -16 9 10 0 17 -4 37 -9 45
-8 12 -10 10 -9 -10z"/>
<path d="M12695 10702 c-16 -11 -37 -27 -45 -37 -8 -11 6 -4 33 14 26 17 47
34 47 36 0 7 -3 6 -35 -13z"/>
<path d="M12590 10630 c-8 -5 -12 -11 -9 -14 3 -3 14 1 25 9 21 16 8 20 -16 5z"/>
<path d="M12515 10570 c-3 -6 1 -7 9 -4 18 7 21 14 7 14 -6 0 -13 -4 -16 -10z"/>
<path d="M2925 10510 c10 -11 20 -20 23 -20 3 0 -3 9 -13 20 -10 11 -20 20
-23 20 -3 0 3 -9 13 -20z"/>
<path d="M12400 10490 c-9 -6 -10 -10 -3 -10 6 0 15 5 18 10 8 12 4 12 -15 0z"/>
<path d="M12360 10463 c-23 -9 -121 -85 -116 -90 2 -2 24 11 48 29 24 18 55
41 68 50 26 18 26 21 0 11z"/>
<path d="M12205 10350 c-3 -6 1 -7 9 -4 18 7 21 14 7 14 -6 0 -13 -4 -16 -10z"/>
<path d="M12169 10323 c-13 -16 -12 -17 4 -4 9 7 17 15 17 17 0 8 -8 3 -21
-13z"/>
<path d="M14520 10301 c-13 -25 -13 -31 0 -31 6 0 10 7 10 15 0 8 7 15 16 15
8 0 12 5 9 10 -10 16 -23 12 -35 -9z"/>
<path d="M3215 10300 c3 -5 8 -10 11 -10 2 0 4 5 4 10 0 6 -5 10 -11 10 -5 0
-7 -4 -4 -10z"/>
<path d="M3256 10272 c23 -20 114 -83 114 -79 0 7 -108 87 -117 87 -4 0 -3 -4
3 -8z"/>
<path d="M11965 10188 c-11 -6 -24 -15 -30 -20 -5 -5 -44 -33 -85 -64 -41 -30
-79 -60 -85 -66 -12 -13 158 103 200 137 32 26 32 32 0 13z"/>
<path d="M3391 10177 c2 -2 22 -15 44 -31 l40 -27 -35 30 c-19 17 -39 31 -44
31 -5 0 -7 -1 -5 -3z"/>
<path d="M3480 10117 c0 -3 12 -12 26 -22 15 -9 23 -12 20 -6 -7 11 -46 35
-46 28z"/>
<path d="M2055 10060 c10 -11 20 -20 23 -20 3 0 -3 9 -13 20 -10 11 -20 20
-23 20 -3 0 3 -9 13 -20z"/>
<path d="M3565 10056 c36 -32 248 -178 240 -166 -3 5 -55 44 -117 87 -140 99
-160 111 -123 79z"/>
<path d="M11690 9990 c-46 -39 -34 -39 15 0 21 17 34 30 29 30 -5 0 -25 -14
-44 -30z"/>
<path d="M2150 9996 c0 -2 14 -14 30 -26 17 -12 30 -19 30 -16 0 2 -13 14 -30
26 -16 12 -30 19 -30 16z"/>
<path d="M2235 9935 c11 -9 29 -21 40 -26 l20 -10 -20 16 c-11 9 -29 21 -40
26 l-20 10 20 -16z"/>
<path d="M11585 9921 c-16 -10 -39 -29 -50 -41 -16 -19 -11 -17 27 8 64 44 82
70 23 33z"/>
<path d="M2312 9884 c10 -10 20 -16 22 -13 3 3 -5 11 -17 18 -21 13 -21 12 -5
-5z"/>
<path d="M11460 9829 l-45 -41 48 33 c26 18 47 36 47 41 0 12 -1 11 -50 -33z"/>
<path d="M3850 9856 c0 -3 21 -20 48 -37 26 -18 39 -24 30 -13 -17 20 -78 59
-78 50z"/>
<path d="M2370 9847 c0 -3 12 -12 26 -22 15 -9 23 -12 20 -6 -7 11 -46 35 -46
28z"/>
<path d="M2449 9791 c13 -12 28 -21 34 -21 12 0 11 0 -28 24 l-30 17 24 -20z"/>
<path d="M3950 9787 c0 -5 73 -56 100 -70 8 -5 3 2 -12 15 -30 26 -88 62 -88
55z"/>
<path d="M11369 9763 c-13 -17 -13 -17 6 -3 11 8 22 16 24 17 2 2 0 3 -6 3 -6
0 -17 -8 -24 -17z"/>
<path d="M2515 9747 c48 -33 75 -49 75 -44 0 6 -77 57 -87 57 -4 0 1 -6 12
-13z"/>
<path d="M11320 9729 c-22 -18 -22 -19 -3 -10 12 6 25 16 28 21 9 15 3 12 -25
-11z"/>
<path d="M1771 9714 c0 -11 3 -14 6 -6 3 7 2 16 -1 19 -3 4 -6 -2 -5 -13z"/>
<path d="M4070 9706 c0 -2 7 -9 15 -16 9 -7 15 -8 15 -2 0 5 -7 12 -15 16 -8
3 -15 4 -15 2z"/>
<path d="M4114 9671 c7 -11 46 -35 46 -28 0 3 -12 12 -26 22 -15 9 -23 12 -20
6z"/>
<path d="M11229 9663 c-13 -17 -13 -17 6 -3 11 8 22 16 24 17 2 2 0 3 -6 3 -6
0 -17 -8 -24 -17z"/>
<path d="M11190 9640 c-8 -5 -12 -12 -9 -15 4 -3 12 1 19 10 14 17 11 19 -10
5z"/>
<path d="M4180 9627 c0 -3 12 -12 26 -22 15 -9 23 -12 20 -6 -7 11 -46 35 -46
28z"/>
<path d="M11082 9568 c-39 -28 -70 -53 -68 -56 5 -4 156 96 156 103 0 11 -19
1 -88 -47z"/>
<path d="M2740 9596 c0 -2 7 -7 16 -10 8 -3 12 -2 9 4 -6 10 -25 14 -25 6z"/>
<path d="M4264 9568 c52 -42 220 -159 246 -172 29 -15 -36 35 -139 107 -112
77 -154 103 -107 65z"/>
<path d="M2790 9565 c0 -2 10 -10 23 -16 20 -11 21 -11 8 4 -13 16 -31 23 -31
12z"/>
<path d="M2935 9475 c17 -14 44 -33 60 -42 41 -21 30 -12 -35 32 -35 23 -44
27 -25 10z"/>
<path d="M10940 9470 c-8 -5 -12 -12 -9 -15 4 -3 12 1 19 10 14 17 11 19 -10
5z"/>
<path d="M10860 9410 c-9 -6 -10 -10 -3 -10 6 0 15 5 18 10 8 12 4 12 -15 0z"/>
<path d="M10804 9377 c-25 -15 -116 -93 -93 -81 15 8 43 29 102 76 26 20 21
23 -9 5z"/>
<path d="M3120 9356 c0 -2 8 -10 18 -17 15 -13 16 -12 3 4 -13 16 -21 21 -21
13z"/>
<path d="M1782 9300 c0 -14 2 -19 5 -12 2 6 2 18 0 25 -3 6 -5 1 -5 -13z"/>
<path d="M10670 9280 c-13 -8 -12 -10 3 -10 9 0 17 5 17 10 0 12 -1 12 -20 0z"/>
<path d="M1784 9170 c0 -58 1 -81 3 -52 2 28 2 76 0 105 -2 28 -3 5 -3 -53z"/>
<path d="M4725 9244 c36 -28 61 -36 30 -10 -16 14 -34 25 -40 25 -5 0 -1 -7
10 -15z"/>
<path d="M10630 9250 c-9 -6 -10 -10 -3 -10 6 0 15 5 18 10 8 12 4 12 -15 0z"/>
<path d="M10560 9200 l-35 -30 40 25 c47 31 51 35 39 35 -5 0 -25 -14 -44 -30z"/>
<path d="M4830 9170 c25 -22 49 -40 53 -40 5 0 -6 12 -25 27 -18 16 -39 34
-46 40 -7 7 -16 13 -20 13 -4 -1 13 -19 38 -40z"/>
<path d="M3370 9186 c0 -2 7 -7 16 -10 8 -3 12 -2 9 4 -6 10 -25 14 -25 6z"/>
<path d="M10455 9130 c-3 -5 -1 -10 4 -10 6 0 11 5 11 10 0 6 -2 10 -4 10 -3
0 -8 -4 -11 -10z"/>
<path d="M4910 9116 c0 -7 71 -49 75 -44 2 2 -14 14 -36 26 -21 12 -39 21 -39
18z"/>
<path d="M10419 9103 c-13 -16 -12 -17 4 -4 9 7 17 15 17 17 0 8 -8 3 -21 -13z"/>
<path d="M10357 9065 c-20 -14 -37 -28 -37 -31 0 -7 59 29 72 44 16 18 7 15
-35 -13z"/>
<path d="M3577 9049 c7 -7 15 -10 18 -7 3 3 -2 9 -12 12 -14 6 -15 5 -6 -5z"/>
<path d="M5060 9016 c0 -3 9 -10 20 -16 11 -6 20 -8 20 -6 0 3 -9 10 -20 16
-11 6 -20 8 -20 6z"/>
<path d="M10274 9004 c-18 -14 -18 -15 4 -4 12 6 22 13 22 15 0 8 -5 6 -26
-11z"/>
<path d="M3660 8996 c0 -3 9 -10 20 -16 11 -6 20 -8 20 -6 0 3 -9 10 -20 16
-11 6 -20 8 -20 6z"/>
<path d="M1782 8960 c0 -19 2 -27 5 -17 2 9 2 25 0 35 -3 9 -5 1 -5 -18z"/>
<path d="M5110 8983 c0 -5 28 -26 61 -48 34 -22 76 -50 95 -63 59 -39 37 -15
-27 30 -106 74 -129 89 -129 81z"/>
<path d="M3714 8961 c7 -11 46 -35 46 -28 0 3 -12 12 -26 22 -15 9 -23 12 -20
6z"/>
<path d="M10153 8924 c-29 -19 -53 -37 -53 -39 0 -6 59 31 90 55 40 31 20 23
-37 -16z"/>
<path d="M1782 8890 c0 -14 2 -19 5 -12 2 6 2 18 0 25 -3 6 -5 1 -5 -13z"/>
<path d="M3834 8881 c7 -11 46 -35 46 -28 0 3 -12 12 -26 22 -15 9 -23 12 -20
6z"/>
<path d="M10045 8853 c-22 -14 -42 -30 -45 -33 -3 -4 -16 -13 -28 -19 -13 -7
-21 -15 -19 -18 7 -6 109 61 127 82 18 21 10 19 -35 -12z"/>
<path d="M5322 8834 c10 -10 20 -15 24 -12 3 4 -5 12 -18 18 -22 12 -22 12 -6
-6z"/>
<path d="M1781 8794 c0 -11 3 -14 6 -6 3 7 2 16 -1 19 -3 4 -6 -2 -5 -13z"/>
<path d="M3954 8801 c7 -11 46 -35 46 -28 0 3 -12 12 -26 22 -15 9 -23 12 -20
6z"/>
<path d="M5381 8796 c2 -2 36 -25 74 -51 39 -27 105 -73 148 -102 42 -30 77
-52 77 -50 0 9 -284 207 -296 207 -4 0 -5 -2 -3 -4z"/>
<path d="M1782 8740 c0 -14 2 -19 5 -12 2 6 2 18 0 25 -3 6 -5 1 -5 -13z"/>
<path d="M1783 8665 c0 -27 2 -38 4 -22 2 15 2 37 0 50 -2 12 -4 0 -4 -28z"/>
<path d="M9810 8689 c-17 -13 -18 -17 -5 -10 33 17 51 31 40 31 -5 0 -21 -10
-35 -21z"/>
<path d="M4188 8641 c86 -60 92 -63 92 -58 0 6 -147 107 -156 107 -4 0 24 -22
64 -49z"/>
<path d="M9679 8607 c-26 -18 -79 -54 -118 -81 -39 -26 -76 -56 -83 -65 -11
-13 -9 -13 12 2 14 9 32 20 40 24 8 4 49 32 90 62 42 31 87 64 100 73 14 9 21
17 15 17 -5 0 -31 -15 -56 -32z"/>
<path d="M1782 8540 c0 -14 2 -19 5 -12 2 6 2 18 0 25 -3 6 -5 1 -5 -13z"/>
<path d="M4324 8551 c7 -11 46 -35 46 -28 0 3 -12 12 -26 22 -15 9 -23 12 -20
6z"/>
<path d="M5785 8523 c22 -22 145 -104 145 -96 -1 7 -35 32 -124 87 -17 11 -26
15 -21 9z"/>
<path d="M4400 8497 c19 -19 190 -129 190 -122 0 5 -143 101 -190 129 -13 8
-13 7 0 -7z"/>
<path d="M9420 8425 c-19 -14 -30 -25 -24 -25 10 1 73 50 63 50 -3 0 -20 -11
-39 -25z"/>
<path d="M5940 8416 c0 -2 26 -22 58 -43 70 -48 82 -55 82 -50 0 2 -26 21 -57
43 -32 21 -59 42 -61 47 -4 7 -22 10 -22 3z"/>
<path d="M4630 8345 c19 -14 36 -25 39 -25 10 0 -53 49 -63 50 -6 0 5 -11 24
-25z"/>
<path d="M9320 8355 c-11 -13 -10 -14 4 -9 9 3 16 10 16 15 0 13 -6 11 -20 -6z"/>
<path d="M9243 8310 c-18 -9 -48 -29 -67 -44 -19 -14 -38 -26 -41 -26 -4 0
-12 -6 -20 -12 -7 -7 -38 -31 -69 -52 -30 -22 -53 -42 -51 -45 3 -2 27 10 53
29 78 56 197 136 217 148 11 6 18 13 15 15 -3 3 -19 -3 -37 -13z"/>
<path d="M4685 8313 c17 -19 267 -184 272 -180 2 3 -47 38 -109 79 -144 95
-175 114 -163 101z"/>
<path d="M6110 8306 c0 -2 8 -10 18 -17 15 -13 16 -12 3 4 -13 16 -21 21 -21
13z"/>
<path d="M6150 8270 c0 -5 5 -10 11 -10 5 0 7 5 4 10 -3 6 -8 10 -11 10 -2 0
-4 -4 -4 -10z"/>
<path d="M1772 8225 c0 -16 2 -22 5 -12 2 9 2 23 0 30 -3 6 -5 -1 -5 -18z"/>
<path d="M6210 8232 c0 -6 213 -152 259 -177 33 -18 -2 13 -51 46 -29 19 -88
59 -130 87 -43 29 -78 49 -78 44z"/>
<path d="M1774 7965 c0 -110 2 -156 3 -103 2 53 2 143 0 200 -1 57 -3 13 -3
-97z"/>
<path d="M4975 8121 c4 -7 50 -40 103 -75 165 -107 394 -257 472 -309 82 -54
159 -98 125 -71 -11 8 -87 60 -170 113 -82 54 -231 152 -329 217 -218 144
-211 140 -201 125z"/>
<path d="M8933 8094 c-18 -16 -21 -22 -8 -15 32 15 61 40 48 41 -7 0 -25 -12
-40 -26z"/>
<path d="M8874 8055 c-10 -8 -14 -15 -8 -15 6 0 17 7 24 15 16 19 9 19 -16 0z"/>
<path d="M6517 8019 c7 -7 15 -10 18 -7 3 3 -2 9 -12 12 -14 6 -15 5 -6 -5z"/>
<path d="M8782 7990 c-23 -17 -42 -33 -42 -36 0 -4 56 34 85 58 23 20 -6 5
-43 -22z"/>
<path d="M6590 7976 c0 -2 7 -9 15 -16 13 -11 14 -10 9 4 -5 14 -24 23 -24 12z"/>
<path d="M8670 7921 c-25 -14 -62 -38 -81 -53 -20 -16 -40 -28 -44 -28 -5 0
-15 -7 -24 -15 -9 -8 -27 -24 -41 -36 -20 -16 -21 -18 -4 -10 23 11 233 148
249 162 18 17 -10 7 -55 -20z"/>
<path d="M6640 7935 c0 -3 10 -10 23 -15 12 -5 33 -17 47 -26 14 -9 9 -2 -10
15 -31 27 -60 40 -60 26z"/>
<path d="M6750 7865 c7 -8 17 -15 22 -15 6 0 5 7 -2 15 -7 8 -17 15 -22 15 -6
0 -5 -7 2 -15z"/>
<path d="M6813 7825 c15 -14 33 -25 40 -25 7 0 -1 11 -18 25 -39 32 -58 32
-22 0z"/>
<path d="M6890 7776 c0 -6 148 -106 158 -106 8 0 -88 69 -130 95 -16 9 -28 14
-28 11z"/>
<path d="M8365 7719 c-44 -28 -92 -60 -107 -70 -15 -11 -31 -19 -36 -19 -5 0
-15 -7 -22 -15 -7 -8 -16 -13 -20 -10 -4 3 -13 -2 -20 -10 -7 -8 -18 -15 -25
-15 -6 0 -23 -10 -36 -22 -19 -16 -20 -20 -5 -14 56 20 380 226 356 226 -3 0
-41 -23 -85 -51z"/>
<path d="M1773 7695 c0 -22 2 -30 4 -17 2 12 2 30 0 40 -3 9 -5 -1 -4 -23z"/>
<path d="M7060 7660 c0 -5 5 -10 11 -10 5 0 7 5 4 10 -3 6 -8 10 -11 10 -2 0
-4 -4 -4 -10z"/>
<path d="M1772 7630 c0 -14 2 -19 5 -12 2 6 2 18 0 25 -3 6 -5 1 -5 -13z"/>
<path d="M5700 7640 c0 -6 4 -10 9 -10 5 0 26 -16 47 -35 37 -34 54 -43 54
-27 -1 11 -110 83 -110 72z"/>
<path d="M7110 7632 c0 -5 15 -16 33 -25 17 -9 52 -28 77 -43 l45 -26 -29 25
c-16 14 -47 33 -68 43 -21 9 -38 21 -38 26 0 4 -4 8 -10 8 -5 0 -10 -4 -10 -8z"/>
<path d="M1773 7510 c0 -47 2 -66 4 -42 2 23 2 61 0 85 -2 23 -4 4 -4 -43z"/>
<path d="M8040 7535 c-7 -8 -8 -15 -2 -15 5 0 15 7 22 15 7 8 8 15 2 15 -5 0
-15 -7 -22 -15z"/>
<path d="M5660 7505 c-11 -13 -10 -14 4 -9 9 3 16 10 16 15 0 13 -6 11 -20 -6z"/>
<path d="M7326 7505 c10 -8 26 -14 34 -15 8 0 2 7 -14 15 -36 19 -45 19 -20 0z"/>
<path d="M7985 7510 c-19 -8 -19 -9 2 -9 12 -1 25 4 28 9 7 12 -2 12 -30 0z"/>
<path d="M7946 7493 c-4 -5 -28 -16 -54 -25 -40 -15 -42 -17 -12 -12 50 9 80
22 80 34 0 12 -4 13 -14 3z"/>
<path d="M7400 7470 c8 -5 20 -10 25 -10 6 0 3 5 -5 10 -8 5 -19 10 -25 10 -5
0 -3 -5 5 -10z"/>
<path d="M7495 7440 c28 -12 57 -12 50 0 -3 6 -21 10 -38 9 -27 0 -29 -2 -12
-9z"/>
<path d="M7808 7443 c6 -2 18 -2 25 0 6 3 1 5 -13 5 -14 0 -19 -2 -12 -5z"/>
<path d="M7595 7429 c-19 -4 -6 -6 38 -7 37 -1 67 3 67 7 0 9 -59 9 -105 0z"/>
<path d="M5114 7144 c-18 -14 -18 -15 4 -4 12 6 22 13 22 15 0 8 -5 6 -26 -11z"/>
<path d="M5010 7080 c-9 -6 -10 -10 -3 -10 6 0 15 5 18 10 8 12 4 12 -15 0z"/>
<path d="M4965 7050 c-3 -6 1 -7 9 -4 18 7 21 14 7 14 -6 0 -13 -4 -16 -10z"/>
<path d="M1763 6955 c0 -22 2 -30 4 -17 2 12 2 30 0 40 -3 9 -5 -1 -4 -23z"/>
<path d="M4809 6943 c-13 -16 -12 -17 4 -4 9 7 17 15 17 17 0 8 -8 3 -21 -13z"/>
<path d="M4755 6910 c-3 -5 -2 -10 4 -10 5 0 13 5 16 10 3 6 2 10 -4 10 -5 0
-13 -4 -16 -10z"/>
<path d="M1765 6510 c0 -223 1 -314 2 -202 2 111 2 293 0 405 -1 111 -2 20 -2
-203z"/>
<path d="M4695 6870 c-3 -6 1 -7 9 -4 18 7 21 14 7 14 -6 0 -13 -4 -16 -10z"/>
<path d="M4115 6500 c-3 -5 -2 -10 4 -10 5 0 13 5 16 10 3 6 2 10 -4 10 -5 0
-13 -4 -16 -10z"/>
<path d="M3560 6130 c-9 -6 -10 -10 -3 -10 6 0 15 5 18 10 8 12 4 12 -15 0z"/>
<path d="M3420 6040 c-9 -6 -10 -10 -3 -10 6 0 15 5 18 10 8 12 4 12 -15 0z"/>
<path d="M1753 5940 c0 -30 2 -43 4 -27 2 15 2 39 0 55 -2 15 -4 2 -4 -28z"/>
<path d="M3135 5860 c-3 -5 -2 -10 4 -10 5 0 13 5 16 10 3 6 2 10 -4 10 -5 0
-13 -4 -16 -10z"/>
<path d="M1751 5834 c0 -11 3 -14 6 -6 3 7 2 16 -1 19 -3 4 -6 -2 -5 -13z"/>
<path d="M3075 5820 c-10 -11 -23 -20 -29 -20 -13 0 -65 -39 -53 -40 10 0 117
70 117 76 0 11 -19 2 -35 -16z"/>
<path d="M1752 5750 c0 -19 2 -27 5 -17 2 9 2 25 0 35 -3 9 -5 1 -5 -18z"/>
<path d="M2804 5644 c-18 -14 -18 -15 4 -4 12 6 22 13 22 15 0 8 -5 6 -26 -11z"/>
<path d="M1753 5575 c0 -44 2 -61 4 -37 2 23 2 59 0 80 -2 20 -4 1 -4 -43z"/>
<path d="M2760 5620 c-9 -6 -10 -10 -3 -10 6 0 15 5 18 10 8 12 4 12 -15 0z"/>
<path d="M2715 5590 c-3 -5 -2 -10 4 -10 5 0 13 5 16 10 3 6 2 10 -4 10 -5 0
-13 -4 -16 -10z"/>
<path d="M2640 5548 c-45 -28 -44 -27 -39 -33 3 -2 25 9 49 25 52 34 43 41
-10 8z"/>
<path d="M2547 5485 c-20 -14 -37 -28 -37 -31 0 -2 18 8 40 22 35 23 47 34 37
34 -1 0 -19 -11 -40 -25z"/>
<path d="M1753 5435 c0 -27 2 -38 4 -22 2 15 2 37 0 50 -2 12 -4 0 -4 -28z"/>
<path d="M1611 5454 c0 -11 3 -14 6 -6 3 7 2 16 -1 19 -3 4 -6 -2 -5 -13z"/>
<path d="M2353 5362 c-89 -58 -148 -102 -103 -77 45 27 210 136 210 140 0 7 3
9 -107 -63z"/>
<path d="M1754 5295 c0 -49 1 -71 3 -48 2 23 2 64 0 90 -2 26 -3 8 -3 -42z"/>
<path d="M2199 5259 c-23 -19 -23 -20 -2 -10 12 6 25 16 28 21 10 16 -1 12
-26 -11z"/>
<path d="M2116 5205 c-11 -8 -15 -15 -9 -15 6 0 16 7 23 15 16 19 11 19 -14 0z"/>
<path d="M1753 5155 c0 -27 2 -38 4 -22 2 15 2 37 0 50 -2 12 -4 0 -4 -28z"/>
<path d="M2018 5145 c-20 -13 -40 -30 -44 -36 -4 -7 14 2 39 20 26 18 47 34
47 36 0 7 -1 6 -42 -20z"/>
<path d="M14275 5120 c3 -5 8 -10 11 -10 2 0 4 5 4 10 0 6 -5 10 -11 10 -5 0
-7 -4 -4 -10z"/>
<path d="M1737 5070 c-4 -14 -6 -36 -6 -50 1 -18 4 -14 10 14 10 44 6 75 -4
36z"/>
<path d="M1453 5030 c0 -30 2 -43 4 -27 2 15 2 39 0 55 -2 15 -4 2 -4 -28z"/>
<path d="M1770 5000 c0 -5 4 -10 9 -10 6 0 13 5 16 10 3 6 -1 10 -9 10 -9 0
-16 -4 -16 -10z"/>
<path d="M1363 4965 c0 -22 2 -30 4 -17 2 12 2 30 0 40 -3 9 -5 -1 -4 -23z"/>
<path d="M1718 4965 c-5 -25 -4 -25 10 -11 12 11 13 19 5 27 -7 7 -12 3 -15
-16z"/>
<path d="M1557 4854 c-31 -31 -57 -62 -57 -68 0 -6 -5 -4 -10 4 -7 11 -10 7
-10 -17 0 -17 -4 -35 -10 -38 -15 -9 -62 26 -76 60 l-13 30 -1 -27 c0 -25 32
-68 51 -68 4 0 14 -7 23 -15 13 -13 17 -9 39 38 15 34 42 68 70 92 39 32 65
65 53 65 -1 0 -28 -25 -59 -56z"/>
<path d="M1373 4865 c0 -22 2 -30 4 -17 2 12 2 30 0 40 -3 9 -5 -1 -4 -23z"/>
<path d="M1461 4884 c0 -11 3 -14 6 -6 3 7 2 16 -1 19 -3 4 -6 -2 -5 -13z"/>
<path d="M1471 4844 c0 -11 3 -14 6 -6 3 7 2 16 -1 19 -3 4 -6 -2 -5 -13z"/>
<path d="M1718 4043 c7 -3 16 -2 19 1 4 3 -2 6 -13 5 -11 0 -14 -3 -6 -6z"/>
<path d="M1915 3960 c3 -5 8 -10 11 -10 2 0 4 5 4 10 0 6 -5 10 -11 10 -5 0
-7 -4 -4 -10z"/>
<path d="M3628 3753 c7 -3 16 -2 19 1 4 3 -2 6 -13 5 -11 0 -14 -3 -6 -6z"/>
</g>
</svg>
