<?xml version="1.0" standalone="no"?>
<!DOCTYPE svg PUBLIC "-//W3C//DTD SVG 20010904//EN"
 "http://www.w3.org/TR/2001/REC-SVG-20010904/DTD/svg10.dtd">
<svg version="1.0" xmlns="http://www.w3.org/2000/svg"
 width="1536.000000pt" height="1536.000000pt" viewBox="0 0 1536.000000 1536.000000"
 preserveAspectRatio="xMidYMid meet">

<g transform="translate(0.000000,1536.000000) scale(0.100000,-0.100000)"
fill="#000000" stroke="none">
<path d="M7355 15322 c-38 -20 -75 -43 -83 -49 -7 -7 -21 -13 -30 -13 -12 -1
-10 -5 8 -15 l25 -14 -35 -1 c-25 0 -41 -8 -58 -27 -13 -16 -21 -23 -18 -16 4
8 -2 11 -20 9 -15 -2 -30 -12 -38 -27 -8 -17 -20 -24 -39 -24 -15 1 -27 -3
-27 -7 0 -20 -34 -45 -54 -40 -11 3 -18 2 -15 -2 9 -10 -66 -86 -85 -86 -9 0
-16 -3 -16 -7 0 -13 -47 -63 -53 -57 -3 3 -19 3 -36 -1 -22 -5 -28 -11 -24
-22 5 -13 3 -14 -17 -3 -20 11 -22 10 -17 -3 4 -11 2 -14 -8 -11 -8 3 -16 -3
-20 -16 -4 -13 -12 -19 -21 -16 -9 3 -12 1 -9 -4 6 -9 -14 -31 -78 -86 -11
-10 -31 -18 -43 -19 -12 0 -32 -9 -43 -19 -21 -19 -21 -19 -21 3 0 20 -2 20
-30 -9 -16 -16 -34 -30 -40 -30 -5 0 -9 -3 -9 -7 4 -23 -3 -35 -16 -29 -10 4
-19 -2 -24 -17 -5 -12 -7 -24 -6 -27 2 -3 -6 -7 -17 -7 -12 -1 -32 -13 -45
-28 -22 -23 -35 -29 -55 -26 -5 0 -8 -7 -9 -17 0 -9 -3 -12 -5 -6 -6 13 -64
-4 -64 -18 0 -4 -6 -8 -14 -8 -15 0 -86 -64 -86 -78 0 -15 -38 -44 -49 -37 -6
3 -16 -6 -22 -22 -6 -16 -13 -22 -16 -15 -7 19 -23 14 -23 -8 0 -20 -8 -24
-47 -20 -13 1 -33 -9 -45 -22 -13 -13 -30 -24 -38 -26 -8 -2 -19 -10 -23 -18
-4 -8 -15 -14 -22 -14 -8 0 -15 -5 -15 -10 0 -12 -61 -69 -74 -70 -5 0 -20
-12 -34 -27 -18 -19 -27 -24 -30 -15 -3 10 -12 7 -31 -11 -14 -13 -39 -27 -55
-31 -16 -4 -42 -23 -59 -42 -17 -18 -37 -34 -44 -34 -7 0 -13 -7 -13 -16 0
-11 -6 -15 -18 -12 -20 6 -42 -20 -42 -47 0 -8 -6 -14 -12 -13 -7 2 -12 -2
-11 -9 2 -7 -4 -10 -12 -7 -8 4 -15 1 -15 -6 0 -7 -7 -10 -15 -6 -8 3 -14 0
-12 -7 1 -7 -6 -12 -15 -12 -10 0 -27 -8 -38 -18 -12 -10 -26 -15 -31 -11 -7
4 -9 -3 -7 -17 2 -18 -2 -24 -16 -24 -11 0 -22 -7 -24 -15 -7 -21 -21 -28 -53
-26 -15 1 -26 -1 -23 -5 2 -4 -3 -9 -11 -13 -8 -3 -15 -13 -15 -23 0 -13 -3
-14 -8 -6 -6 10 -16 8 -42 -6 -19 -11 -34 -24 -33 -30 2 -6 -4 -8 -12 -5 -8 4
-15 1 -15 -5 0 -6 -6 -11 -13 -11 -7 0 -17 -10 -22 -22 -6 -13 -14 -23 -20
-24 -21 -2 -45 -17 -39 -25 3 -5 -1 -9 -8 -9 -7 0 -19 -9 -26 -20 -7 -11 -19
-20 -27 -20 -8 0 -15 -4 -15 -10 0 -5 -7 -10 -15 -10 -8 0 -15 -9 -15 -20 0
-17 -5 -19 -27 -16 -19 4 -33 -2 -51 -19 -13 -14 -29 -22 -35 -18 -6 4 -8 0
-4 -10 3 -10 2 -17 -3 -17 -6 0 -10 5 -10 11 0 5 -5 7 -10 4 -6 -4 -8 -11 -5
-16 4 -5 0 -9 -8 -9 -8 0 -22 -9 -31 -19 -11 -12 -25 -17 -34 -14 -11 5 -14 2
-9 -10 4 -10 2 -14 -7 -11 -7 3 -23 -6 -37 -18 -36 -35 -96 -78 -108 -78 -6 0
-10 -3 -10 -7 4 -25 -3 -35 -20 -30 -13 3 -29 -5 -47 -24 -15 -15 -31 -26 -36
-23 -4 3 -8 0 -8 -5 0 -6 -6 -11 -12 -11 -7 0 -24 -16 -38 -34 -19 -26 -29
-32 -42 -25 -13 7 -15 5 -11 -10 4 -15 -5 -22 -47 -36 -41 -14 -51 -21 -47
-35 3 -12 0 -17 -8 -13 -8 2 -37 -11 -65 -30 -29 -20 -58 -33 -64 -31 -7 3
-18 -6 -25 -20 -7 -13 -24 -29 -37 -35 -15 -6 -24 -19 -25 -33 0 -22 -1 -22
-9 -3 -5 11 -9 15 -9 10 -1 -6 -11 -15 -23 -20 -13 -6 -22 -13 -20 -17 3 -10
-30 -44 -43 -44 -13 -1 -118 -65 -126 -77 -4 -5 -12 -7 -18 -3 -7 5 -8 1 -4
-10 4 -12 3 -15 -5 -10 -7 4 -12 2 -12 -3 0 -6 -6 -11 -13 -11 -7 0 -31 -9
-53 -19 -21 -11 -43 -17 -48 -14 -5 4 -6 1 -2 -5 4 -7 1 -12 -7 -12 -8 0 -31
-11 -51 -25 -21 -14 -40 -23 -44 -21 -11 7 -45 -22 -38 -33 3 -5 -11 -15 -31
-22 -21 -6 -49 -19 -62 -28 -18 -11 -45 -15 -93 -14 -37 1 -68 -1 -68 -5 0 -4
-8 -8 -17 -9 -10 0 -71 -4 -136 -8 -64 -4 -125 -4 -135 0 -35 15 -325 16 -400
2 -56 -11 -96 -12 -170 -5 -53 6 -187 7 -297 3 -110 -3 -207 -6 -215 -6 -40 1
-217 10 -225 11 -21 5 -36 0 -30 -9 3 -6 -21 -13 -55 -17 -33 -4 -60 -10 -60
-14 0 -4 -13 -10 -30 -13 -16 -4 -30 -13 -30 -20 0 -8 -11 -26 -25 -41 -33
-36 -40 -84 -25 -183 9 -57 10 -90 4 -102 -16 -27 -17 -378 -1 -431 8 -25 11
-55 7 -65 -4 -11 -3 -28 2 -37 7 -14 5 -18 -8 -18 -12 0 -14 -4 -7 -12 11 -15
10 -58 -1 -76 -4 -7 -4 -16 -1 -22 3 -5 3 -16 -2 -22 -9 -16 -11 -28 -18 -98
-6 -64 -13 -90 -25 -90 -5 0 -7 -6 -4 -14 3 -7 -2 -20 -10 -29 -9 -9 -16 -20
-16 -26 0 -6 -4 -12 -10 -12 -5 -1 -14 -2 -19 -3 -5 0 -13 -5 -18 -10 -5 -5
-2 -6 7 -2 8 4 4 -1 -10 -12 -13 -11 -27 -19 -31 -16 -10 6 -20 -26 -12 -39 4
-7 -1 -6 -10 2 -15 12 -19 10 -32 -20 -8 -20 -14 -27 -15 -16 0 10 -5 15 -11
12 -6 -4 -8 -13 -5 -21 3 -8 1 -14 -4 -14 -6 0 -10 7 -10 15 0 19 -7 19 -26 1
-18 -18 -18 -27 0 -20 22 9 29 -14 7 -25 -14 -8 -21 -8 -24 2 -4 9 -6 9 -6 -1
-1 -7 -6 -10 -13 -6 -6 4 -8 3 -5 -3 3 -5 -2 -16 -11 -24 -27 -22 -77 -53 -82
-50 -2 1 -7 -5 -10 -15 -4 -10 -16 -18 -28 -19 -11 -1 -19 2 -16 7 3 4 2 8 -3
8 -16 0 -64 -60 -57 -71 4 -7 1 -10 -7 -7 -8 3 -27 -2 -44 -10 -18 -9 -25 -17
-17 -20 7 -2 22 4 33 14 10 9 19 13 19 7 0 -5 -21 -24 -46 -42 -29 -20 -44
-26 -41 -17 4 9 2 16 -3 16 -6 0 -10 -10 -11 -22 0 -13 -3 -17 -6 -11 -3 8
-14 2 -30 -17 -17 -21 -34 -30 -54 -30 -16 0 -29 -4 -29 -10 0 -5 -6 -10 -13
-10 -8 0 -22 -9 -33 -21 -10 -11 -26 -18 -36 -16 -10 3 -18 0 -18 -7 0 -6 -9
-20 -21 -29 -11 -10 -18 -21 -15 -24 3 -3 12 0 21 7 10 8 15 9 15 2 0 -15 -38
-35 -50 -27 -6 4 -14 -4 -19 -17 -6 -13 -10 -17 -11 -8 0 12 -3 12 -14 -2 -7
-10 -16 -15 -19 -11 -4 3 -7 1 -7 -6 0 -6 -15 -18 -32 -26 -18 -8 -27 -14 -20
-15 6 0 12 -4 12 -10 0 -14 -27 -13 -32 1 -3 9 -10 9 -26 0 -13 -7 -20 -16
-17 -21 3 -6 0 -7 -8 -4 -20 7 -33 -16 -16 -28 10 -6 7 -8 -11 -6 -16 2 -24
-2 -22 -10 1 -7 -5 -15 -13 -18 -8 -4 -15 -17 -15 -31 l0 -25 38 23 c20 12
144 99 275 193 131 94 255 182 275 196 103 70 392 275 505 358 71 51 131 92
133 89 3 -3 -1 -11 -8 -18 -7 -8 -19 -26 -25 -41 -7 -16 -17 -28 -22 -28 -6 0
-15 -9 -21 -20 -9 -16 -8 -18 5 -14 12 5 15 0 13 -26 -1 -17 -6 -34 -10 -36
-4 -3 -8 -10 -8 -15 0 -5 15 -2 32 6 l33 16 -26 -23 c-29 -26 -165 -126 -289
-212 -47 -33 -116 -81 -155 -108 -93 -65 -273 -188 -530 -362 l-210 -142 -3
-130 c-1 -71 2 -135 6 -141 6 -10 72 -13 263 -14 316 0 301 -1 294 11 -3 6 -2
10 4 10 5 0 13 -5 17 -11 4 -8 36 -10 100 -6 55 4 96 2 99 -3 9 -15 25 -12 19
3 -6 17 22 18 54 1 28 -14 79 -3 74 16 -2 10 3 9 19 -2 56 -37 43 -38 -338
-38 -202 0 -423 0 -490 0 l-123 0 0 -101 0 -102 88 7 c125 8 1060 11 1068 3 4
-4 -5 -7 -19 -7 -21 0 -28 -6 -33 -27 -10 -39 -11 -105 -1 -125 5 -12 3 -18
-5 -18 -9 -1 -7 -5 4 -14 14 -10 15 -16 5 -37 -17 -32 -19 -70 -5 -86 8 -10 6
-17 -8 -28 -15 -11 -16 -14 -4 -15 12 0 15 -13 15 -57 0 -32 -4 -61 -10 -65
-6 -5 -6 -8 2 -8 8 0 9 -9 4 -27 -4 -16 -6 -34 -3 -42 2 -7 -2 -17 -9 -22 -10
-6 -11 -9 -1 -9 6 0 12 -9 12 -20 0 -11 -7 -20 -15 -20 -9 0 -12 -6 -8 -17 5
-12 2 -15 -10 -10 -8 3 -21 -1 -27 -9 -16 -18 -30 -18 -30 1 0 10 -10 15 -28
15 -22 0 -32 7 -41 27 -10 21 -14 24 -21 13 -7 -11 -12 -8 -21 14 -8 16 -32
37 -60 52 -26 13 -50 28 -54 34 -3 5 -14 10 -25 10 -10 0 -21 7 -24 16 -4 12
-13 14 -32 10 -22 -6 -25 -4 -19 13 4 14 0 23 -14 30 -11 6 -23 21 -26 32 -5
15 -10 18 -15 9 -5 -8 -15 -4 -35 14 -15 14 -33 26 -40 26 -6 0 -18 11 -25 25
-7 14 -22 25 -32 25 -10 0 -21 7 -24 15 -4 8 -12 15 -20 15 -8 0 -19 9 -26 20
-7 11 -22 20 -34 20 -12 0 -24 6 -27 14 -3 8 -21 22 -40 31 -24 11 -33 21 -30
33 3 13 -8 24 -39 39 -24 12 -35 22 -25 22 9 1 17 5 17 10 0 11 -33 9 -41 -2
-8 -11 -80 33 -73 44 3 5 -26 9 -66 9 l-71 0 3 -107 3 -107 155 -108 c85 -59
207 -143 270 -185 63 -43 117 -81 120 -84 3 -3 68 -49 145 -101 77 -52 183
-125 235 -162 52 -37 167 -116 255 -177 88 -60 190 -131 226 -157 121 -86 583
-412 684 -482 100 -69 337 -237 633 -447 188 -134 261 -186 537 -379 428 -300
748 -525 1030 -725 160 -113 376 -266 480 -339 239 -169 482 -340 515 -363 14
-10 61 -44 105 -75 44 -32 116 -83 160 -113 257 -179 455 -322 455 -330 0 -5
-9 -9 -20 -9 -11 0 -20 -4 -20 -9 0 -5 -12 -16 -26 -26 -23 -15 -28 -15 -49
-1 -25 17 -41 10 -24 -11 21 -24 -9 -15 -53 17 -22 17 -47 30 -55 30 -7 0 -13
5 -13 10 0 6 -5 10 -12 10 -6 0 -3 -9 7 -20 11 -12 13 -20 6 -20 -7 0 -9 -5
-6 -10 4 -6 11 -7 17 -4 7 4 8 2 4 -4 -4 -7 -13 -12 -20 -12 -7 0 -23 -11 -36
-25 -13 -14 -29 -25 -37 -25 -7 0 -13 -4 -13 -10 0 -5 -7 -10 -15 -10 -8 0
-15 -7 -15 -16 0 -10 -6 -14 -15 -10 -9 3 -19 -3 -25 -15 -6 -11 -15 -17 -19
-14 -10 6 -67 -45 -63 -57 1 -4 -2 -8 -7 -8 -5 0 -29 -19 -53 -42 -24 -23 -47
-43 -53 -43 -26 -3 -43 -18 -38 -32 4 -10 2 -14 -5 -9 -6 3 -14 1 -17 -5 -4
-5 -14 -8 -22 -5 -10 4 -13 2 -10 -8 8 -20 -15 -36 -41 -29 -13 3 -22 1 -20
-4 4 -12 -79 -83 -95 -83 -7 0 -29 -16 -49 -35 -20 -19 -41 -35 -46 -35 -6 0
-12 -3 -14 -7 -1 -5 -25 -24 -53 -43 -27 -19 -63 -47 -80 -62 -16 -15 -33 -28
-37 -28 -18 0 -134 -88 -130 -98 2 -7 -4 -12 -13 -12 -9 0 -28 -12 -42 -26
-14 -14 -40 -35 -57 -45 -17 -10 -27 -19 -22 -19 5 0 -10 -13 -32 -30 -23 -16
-46 -30 -51 -30 -5 0 -26 -16 -47 -35 -22 -19 -45 -35 -51 -35 -17 0 -123 -68
-123 -79 0 -4 -12 -13 -26 -20 -15 -6 -24 -14 -21 -18 6 -6 -17 -33 -28 -33
-4 0 -13 -7 -22 -15 -8 -8 -18 -13 -23 -10 -5 3 -23 -9 -42 -25 -18 -17 -42
-39 -53 -49 -11 -10 -34 -24 -51 -31 -18 -8 -30 -19 -27 -26 3 -8 -2 -11 -16
-7 -14 3 -23 0 -27 -11 -4 -9 -26 -28 -50 -42 -24 -14 -41 -31 -38 -36 5 -7
-2 -9 -19 -6 -14 3 -25 2 -24 -2 3 -8 -53 -60 -66 -60 -5 0 -6 -8 -2 -17 5
-15 4 -16 -6 -5 -15 14 -33 16 -24 2 3 -5 -1 -10 -9 -10 -8 0 -23 -11 -34 -25
-11 -14 -24 -25 -29 -25 -5 0 -22 -14 -38 -30 -16 -17 -35 -28 -42 -25 -8 2
-18 -6 -23 -20 -6 -15 -27 -33 -54 -46 -24 -11 -47 -27 -50 -35 -3 -8 -15 -14
-26 -14 -12 0 -24 -9 -29 -23 -10 -27 -41 -55 -41 -38 0 6 5 11 10 11 6 0 10
5 10 10 0 18 -18 11 -25 -9 -3 -11 -12 -18 -19 -15 -7 3 -30 -14 -52 -38 -21
-24 -46 -43 -54 -43 -8 0 -14 -7 -14 -16 1 -11 -5 -15 -17 -12 -11 3 -19 0
-19 -7 0 -19 -29 -42 -45 -36 -9 3 -15 0 -15 -9 0 -7 -18 -24 -40 -36 -22 -13
-40 -29 -40 -36 0 -11 -23 -17 -66 -16 -6 0 -9 -8 -7 -17 3 -12 -10 -29 -43
-54 -26 -20 -53 -36 -61 -36 -8 0 -25 -11 -39 -25 -14 -14 -30 -22 -36 -19 -7
5 -9 1 -5 -9 4 -11 1 -17 -8 -17 -7 0 -27 -11 -43 -25 -17 -14 -33 -25 -37
-25 -4 0 -17 -10 -29 -23 -21 -23 -54 -42 -68 -39 -5 1 -8 -5 -8 -13 0 -8 -7
-15 -15 -15 -8 0 -15 -9 -15 -21 0 -11 -5 -17 -10 -14 -12 7 -76 -44 -72 -57
1 -5 -7 -7 -18 -3 -11 3 -20 3 -20 -2 0 -5 -17 -17 -37 -28 -21 -11 -55 -36
-75 -57 -43 -44 -48 -46 -40 -16 3 14 2 19 -6 14 -7 -4 -12 -16 -12 -26 0 -10
-5 -22 -10 -25 -5 -3 -10 -1 -10 4 0 6 -7 11 -16 11 -11 0 -15 -6 -11 -20 4
-16 0 -20 -22 -20 -19 0 -34 -10 -50 -31 -12 -16 -34 -34 -48 -40 -16 -6 -23
-14 -19 -24 6 -18 -5 -20 -21 -4 -8 8 -13 8 -17 0 -4 -6 -2 -11 3 -11 17 0 13
-20 -5 -27 -9 -3 -28 -17 -42 -30 -15 -13 -35 -32 -44 -40 -14 -13 -18 -13
-18 -3 0 9 -8 6 -23 -8 -13 -12 -31 -22 -40 -22 -10 0 -22 -11 -27 -24 -8 -23
-42 -42 -66 -38 -7 1 -14 -5 -18 -13 -3 -9 -2 -13 4 -10 6 3 10 2 10 -4 0 -6
-18 -15 -40 -21 -21 -6 -42 -15 -46 -21 -4 -7 1 -9 15 -4 12 4 21 2 21 -4 0
-6 -3 -12 -7 -12 -20 -4 -59 -10 -70 -11 -7 -1 -10 -4 -8 -7 2 -4 -17 -15 -41
-25 -24 -10 -41 -22 -38 -28 7 -11 -27 -39 -38 -32 -5 3 -8 -4 -8 -15 0 -12
-5 -19 -12 -16 -16 5 -42 -14 -51 -37 -4 -11 -12 -15 -22 -12 -8 3 -15 1 -15
-5 0 -6 -6 -8 -14 -5 -8 3 -19 -3 -25 -15 -17 -31 -60 -71 -76 -71 -8 0 -15
-4 -15 -9 0 -5 -9 -11 -21 -14 -12 -3 -18 -10 -15 -16 10 -16 -33 -24 -51 -9
-15 12 -15 11 -4 -10 10 -18 9 -22 -4 -22 -8 0 -15 -4 -15 -10 0 -5 -7 -7 -15
-4 -11 5 -15 -1 -16 -22 0 -16 -3 -23 -6 -16 -6 15 -80 -34 -88 -59 -6 -19
-45 -33 -45 -16 0 6 -7 2 -15 -9 -11 -14 -14 -15 -15 -4 0 8 -8 0 -16 -17 -18
-36 -39 -45 -29 -13 4 11 2 20 -4 20 -10 0 -15 -16 -14 -47 1 -7 -15 -18 -33
-25 -19 -7 -34 -18 -34 -25 0 -7 -3 -12 -8 -12 -20 3 -32 -2 -32 -16 0 -8 -7
-15 -16 -15 -19 0 -40 -20 -47 -46 -4 -16 -5 -16 -6 -1 -1 21 -21 23 -21 2 0
-13 -12 -19 -32 -16 -4 0 -5 -6 -2 -14 5 -11 2 -13 -10 -9 -9 3 -16 1 -16 -5
0 -6 -11 -11 -25 -11 -14 0 -25 -4 -25 -10 0 -5 5 -10 11 -10 5 0 7 -5 4 -11
-4 -6 -13 -8 -21 -5 -7 3 -27 -8 -45 -25 -17 -16 -40 -29 -51 -29 -14 0 -18
-5 -14 -16 4 -12 2 -15 -9 -10 -8 3 -15 1 -15 -4 0 -6 -7 -10 -16 -10 -10 0
-14 -6 -10 -15 4 -11 -1 -15 -17 -15 -18 0 -19 -2 -7 -10 16 -10 8 -13 -28
-10 -26 2 -55 -18 -46 -32 3 -5 -3 -12 -15 -15 -11 -3 -30 -21 -42 -39 -11
-19 -25 -34 -31 -34 -6 0 -5 6 2 15 7 9 10 18 7 21 -9 9 -27 -5 -27 -22 0 -8
-4 -14 -10 -14 -5 0 -10 -8 -11 -17 0 -11 -3 -13 -6 -5 -2 6 -9 12 -15 12 -6
0 -8 -7 -4 -15 9 -24 -10 -17 -23 8 l-11 22 6 -23 c6 -24 -10 -52 -29 -52 -6
0 -2 7 9 15 25 19 11 19 -28 -1 -24 -13 -28 -18 -17 -26 10 -7 6 -8 -14 -3
-20 4 -27 2 -22 -5 4 -6 1 -11 -6 -10 -8 1 -24 -1 -37 -5 -18 -6 -20 -10 -11
-21 8 -10 8 -14 0 -14 -7 0 -11 -31 -11 -95 l0 -95 58 37 c60 39 466 328 587
418 39 28 110 80 159 116 48 35 161 118 251 184 89 66 233 172 320 235 86 63
200 148 253 187 54 40 126 94 162 120 36 26 124 90 195 143 72 53 193 142 270
197 77 56 199 144 270 198 783 582 1030 764 1267 937 73 54 201 147 283 208
176 129 617 453 715 525 169 123 908 670 1041 770 15 11 64 48 110 83 46 35
141 104 210 155 70 51 236 173 370 273 638 473 741 547 821 592 244 139 546
112 783 -71 28 -21 84 -64 125 -94 41 -31 134 -100 205 -153 72 -53 189 -139
260 -190 256 -185 614 -448 830 -611 121 -91 312 -232 425 -314 113 -82 257
-187 321 -234 64 -47 169 -124 233 -171 121 -88 304 -223 321 -238 6 -4 78
-57 160 -117 83 -59 220 -160 305 -224 177 -131 266 -197 544 -401 109 -80
287 -210 395 -290 108 -80 254 -188 326 -240 71 -52 202 -149 291 -215 89 -66
263 -194 385 -285 123 -91 305 -226 405 -300 100 -74 266 -196 369 -270 168
-121 315 -228 452 -330 43 -32 225 -166 533 -392 69 -51 175 -128 235 -171
l110 -79 3 98 c3 111 0 124 -28 124 -22 0 -27 15 -7 23 7 3 4 6 -7 6 -22 1
-96 41 -96 53 0 4 -5 8 -11 8 -6 0 -8 -7 -5 -17 6 -15 5 -15 -13 1 -11 10 -18
23 -15 27 3 5 -2 6 -10 3 -10 -4 -16 -1 -16 8 0 7 -16 22 -35 32 -19 11 -35
25 -35 33 0 9 -8 13 -22 11 -17 -2 -22 2 -20 13 1 11 -8 19 -30 24 -18 4 -37
7 -41 6 -5 -1 -6 2 -3 7 4 7 -27 42 -38 42 -2 0 -18 13 -35 29 -17 16 -52 39
-76 51 -25 12 -47 26 -51 31 -3 5 -14 9 -24 9 -13 0 -17 5 -14 15 4 9 0 16 -7
17 -8 0 -19 2 -24 2 -18 2 -95 69 -89 77 3 5 -2 9 -11 9 -9 0 -13 5 -10 10 6
9 -8 14 -28 11 -5 -1 -11 8 -14 19 -3 11 -14 20 -24 20 -10 0 -25 10 -33 22
-9 12 -16 19 -16 14 0 -5 -8 -2 -17 6 -10 9 -28 19 -41 23 -12 3 -35 17 -50
31 -44 39 -47 41 -59 37 -6 -2 -14 5 -18 16 -3 12 -11 21 -16 21 -10 0 -51 33
-85 67 -12 13 -29 23 -38 23 -10 0 -14 5 -10 11 4 7 1 10 -6 7 -8 -2 -22 4
-32 14 -10 10 -25 18 -33 18 -8 0 -15 5 -15 10 0 6 -6 10 -13 10 -7 0 -18 9
-25 20 -7 11 -21 20 -31 20 -10 0 -21 7 -25 15 -3 8 -12 15 -21 15 -8 0 -15 4
-15 8 0 5 -11 15 -25 22 -14 7 -25 19 -25 27 0 7 -7 13 -15 13 -8 0 -15 7 -15
15 0 9 -9 15 -25 15 -14 0 -25 4 -25 9 0 5 -13 14 -30 20 -16 5 -30 15 -30 20
0 6 -4 10 -8 8 -5 -1 -24 10 -43 25 -19 15 -58 46 -86 68 -29 22 -53 45 -53
51 0 6 -7 8 -15 5 -11 -4 -15 0 -13 11 2 11 -4 18 -17 20 l-20 3 20 -9 c18 -8
18 -10 2 -10 -10 -1 -20 6 -23 14 -4 8 -12 15 -19 15 -7 0 -16 7 -19 16 -4 10
-13 14 -22 10 -9 -3 -24 4 -38 19 -13 14 -31 25 -40 25 -10 0 -14 5 -11 10 3
6 -2 13 -12 17 -10 4 -30 18 -44 32 -39 39 -80 71 -89 71 -5 0 -13 6 -17 14
-4 7 -22 21 -40 30 -47 24 -116 71 -137 95 -11 12 -24 21 -30 21 -6 0 -17 9
-24 20 -7 12 -23 20 -38 20 -21 0 -24 4 -19 20 3 11 2 20 -3 20 -6 0 -12 -5
-14 -12 -3 -7 -26 10 -55 39 -29 29 -63 55 -76 58 -25 7 -67 47 -67 64 0 5
-10 11 -23 15 -12 3 -32 14 -43 24 -11 11 -37 27 -57 37 -20 9 -48 32 -62 51
-22 28 -30 33 -41 23 -11 -9 -14 -8 -14 5 0 9 -18 27 -40 41 -22 14 -40 29
-40 33 0 4 -17 16 -37 27 -21 11 -41 24 -45 29 -3 5 -15 11 -25 12 -10 2 -31
18 -48 37 -16 18 -36 32 -43 29 -6 -2 -12 3 -12 12 0 9 -7 16 -15 16 -8 0 -15
4 -15 8 0 5 -12 14 -26 21 -17 7 -24 17 -20 26 4 11 -2 15 -18 15 -14 0 -26 4
-28 9 -2 6 -28 23 -58 39 -30 16 -54 34 -52 41 1 6 -16 18 -38 27 -22 9 -40
22 -40 30 0 8 -4 14 -10 14 -5 0 -10 -5 -10 -11 0 -5 -12 1 -27 15 -16 14 -56
49 -90 77 -35 28 -63 55 -63 60 0 5 -6 9 -14 9 -8 0 -31 15 -50 34 -20 18 -36
31 -36 28 0 -2 -7 1 -15 8 -8 6 -20 8 -26 4 -8 -4 -9 -3 -5 4 7 12 -28 54 -37
45 -7 -6 -64 26 -89 50 -10 9 -21 17 -26 17 -4 0 -23 13 -42 30 -64 54 -91 74
-120 87 -8 4 -22 14 -30 22 -30 31 -139 121 -147 121 -4 0 -22 13 -38 29 -17
15 -42 34 -55 41 -14 7 -41 26 -61 41 -20 16 -43 29 -50 29 -8 0 -40 23 -72
50 -32 28 -65 50 -73 50 -9 0 -12 5 -9 10 3 6 -2 13 -12 17 -10 4 -30 18 -44
32 -33 32 -56 51 -64 51 -5 0 -20 13 -89 72 -17 15 -35 28 -40 28 -5 0 -15 8
-22 18 -7 9 -17 17 -22 17 -13 0 -91 58 -92 68 0 4 -5 7 -11 7 -6 0 -30 16
-53 35 -24 19 -47 35 -51 35 -5 0 -15 7 -24 15 -37 35 -77 65 -88 65 -7 0 -13
6 -13 14 0 8 -9 18 -20 21 -11 4 -28 17 -36 31 -9 13 -20 24 -25 24 -5 0 -24
14 -42 31 -17 18 -48 38 -67 46 -19 9 -46 26 -59 39 -13 14 -35 27 -48 30 -12
4 -23 12 -23 20 0 8 -7 14 -15 14 -8 0 -24 10 -37 23 -13 13 -32 26 -43 31
-19 7 -17 9 15 36 19 16 40 30 45 30 6 0 16 9 22 20 10 15 2 13 -40 -12 -28
-17 -72 -42 -97 -56 -25 -13 -49 -28 -55 -33 -17 -16 -41 -9 -66 17 l-24 27
28 -5 c30 -6 35 3 12 22 -16 13 -21 35 -6 25 5 -3 12 -1 16 5 9 15 -12 12 -46
-6 -61 -31 -48 -7 18 35 92 58 477 323 728 501 17 12 64 45 105 74 41 29 152
106 245 172 94 66 285 201 425 299 264 185 654 460 915 645 147 104 637 449
910 640 39 27 152 107 252 177 101 70 285 200 410 288 126 87 299 209 385 270
87 60 206 144 264 185 59 41 160 112 223 158 64 45 172 121 241 169 69 47 176
123 239 167 63 45 225 156 360 247 l246 166 3 371 2 371 -85 58 c-47 32 -93
63 -102 68 -9 6 -53 36 -97 68 -96 68 -224 158 -248 172 -9 5 -36 24 -60 41
-23 16 -65 46 -93 65 -27 20 -79 55 -115 79 -36 24 -145 100 -243 169 l-179
125 6 34 c3 19 14 41 26 49 26 18 25 37 -2 56 -17 12 -19 16 -7 16 8 1 67 -36
130 -82 62 -46 161 -116 219 -155 58 -40 182 -126 275 -191 94 -66 229 -160
300 -210 72 -49 163 -113 203 -141 l72 -51 0 38 c0 35 -3 41 -35 53 -19 7 -32
17 -29 22 5 7 -18 13 -39 9 -5 -1 -6 3 -3 7 3 5 -4 18 -16 28 -15 14 -22 16
-25 7 -3 -7 -9 -13 -14 -13 -4 0 -5 8 -2 17 5 13 2 15 -11 10 -10 -4 -15 -3
-11 3 3 6 2 10 -2 10 -5 0 -17 16 -27 35 -10 19 -22 33 -26 32 -7 -2 -61 36
-86 61 -7 6 -20 12 -28 12 -15 0 -86 36 -96 49 -3 3 -14 13 -24 21 -18 14 -19
13 -13 -2 3 -10 2 -18 -3 -18 -16 0 -22 21 -10 35 10 12 7 17 -16 25 -15 6
-34 20 -41 30 -8 11 -20 20 -27 20 -8 0 -16 9 -19 20 -3 11 -13 20 -22 20 -9
0 -13 5 -9 11 4 8 0 8 -15 0 -11 -7 -21 -8 -21 -2 0 5 -11 12 -25 15 -15 4
-23 11 -19 17 4 8 -1 9 -16 4 -15 -5 -20 -4 -16 4 4 7 -1 11 -13 11 -12 0 -21
4 -21 10 0 5 -16 25 -35 45 -20 19 -40 35 -45 35 -6 0 -10 7 -10 16 0 8 -4 12
-10 9 -5 -3 -21 5 -34 19 -13 14 -27 26 -32 26 -5 0 -15 9 -22 20 -7 12 -16
18 -21 15 -5 -2 -14 1 -20 9 -7 8 -23 17 -36 20 -14 4 -25 13 -25 22 0 8 -4
13 -9 10 -5 -3 -14 8 -21 24 -7 17 -19 30 -27 30 -9 0 -13 6 -9 15 3 8 1 15
-4 15 -5 0 -7 7 -4 15 4 8 1 22 -5 29 -7 8 -8 17 -3 20 5 3 3 33 -4 68 -8 35
-14 91 -14 126 0 34 -4 62 -10 62 -14 0 -13 27 1 32 7 2 12 45 13 118 0 63 6
119 11 123 6 6 6 10 -2 14 -9 3 -10 10 -3 22 5 10 7 21 3 24 -5 6 -17 215 -14
267 7 149 5 183 -9 198 -8 9 -15 24 -15 32 0 8 -5 14 -12 13 -6 -2 -15 6 -18
17 -4 11 -10 18 -15 15 -5 -3 -11 3 -14 12 -5 15 -16 18 -61 16 -30 0 -55 3
-55 7 0 12 -61 41 -72 34 -5 -3 -69 -5 -144 -5 -108 1 -138 -2 -150 -14 -19
-18 -65 -20 -61 -2 4 20 -91 22 -113 2 -10 -9 -29 -15 -42 -12 -21 4 -20 4 5
6 15 0 27 6 27 11 0 7 -41 10 -119 8 -65 -2 -117 -6 -114 -10 2 -5 -1 -8 -6
-8 -6 0 -11 5 -11 10 0 6 -7 10 -15 10 -8 0 -15 -6 -15 -12 0 -9 -3 -10 -8 -2
-6 10 -67 17 -132 16 -14 0 -92 -1 -175 -1 -105 -1 -151 -5 -157 -14 -6 -9
-11 -8 -19 3 -8 11 -12 12 -15 3 -4 -9 -20 -11 -52 -7 -31 4 -42 2 -33 -4 20
-15 2 -18 -64 -12 l-60 6 43 8 c29 6 40 12 33 19 -7 7 -21 4 -44 -7 -39 -18
-64 -21 -69 -7 -2 5 -32 11 -68 14 -125 11 -164 18 -180 31 -8 8 -25 17 -37
20 -15 5 -20 12 -16 23 4 10 2 14 -5 9 -12 -7 -100 38 -118 60 -6 8 -24 15
-41 17 -16 2 -45 15 -65 30 -19 15 -44 27 -55 27 -12 0 -23 6 -26 14 -3 8 -18
20 -34 28 -15 8 -27 21 -26 29 2 9 -6 15 -19 16 -13 1 -24 7 -26 13 -2 5 -11
10 -21 10 -16 0 -35 18 -57 56 -7 11 -22 19 -37 19 -14 -1 -23 3 -21 7 3 4 1
8 -4 8 -5 0 -24 13 -42 29 -19 16 -40 27 -47 24 -9 -4 -11 0 -7 12 5 12 2 16
-12 13 -11 -2 -19 3 -19 11 0 8 -13 19 -29 24 -16 5 -39 20 -51 33 -12 13 -30
24 -39 24 -9 0 -16 7 -16 15 0 14 -22 20 -60 17 -25 -2 -77 18 -91 34 -11 13
-9 14 17 8 16 -3 34 -7 39 -8 6 0 13 -5 16 -10 4 -5 12 -7 19 -4 7 2 -5 13
-26 23 -22 11 -65 46 -97 77 -32 32 -63 58 -70 58 -7 0 -27 13 -44 29 -24 21
-34 26 -44 17 -9 -8 -10 -8 -5 2 5 8 0 12 -13 12 -12 0 -20 6 -18 13 1 6 -5
12 -13 12 -8 0 -28 12 -45 28 -33 30 -58 32 -63 4 -3 -13 2 -17 14 -15 9 2 19
-2 21 -8 8 -22 -34 -8 -80 26 -49 37 -57 50 -32 50 24 0 17 25 -10 40 -14 7
-25 17 -25 22 0 4 -9 8 -21 8 -11 0 -18 4 -15 9 3 4 -6 13 -19 19 -14 7 -25
16 -25 21 0 5 -9 7 -20 4 -13 -3 -20 0 -20 8 0 8 -10 19 -22 24 -13 6 -22 16
-21 23 2 7 -4 12 -12 12 -9 0 -18 7 -21 15 -4 8 -10 12 -16 9 -5 -3 -17 4 -27
15 -10 12 -26 21 -35 21 -10 0 -15 4 -11 10 8 13 -68 62 -99 64 -13 0 -22 4
-20 7 7 11 -25 31 -37 23 -7 -4 -10 -2 -7 7 4 13 -20 49 -34 49 -4 0 -5 -8 -1
-17 3 -10 -9 -2 -28 17 -38 38 -64 57 -91 66 -10 4 -18 10 -18 15 0 13 -76 59
-97 59 -14 0 -15 2 -4 9 11 7 9 11 -10 21 -25 14 -40 25 -73 55 -12 11 -35 27
-52 35 -49 25 -138 84 -156 104 -10 11 -24 16 -34 12 -12 -4 -15 -2 -10 9 7
18 -5 20 -23 3 -10 -11 -11 -10 -6 4 7 18 -42 69 -97 100 -17 9 -40 26 -53 38
-13 13 -28 18 -39 14 -11 -4 -22 0 -31 12 -14 18 -14 18 -15 -1 -1 -18 -2 -17
-11 4 -12 29 -40 52 -56 46 -7 -2 -13 0 -13 6 0 12 -83 93 -101 97 -7 2 -23
12 -37 22 -13 11 -28 17 -33 14 -5 -3 -9 2 -9 11 0 12 -5 15 -16 11 -11 -4
-18 1 -21 14 -3 11 -9 17 -14 14 -5 -3 -9 -2 -9 3 0 4 -12 14 -27 20 -16 7
-46 28 -68 48 -22 19 -46 35 -52 35 -7 0 -13 4 -13 10 0 11 -145 110 -161 110
-5 0 -15 4 -22 10 -59 48 -81 65 -84 63 -2 -2 -4 0 -5 5 -1 4 -15 18 -31 32
-17 14 -38 33 -48 42 -13 12 -20 14 -25 6 -5 -7 -10 -4 -15 10 -6 15 -13 20
-25 15 -14 -5 -16 -3 -11 11 5 12 3 16 -5 14 -7 -3 -19 1 -26 8 -7 7 -19 11
-27 8 -8 -4 -18 1 -21 10 -3 9 -14 16 -23 16 -10 0 -32 13 -51 30 -18 16 -36
28 -38 25 -3 -2 -13 0 -24 6 -14 7 -17 16 -12 32 5 18 4 20 -7 10 -10 -10 -15
-8 -24 10 -6 12 -16 22 -22 22 -6 0 -14 3 -18 7 -4 4 -14 4 -22 1 -10 -4 -14
0 -11 13 2 15 -4 20 -29 22 -18 2 -33 7 -33 12 0 4 -16 11 -35 14 -19 4 -35
13 -35 20 0 8 -9 16 -19 19 -10 2 -137 5 -282 5 l-264 1 -70 -37z m615 8 c0
-5 -5 -10 -11 -10 -5 0 -7 5 -4 10 3 6 8 10 11 10 2 0 4 -4 4 -10z m-192 -27
c-10 -2 -28 -2 -40 0 -13 2 -5 4 17 4 22 1 32 -1 23 -4z m158 -28 c36 -19 10
-19 -31 0 -17 8 -23 14 -14 14 9 1 30 -6 45 -14z m-53 -25 c111 -28 301 -127
470 -244 80 -56 227 -157 326 -226 100 -69 256 -177 346 -240 284 -198 315
-220 540 -375 452 -311 520 -359 565 -391 25 -17 108 -76 185 -129 77 -53 178
-123 225 -156 47 -33 110 -77 140 -98 30 -21 150 -103 265 -182 116 -80 262
-181 325 -225 63 -45 207 -143 320 -219 113 -76 228 -154 255 -174 125 -89
236 -173 232 -177 -2 -2 -23 5 -46 17 -44 21 -88 31 -130 30 -13 -1 -30 4 -37
10 -9 7 -18 8 -26 2 -30 -23 -77 -13 -135 27 -32 22 -62 43 -68 47 -55 44
-215 153 -223 153 -6 0 -13 6 -15 13 -3 7 -6 8 -6 1 -1 -6 18 -24 41 -40 44
-30 74 -53 115 -91 24 -21 24 -21 3 -28 -11 -4 -26 -2 -33 3 -7 5 -34 7 -62 3
-27 -3 -78 -6 -112 -6 -35 0 -63 -4 -63 -8 0 -5 -5 -5 -12 -1 -18 11 -557 11
-550 0 3 -5 -2 -7 -11 -3 -10 4 -29 1 -43 -5 -22 -10 -28 -9 -39 5 -7 9 -15
17 -18 17 -3 0 -33 16 -66 35 -32 19 -62 35 -66 35 -3 0 29 -27 72 -60 101
-78 150 -120 137 -120 -5 0 -20 8 -34 17 -16 12 -48 17 -107 19 -46 1 -97 6
-114 9 -17 4 -81 7 -142 6 -446 -1 -590 0 -598 5 -5 3 -9 2 -9 -3 0 -7 -83 -7
-530 -3 -47 0 -229 1 -405 1 -176 1 -338 2 -360 2 -22 0 -130 0 -240 -1 -110
-1 -220 -1 -245 -1 -220 -1 -295 1 -302 5 -4 3 -11 -2 -14 -11 -6 -14 -8 -14
-21 2 -12 16 -15 16 -25 2 -9 -13 -20 -14 -67 -7 -31 5 -141 8 -246 7 -104 -1
-201 -1 -215 -1 -82 2 -153 1 -249 -3 -59 -3 -128 -2 -152 3 -24 4 -70 5 -102
2 -32 -3 -62 -1 -67 4 -6 6 -15 4 -25 -4 -12 -10 -15 -10 -15 4 0 10 -5 14
-10 11 -18 -11 -90 -15 -272 -16 -109 -1 -180 -5 -184 -11 -4 -7 -9 -7 -13 0
-7 11 -386 20 -397 10 -3 -3 -26 1 -51 8 -33 10 -50 11 -59 3 -7 -6 -42 -9
-77 -8 -35 1 -69 -1 -75 -5 -6 -4 -24 1 -39 11 -15 10 -24 12 -19 5 6 -10 -2
-11 -36 -5 -24 4 -56 7 -73 6 -115 -6 -211 -10 -280 -12 -54 -2 -73 -5 -60
-11 15 -6 11 -8 -18 -7 l-38 2 40 38 c42 38 39 47 -7 23 -16 -8 -45 -12 -72
-10 -25 3 -240 6 -477 7 -238 1 -433 3 -433 5 0 1 21 16 47 32 26 17 41 30 34
30 -7 0 -63 -33 -124 -74 -97 -63 -187 -116 -200 -116 -2 0 -4 7 -4 15 0 8 4
12 8 9 4 -2 10 0 14 6 4 6 11 8 16 5 5 -4 9 -1 9 5 0 11 -41 5 -75 -13 -20
-10 -20 -10 -1 12 11 11 14 21 9 21 -6 0 -16 -6 -22 -14 -7 -8 -28 -14 -47
-13 -19 1 -38 -4 -42 -10 -10 -14 -48 -33 -68 -33 -9 0 19 26 64 58 45 31 152
109 238 172 86 63 203 146 259 185 56 38 202 140 324 225 122 85 230 160 239
165 9 6 130 89 267 185 137 96 296 207 352 245 56 39 153 106 215 151 62 44
163 115 223 156 61 41 243 168 405 281 289 203 365 255 604 420 65 45 162 112
215 149 268 187 522 354 576 379 78 35 215 77 290 89 83 12 215 4 308 -20z
m187 -36 c0 -2 -9 0 -20 6 -11 6 -20 13 -20 16 0 2 9 0 20 -6 11 -6 20 -13 20
-16z m-855 -34 c-3 -5 -14 -10 -23 -9 -14 0 -13 2 3 9 27 11 27 11 20 0z m980
-20 c7 0 27 -11 43 -25 17 -14 36 -25 44 -25 7 0 19 -9 26 -20 7 -11 17 -20
22 -20 6 0 19 -9 30 -20 30 -30 15 -24 -50 20 -32 22 -64 40 -69 40 -6 0 -11
4 -11 10 0 5 -19 18 -42 30 -24 11 -35 18 -25 15 10 -3 25 -5 32 -5z m-1247
-155 c-3 -3 -9 2 -12 12 -6 14 -5 15 5 6 7 -7 10 -15 7 -18z m1528 -47 c19
-22 19 -22 -11 0 -16 13 -41 32 -55 43 -24 19 -23 19 11 -1 20 -11 45 -30 55
-42z m-1551 32 c-3 -5 -10 -10 -16 -10 -5 0 -9 5 -9 10 0 6 7 10 16 10 8 0 12
-4 9 -10z m-35 -24 c0 -2 -11 -11 -25 -20 -14 -9 -25 -13 -25 -8 0 5 10 14 23
20 27 13 27 13 27 8z m1697 -66 c7 0 13 -6 13 -13 0 -8 23 -26 50 -41 28 -15
50 -32 50 -38 0 -12 -27 5 -117 71 -34 25 -59 49 -57 53 3 4 15 -1 26 -12 12
-11 28 -20 35 -20z m197 -158 c-5 -6 -53 32 -59 47 -3 7 10 0 28 -15 19 -16
33 -31 31 -32z m-2244 -2 c0 -5 -2 -10 -4 -10 -3 0 -8 5 -11 10 -3 6 -1 10 4
10 6 0 11 -4 11 -10z m2295 -21 c11 -17 -1 -21 -15 -4 -8 9 -8 15 -2 15 6 0
14 -5 17 -11z m89 -57 c9 -7 16 -10 16 -7 0 3 8 -3 19 -12 26 -25 59 -50 104
-80 20 -14 35 -28 33 -31 -6 -5 -129 77 -134 90 -2 4 -9 8 -15 8 -7 0 -26 14
-44 30 -18 17 -38 30 -45 30 -10 0 -10 2 1 9 8 6 20 3 31 -8 10 -9 26 -22 34
-29z m-2540 -45 c-2 -7 -14 -18 -25 -26 -17 -10 -24 -10 -33 0 -8 9 -8 10 0 6
7 -4 23 2 35 13 29 23 30 24 23 7z m2761 -117 c3 -6 -1 -7 -9 -4 -18 7 -21 14
-7 14 6 0 13 -4 16 -10z m45 -30 c0 -5 -4 -10 -10 -10 -5 0 -10 5 -10 10 0 6
5 10 10 10 6 0 10 -4 10 -10z m43 -21 c12 -7 24 -15 27 -18 3 -4 26 -20 52
-36 27 -17 48 -33 48 -37 0 -5 7 -8 15 -8 8 0 15 -4 15 -10 0 -16 -14 -12 -38
10 -12 11 -24 20 -27 20 -8 0 -125 81 -125 86 0 7 11 4 33 -7z m273 -194 c20
-14 43 -25 50 -25 8 0 14 -4 14 -8 0 -13 96 -63 105 -54 5 4 5 2 2 -4 -9 -15
29 -48 44 -38 7 4 10 3 5 -4 -7 -11 47 -55 58 -47 3 3 2 0 -3 -6 -7 -8 -25 0
-63 27 -29 21 -54 42 -56 46 -2 5 -8 8 -13 8 -5 0 -52 29 -104 65 -53 36 -91
65 -86 65 6 0 27 -11 47 -25z m362 -246 c19 -18 39 -28 48 -25 8 3 12 1 9 -4
-3 -5 11 -18 32 -27 21 -10 47 -26 58 -37 11 -10 44 -32 73 -48 28 -16 52 -34
52 -40 0 -6 7 -7 16 -4 9 3 12 2 9 -5 -8 -11 4 -22 85 -76 30 -21 61 -43 68
-50 7 -7 17 -13 21 -13 4 0 16 -8 27 -17 10 -10 31 -24 46 -32 15 -8 46 -31
70 -52 24 -21 49 -37 56 -34 6 2 12 1 12 -4 0 -7 80 -68 120 -91 8 -5 12 -12
9 -15 -4 -3 -34 15 -68 40 -33 25 -65 45 -69 45 -5 0 -17 8 -28 18 -10 10 -48
38 -84 62 -35 25 -71 50 -80 57 -15 13 -247 174 -428 298 -92 63 -116 85 -94
85 4 0 22 -14 40 -31z m-5064 -498 c-10 -10 -21 -16 -24 -14 -3 3 4 11 14 19
28 20 33 17 10 -5z m6086 -211 c8 -5 12 -11 9 -14 -3 -3 -14 1 -25 9 -21 16
-8 20 16 5z m210 -140 c0 -5 -5 -10 -11 -10 -5 0 -7 5 -4 10 3 6 8 10 11 10 2
0 4 -4 4 -10z m150 -106 c0 -2 -7 -4 -15 -4 -8 0 -15 4 -15 10 0 5 7 7 15 4 8
-4 15 -8 15 -10z m343 -511 c-7 -2 -19 -2 -25 0 -7 3 -2 5 12 5 14 0 19 -2 13
-5z m1494 -109 c-3 -3 -12 -4 -19 -1 -8 3 -5 6 6 6 11 1 17 -2 13 -5z m-664
-11 c-7 -2 -19 -2 -25 0 -7 3 -2 5 12 5 14 0 19 -2 13 -5z m1676 -57 l23 -23
-1 -404 c-1 -222 -3 -593 -6 -824 -3 -231 -7 -895 -10 -1475 -5 -968 -9 -1159
-22 -1146 -3 3 -7 53 -10 113 -5 126 -13 150 -13 40 0 -45 -4 -77 -10 -77 -5
0 -10 5 -10 10 0 16 -18 12 -40 -10 -11 -11 -28 -20 -38 -20 -10 0 -28 -10
-40 -23 -52 -54 -71 -69 -80 -64 -5 4 -14 -5 -20 -18 -6 -13 -23 -27 -37 -31
-13 -3 -22 -10 -19 -15 3 -5 -3 -12 -13 -16 -10 -3 -34 -19 -53 -35 -19 -15
-40 -28 -47 -28 -8 0 -10 -7 -6 -17 6 -15 4 -16 -9 -5 -13 11 -21 8 -49 -18
-66 -59 -80 -70 -89 -70 -6 0 -10 -5 -10 -10 0 -6 -11 -15 -25 -20 -14 -5 -28
-17 -31 -25 -4 -8 -12 -15 -20 -15 -8 0 -14 -4 -14 -9 0 -5 -12 -14 -27 -21
-55 -23 -72 -35 -77 -54 -3 -11 -8 -17 -12 -13 -8 7 -64 -23 -64 -35 0 -4 -19
-16 -43 -26 -23 -10 -60 -35 -82 -55 -21 -20 -42 -34 -45 -32 -4 2 -13 -5 -20
-16 -8 -10 -23 -19 -33 -19 -10 0 -15 -4 -12 -10 3 -5 0 -10 -8 -10 -8 0 -31
-16 -52 -35 -20 -20 -58 -47 -84 -61 -50 -26 -83 -46 -91 -54 -11 -11 -151
-110 -155 -110 -13 0 -124 -82 -129 -95 -3 -8 -15 -15 -26 -15 -11 0 -20 -4
-20 -9 0 -5 -19 -19 -42 -31 -24 -12 -53 -31 -65 -42 -20 -19 -46 -36 -81 -54
-7 -4 -34 -26 -59 -51 -26 -24 -52 -42 -60 -39 -7 3 -13 -1 -13 -9 0 -7 -9
-17 -20 -20 -11 -3 -20 -11 -20 -16 0 -5 -9 -9 -21 -9 -11 0 -18 -4 -15 -8 3
-4 -11 -16 -30 -27 -19 -10 -34 -22 -34 -28 0 -5 -7 -7 -15 -4 -8 4 -17 2 -20
-3 -3 -4 1 -11 7 -13 7 -3 3 -6 -9 -6 -13 -1 -23 -6 -23 -12 0 -6 -5 -9 -11
-7 -6 2 -27 -11 -47 -29 -20 -18 -45 -36 -56 -39 -11 -4 -34 -19 -50 -35 -17
-16 -38 -29 -47 -29 -8 0 -30 -16 -49 -35 -18 -19 -37 -32 -42 -29 -4 3 -8 -1
-8 -9 0 -8 -8 -17 -17 -21 -33 -11 -82 -43 -76 -50 3 -3 1 -6 -6 -6 -6 0 -17
-5 -24 -10 -33 -30 -120 -90 -128 -90 -5 0 -23 -14 -39 -30 -16 -17 -36 -30
-45 -30 -8 0 -15 -4 -15 -10 0 -5 -6 -10 -13 -10 -7 0 -20 -9 -30 -20 -9 -11
-24 -20 -32 -20 -8 0 -15 -7 -15 -16 0 -9 -6 -14 -13 -11 -7 3 -19 -4 -25 -14
-7 -10 -18 -19 -25 -19 -8 0 -19 -11 -25 -25 -7 -16 -17 -23 -26 -19 -9 4 -27
-8 -47 -30 -17 -20 -40 -36 -51 -36 -10 0 -17 -4 -13 -9 3 -5 -5 -13 -17 -17
-13 -4 -36 -18 -52 -31 -17 -14 -39 -29 -50 -34 -31 -13 -59 -32 -77 -52 -9
-9 -21 -17 -26 -17 -6 0 -18 -9 -27 -19 -10 -11 -29 -22 -42 -25 -14 -4 -22
-11 -19 -16 3 -6 -1 -10 -9 -10 -9 0 -16 -5 -16 -11 0 -6 -6 -9 -14 -6 -10 4
-12 0 -9 -14 4 -14 1 -18 -10 -13 -9 3 -24 -3 -34 -13 -38 -37 -120 -95 -160
-113 -13 -5 -23 -14 -23 -19 0 -5 -25 -21 -55 -35 -43 -20 -53 -28 -48 -42 4
-11 3 -15 -5 -10 -6 3 -14 1 -17 -5 -4 -5 -13 -8 -21 -5 -8 3 -17 -1 -21 -10
-3 -8 -20 -22 -37 -31 -17 -9 -41 -26 -53 -39 -12 -13 -27 -24 -33 -24 -5 0
-10 -5 -10 -10 0 -6 -12 -16 -27 -22 -16 -7 -38 -21 -51 -32 -13 -12 -26 -19
-29 -17 -3 2 -19 -10 -37 -26 -42 -39 -132 -93 -142 -85 -4 4 -4 1 0 -5 4 -7
3 -13 -3 -13 -5 0 -27 -17 -50 -37 -22 -21 -61 -50 -86 -65 -27 -17 -43 -33
-39 -39 4 -8 -1 -9 -16 -4 -15 5 -20 4 -16 -4 10 -15 -36 -32 -46 -17 -5 7 -8
4 -8 -8 0 -12 -5 -16 -15 -12 -10 3 -15 -1 -15 -12 0 -12 -9 -18 -27 -20 -15
-1 -36 -11 -46 -21 -16 -16 -25 -17 -55 -9 -19 5 -49 7 -65 4 -22 -5 -28 -3
-24 8 4 9 0 12 -11 10 -10 -3 -34 11 -56 31 -22 19 -47 35 -57 35 -19 0 -42
24 -32 33 3 4 1 7 -6 7 -7 0 -20 7 -29 16 -10 11 -17 13 -20 5 -2 -6 -15 3
-29 19 -13 17 -31 30 -38 30 -8 0 -23 14 -35 30 -12 17 -27 29 -34 27 -6 -2
-21 11 -34 30 -12 18 -29 33 -37 33 -8 0 -15 5 -15 10 0 6 -6 10 -14 10 -8 0
-27 12 -44 28 -16 15 -47 36 -68 47 -22 11 -59 34 -83 52 -24 18 -47 33 -51
33 -4 0 -24 16 -45 36 -21 19 -44 33 -51 30 -7 -3 -16 -1 -19 4 -4 6 2 10 12
11 14 0 15 2 3 6 -8 3 -19 13 -24 21 -7 12 -10 12 -17 1 -7 -11 -9 -10 -9 4 0
10 -7 20 -15 23 -8 4 -15 13 -15 21 0 10 -6 13 -17 9 -10 -4 -14 -4 -11 -1 8
8 -55 65 -71 65 -6 0 -14 6 -17 14 -3 8 -19 18 -35 21 -16 4 -37 17 -47 30
-11 13 -31 27 -45 31 -15 3 -27 10 -27 15 0 5 -8 13 -17 16 -10 4 -24 13 -31
20 -7 7 -25 13 -38 13 -14 0 -22 4 -19 10 3 6 -1 7 -9 4 -9 -3 -16 -2 -16 3 0
5 -35 20 -77 34 -66 20 -97 24 -198 23 -144 -1 -215 -6 -209 -15 4 -6 -20 -13
-93 -26 -18 -3 -33 -9 -33 -13 0 -4 -14 -13 -31 -20 -17 -7 -37 -19 -44 -26
-7 -7 -47 -35 -89 -62 -42 -27 -73 -52 -69 -55 3 -4 -1 -7 -10 -7 -10 0 -17
-5 -17 -11 0 -6 -7 -9 -15 -5 -10 4 -15 -1 -15 -15 0 -15 -5 -19 -15 -15 -8 3
-21 -1 -27 -10 -31 -37 -41 -45 -50 -42 -6 2 -25 -10 -43 -27 -72 -65 -87 -77
-92 -71 -4 3 -13 -3 -20 -14 -8 -11 -19 -18 -24 -15 -5 4 -9 -1 -9 -9 0 -9 -7
-16 -15 -16 -8 0 -15 -4 -15 -10 0 -5 -7 -10 -15 -10 -8 0 -15 -4 -15 -10 0
-5 -5 -10 -12 -10 -6 0 -18 -7 -27 -15 -51 -46 -61 -54 -80 -60 -12 -3 -21
-11 -21 -16 0 -5 -4 -9 -10 -9 -17 0 -89 -54 -95 -72 -3 -9 -12 -15 -18 -12
-7 2 -20 -9 -30 -26 -10 -16 -23 -29 -30 -27 -7 1 -11 -3 -10 -10 2 -7 -4 -10
-12 -7 -8 4 -15 1 -15 -5 0 -6 -7 -11 -16 -11 -10 0 -14 -5 -10 -15 3 -9 1
-15 -7 -14 -6 1 -27 -4 -45 -11 -30 -11 -31 -13 -15 -26 13 -10 13 -12 3 -9
-16 6 -110 -48 -110 -63 0 -13 -92 -33 -138 -30 -23 2 -42 6 -42 11 0 4 -16 7
-35 7 -19 0 -35 3 -35 8 0 8 -48 32 -64 32 -16 1 -56 36 -56 49 0 6 -9 11 -20
11 -11 0 -20 4 -20 9 0 5 -10 13 -22 16 -13 4 -32 17 -43 29 -11 12 -27 25
-35 29 -24 11 -52 31 -76 53 -13 12 -36 28 -53 35 -17 8 -31 17 -31 21 0 5 -8
8 -17 8 -15 0 -16 2 -3 10 12 8 11 10 -8 10 -24 0 -37 9 -77 48 -13 13 -29 21
-34 17 -7 -4 -8 0 -5 10 4 9 3 15 -2 13 -15 -5 -74 24 -74 36 0 6 -12 20 -27
31 -15 11 -38 30 -51 43 -14 13 -29 21 -36 19 -6 -3 -22 4 -35 14 -13 11 -20
19 -16 19 3 0 0 7 -9 15 -8 8 -21 15 -30 15 -8 0 -22 10 -30 22 -10 13 -16 17
-16 9 0 -11 -5 -9 -20 4 -11 10 -20 15 -20 11 0 -4 -15 7 -32 24 -18 17 -43
33 -55 36 -13 4 -23 10 -23 15 0 5 -7 9 -15 9 -8 0 -28 14 -43 30 -16 17 -34
30 -41 30 -6 0 -11 4 -11 10 0 17 -74 81 -117 100 -24 10 -50 26 -59 35 -8 8
-22 15 -30 15 -8 0 -14 7 -14 16 0 8 -16 22 -35 30 -19 8 -35 19 -35 25 0 6
-7 9 -15 5 -8 -3 -15 -1 -15 5 0 6 -10 8 -22 5 -13 -3 -17 -3 -10 0 17 8 15
27 -2 21 -9 -4 -17 2 -21 14 -4 12 -19 22 -36 26 -16 3 -29 9 -29 14 0 5 -4 9
-9 9 -6 0 -22 11 -37 25 -15 14 -32 25 -39 25 -6 0 -17 11 -23 25 -6 14 -18
25 -26 25 -7 0 -16 7 -20 15 -3 8 -12 12 -21 9 -8 -3 -15 -2 -15 3 0 5 -16 15
-35 23 -19 7 -32 17 -30 21 3 4 -19 22 -48 40 -28 19 -58 39 -65 46 -7 7 -22
13 -32 13 -10 0 -20 9 -23 21 -3 11 -11 19 -19 17 -7 -2 -23 6 -34 17 -12 11
-41 31 -65 45 -24 14 -64 43 -89 65 -52 46 -74 61 -112 76 -15 6 -35 23 -45
39 -17 27 -21 30 -43 30 -5 0 -19 9 -30 20 -11 11 -20 16 -20 10 0 -5 -7 -7
-15 -4 -8 4 -12 10 -9 15 3 5 -2 9 -10 9 -8 0 -26 11 -40 25 -14 14 -28 25
-31 25 -4 0 -16 10 -27 23 -13 15 -21 18 -24 10 -4 -9 -13 -6 -28 10 -50 49
-82 71 -95 69 -7 -2 -10 1 -6 7 3 6 0 11 -8 11 -8 0 -17 7 -21 15 -3 8 -9 14
-13 13 -13 -4 -53 28 -45 36 4 4 3 6 -3 5 -20 -6 -53 12 -69 36 -9 14 -26 25
-37 25 -11 0 -18 4 -15 9 3 4 -12 17 -34 27 -21 10 -44 28 -50 39 -6 11 -38
36 -70 54 -33 19 -60 38 -60 42 0 4 -13 12 -29 19 -16 6 -37 20 -47 31 -9 10
-24 19 -33 19 -9 0 -22 9 -28 20 -7 11 -27 27 -45 36 -18 9 -45 28 -60 42 -16
14 -28 23 -28 19 0 -4 -9 2 -20 13 -11 11 -27 20 -36 20 -14 0 -14 3 -4 15 11
13 8 15 -19 15 -23 0 -40 9 -60 31 -22 23 -34 29 -50 24 -16 -5 -20 -3 -15 9
4 11 1 16 -10 16 -9 0 -16 5 -16 10 0 6 -6 10 -14 10 -8 0 -17 7 -20 16 -3 8
-10 13 -14 10 -5 -3 -14 6 -21 20 -6 14 -15 23 -20 20 -5 -3 -11 1 -15 9 -3 8
-11 15 -17 15 -7 0 -19 7 -28 15 -35 33 -79 65 -90 65 -6 0 -11 4 -11 8 0 5
-16 16 -35 25 -20 10 -35 24 -35 34 0 15 -2 16 -10 3 -6 -10 -13 -11 -17 -5
-20 27 -77 65 -90 61 -8 -3 -11 -1 -8 4 3 6 -5 10 -19 10 -19 0 -26 5 -26 20
0 13 -7 20 -18 20 -10 0 -39 20 -64 44 -26 24 -49 41 -52 38 -3 -3 -6 2 -6 11
0 9 -3 16 -7 16 -21 -3 -33 3 -33 17 0 9 -13 21 -30 27 -16 6 -30 17 -30 24 0
7 -7 13 -15 13 -8 0 -23 9 -32 20 -10 11 -22 20 -28 20 -6 0 -21 14 -35 30
-14 17 -32 30 -40 30 -9 0 -21 5 -26 10 -7 7 -19 8 -37 1 -14 -6 -29 -6 -31
-2 -4 6 -9 3536 -6 3788 0 8 27 13 88 15 48 2 2931 2 6407 0 l6320 -3 24 -23z
m-13037 -1582 c-12 -8 -20 -20 -17 -25 4 -5 1 -9 -6 -9 -18 0 -79 -49 -79 -64
0 -7 -7 -21 -16 -32 -15 -18 -15 -18 -5 3 6 12 7 24 2 27 -4 3 -13 -5 -19 -18
-6 -14 -22 -26 -41 -29 -23 -5 -29 -10 -24 -23 5 -13 2 -15 -15 -10 -17 6 -21
4 -16 -8 3 -9 1 -16 -6 -16 -6 0 -8 -5 -4 -11 4 -7 -2 -6 -17 1 -23 13 -23 13
-6 -13 10 -16 13 -28 7 -32 -6 -3 -10 -2 -10 3 0 5 -9 12 -21 15 -18 5 -20 2
-14 -21 6 -26 6 -26 -13 -9 -14 13 -22 15 -27 7 -4 -6 -13 -9 -21 -6 -8 3 -11
0 -7 -9 3 -8 9 -13 13 -10 5 3 11 1 14 -4 3 -4 -13 -7 -37 -6 -44 3 -72 -10
-60 -28 4 -6 0 -8 -10 -4 -10 4 -23 -3 -36 -18 -10 -14 -24 -25 -31 -25 -16 0
-140 -82 -140 -92 0 -4 -6 -8 -14 -8 -17 0 -31 -33 -17 -38 6 -2 11 -8 11 -14
0 -7 -5 -6 -14 1 -10 8 -16 8 -25 -3 -6 -8 -20 -12 -30 -9 -10 3 -30 -7 -49
-25 -22 -20 -32 -25 -36 -16 -5 13 81 84 102 84 6 0 12 4 14 8 3 9 92 70 159
110 20 12 40 18 44 14 5 -4 5 -2 2 4 -6 10 170 141 185 137 4 -2 8 1 8 6 0 8
134 101 145 101 3 0 18 11 33 25 39 34 156 113 161 108 3 -2 -5 -10 -17 -19z
m13293 -26 c19 -13 35 -27 35 -32 0 -5 -6 -3 -13 3 -8 6 -16 10 -18 8 -2 -2
-14 7 -26 20 -28 29 -22 29 22 1z m-13330 -48 c-3 -5 -10 -10 -16 -10 -5 0 -9
5 -9 10 0 6 7 10 16 10 8 0 12 -4 9 -10z m13395 -5 c0 -16 -35 -21 -45 -6 -4
8 9 15 38 20 4 0 7 -6 7 -14z m35 -15 c3 -5 1 -10 -4 -10 -6 0 -11 5 -11 10 0
6 2 10 4 10 3 0 8 -4 11 -10z m40 -30 c3 -6 -5 -10 -19 -10 -13 0 -26 -6 -29
-12 -2 -7 -8 -10 -12 -6 -10 10 17 37 37 38 9 0 20 -4 23 -10z m32 -26 c-3 -3
-12 -4 -19 -1 -8 3 -5 6 6 6 11 1 17 -2 13 -5z m33 -24 c0 -5 -2 -10 -4 -10
-3 0 -8 5 -11 10 -3 6 -1 10 4 10 6 0 11 -4 11 -10z m44 -25 c8 -8 19 -15 25
-15 6 0 11 -4 11 -10 0 -16 -15 -11 -46 15 -16 14 -24 25 -17 25 6 0 18 -7 27
-15z m-13724 -5 c0 -5 -4 -10 -10 -10 -5 0 -10 5 -10 10 0 6 5 10 10 10 6 0
10 -4 10 -10z m13805 -46 c13 -8 26 -23 29 -32 6 -15 5 -16 -7 -1 -6 9 -22 19
-35 23 -12 4 -22 12 -22 17 0 13 7 11 35 -7z m-13825 -4 c0 -5 -7 -10 -15 -10
-8 0 -15 5 -15 10 0 6 7 10 15 10 8 0 15 -4 15 -10z m13910 -60 c26 -22 23
-24 -14 -10 -14 5 -26 14 -26 20 0 16 15 12 40 -10z m-14110 2 c0 -13 -12 -22
-22 -16 -10 6 -1 24 13 24 5 0 9 -4 9 -8z m14170 -37 c0 -12 -19 -12 -23 0 -4
9 -1 12 9 8 7 -3 14 -7 14 -8z m-14140 -75 c8 -5 11 -10 5 -10 -5 0 -17 5 -25
10 -8 5 -10 10 -5 10 6 0 17 -5 25 -10z m-200 -14 c0 -2 -7 -7 -16 -10 -8 -3
-12 -2 -9 4 6 10 25 14 25 6z m14490 -28 c0 -6 -6 -5 -15 2 -8 7 -15 14 -15
16 0 2 7 1 15 -2 8 -4 15 -11 15 -16z m-14543 6 c-3 -3 -12 -4 -19 -1 -8 3 -5
6 6 6 11 1 17 -2 13 -5z m516 -71 c-3 -7 -9 -13 -15 -13 -5 0 -6 6 -1 13 4 6
7 21 5 32 l-2 20 9 -20 c4 -11 6 -26 4 -32z m-73 21 c0 -8 -5 -12 -10 -9 -6 4
-8 11 -5 16 9 14 15 11 15 -7z m14230 -34 c5 0 10 -5 10 -11 0 -14 -24 -5 -67
24 -47 32 -41 42 7 12 22 -14 44 -25 50 -25z m-14924 -62 c4 -7 3 -8 -4 -4 -7
4 -12 3 -12 -2 0 -4 -16 -16 -35 -25 -19 -9 -35 -15 -35 -12 0 4 68 52 77 54
1 1 5 -4 9 -11z m734 -39 c0 -14 -16 -11 -29 5 -10 12 -8 13 8 9 12 -3 21 -9
21 -14z m14310 17 c0 -2 -7 -7 -16 -10 -8 -3 -12 -2 -9 4 6 10 25 14 25 6z
m-14280 -56 c0 -9 -41 -18 -58 -12 -23 7 -12 17 23 19 19 1 35 -2 35 -7z
m14350 2 c0 -5 -7 -9 -15 -9 -8 0 -12 4 -9 9 3 4 9 8 15 8 5 0 9 -4 9 -8z
m-914 -17 c-11 -8 -24 -15 -30 -15 -5 0 -1 7 10 15 10 8 24 14 29 14 6 0 1 -6
-9 -14z m938 -11 c3 -8 2 -12 -4 -9 -6 3 -10 10 -10 16 0 14 7 11 14 -7z
m-14514 -34 c0 -22 -4 -40 -10 -40 -5 0 -10 18 -10 40 0 22 5 40 10 40 6 0 10
-18 10 -40z m172 -41 c7 -4 6 -9 -1 -13 -6 -4 -11 -2 -11 5 0 8 -4 8 -15 -1
-12 -10 -19 -10 -27 -2 -9 9 -7 12 10 12 17 0 22 6 23 28 2 27 2 27 6 2 3 -14
10 -28 15 -31z m-73 -44 c16 -9 3 -25 -14 -18 -9 3 -15 18 -14 37 0 27 1 29 9
10 5 -12 13 -25 19 -29z m-213 8 c-10 -10 -19 5 -10 18 6 11 8 11 12 0 2 -7 1
-15 -2 -18z m-156 7 c0 -5 -4 -10 -10 -10 -5 0 -10 5 -10 10 0 6 5 10 10 10 6
0 10 -4 10 -10z m38 -30 c-15 -24 -19 -21 -11 8 3 12 9 19 14 16 5 -3 3 -14
-3 -24z m65 -19 c-6 -8 -31 34 -26 42 3 5 11 -2 17 -15 7 -12 11 -25 9 -27z
m-148 29 c3 -5 1 -10 -4 -10 -6 0 -11 5 -11 10 0 6 2 10 4 10 3 0 8 -4 11 -10z
m13892 -2 c14 -18 23 -59 12 -52 -10 6 -12 -17 -3 -41 5 -12 9 -13 14 -5 5 7
13 9 21 5 9 -6 8 -10 -7 -15 -13 -5 -27 0 -44 17 -24 24 -24 25 -6 39 18 13
18 15 3 32 -9 10 -17 22 -17 25 0 11 17 8 27 -5z m178 3 c3 -6 -12 -9 -34 -8
-23 1 -39 -2 -38 -8 1 -5 16 -10 34 -10 51 0 48 -11 -7 -22 l-50 -10 0 27 c0
15 3 30 7 33 10 11 81 8 88 -2z m-13585 -16 c0 -8 5 -15 10 -15 6 0 10 -4 10
-9 0 -4 -11 -7 -25 -5 -14 1 -32 -4 -40 -12 -13 -13 -18 -12 -42 11 -22 20
-24 24 -8 19 11 -4 23 -12 27 -17 7 -11 38 15 38 32 0 6 7 11 15 11 8 0 15 -7
15 -15z m13705 -5 c3 -5 -1 -10 -10 -10 -9 0 -13 5 -10 10 3 6 8 10 10 10 2 0
7 -4 10 -10z m-13897 -14 c2 -3 -1 -13 -6 -23 -10 -17 -11 -17 -18 0 -4 10
-16 23 -28 28 -16 8 -14 8 13 4 19 -3 36 -7 39 -9z m13852 4 c0 -5 -4 -10 -9
-10 -6 0 -13 5 -16 10 -3 6 1 10 9 10 9 0 16 -4 16 -10z m-14022 -12 c15 -15
16 -28 2 -28 -5 0 -10 6 -10 14 0 8 -6 17 -12 19 -7 3 -8 6 -2 6 5 1 15 -4 22
-11z m13840 -13 c15 -32 15 -55 2 -55 -5 0 -10 9 -10 20 0 11 -6 20 -14 20 -9
0 -12 7 -9 20 7 27 17 25 31 -5z m270 -4 c-7 -11 -19 -16 -30 -13 -29 7 -32
22 -4 22 14 0 26 5 26 11 0 5 4 7 10 4 6 -4 5 -13 -2 -24z m-13893 9 c-3 -5
-13 -10 -21 -10 -8 0 -14 5 -14 10 0 6 9 10 21 10 11 0 17 -4 14 -10z m13775
0 c0 -5 -4 -10 -10 -10 -5 0 -10 5 -10 10 0 6 5 10 10 10 6 0 10 -4 10 -10z
m178 -8 c2 -7 -3 -12 -12 -12 -9 0 -16 7 -16 16 0 17 22 14 28 -4z m82 -2 c0
-5 -2 -10 -4 -10 -3 0 -8 5 -11 10 -3 6 -1 10 4 10 6 0 11 -4 11 -10z m-13983
-17 c3 -7 -3 -9 -16 -6 -12 3 -21 10 -21 15 0 13 32 6 37 -9z m13753 7 c0 -5
-4 -10 -10 -10 -5 0 -10 5 -10 10 0 6 5 10 10 10 6 0 10 -4 10 -10z m-13913
-32 c-3 -7 -5 -2 -5 12 0 14 2 19 5 13 2 -7 2 -19 0 -25z m13798 22 c4 -6 -5
-10 -19 -10 -14 0 -26 5 -26 10 0 6 9 10 19 10 11 0 23 -4 26 -10z m282 -12
c-3 -8 -6 -5 -6 6 -1 11 2 17 5 13 3 -3 4 -12 1 -19z m-13982 2 c3 -5 -1 -10
-9 -10 -9 0 -16 5 -16 10 0 6 4 10 9 10 6 0 13 -4 16 -10z m13785 0 c0 -5 -4
-10 -10 -10 -5 0 -10 5 -10 10 0 6 5 10 10 10 6 0 10 -4 10 -10z m320 0 c0 -5
-5 -10 -11 -10 -5 0 -7 5 -4 10 3 6 8 10 11 10 2 0 4 -4 4 -10z m-14315 -20
c-3 -5 -12 -10 -18 -10 -7 0 -6 4 3 10 19 12 23 12 15 0z m300 0 c3 -5 1 -10
-4 -10 -6 0 -11 5 -11 10 0 6 2 10 4 10 3 0 8 -4 11 -10z m13654 -11 c-21 -13
-82 -11 -73 2 3 6 19 9 35 5 17 -3 29 -1 29 5 0 6 5 7 11 3 8 -4 7 -9 -2 -15z
m105 6 c-4 -10 -19 -15 -48 -13 -41 1 -41 1 -6 6 29 4 32 6 15 12 -17 7 -14 9
12 9 25 1 31 -3 27 -14z m61 5 c-3 -5 -11 -10 -16 -10 -6 0 -7 5 -4 10 3 6 11
10 16 10 6 0 7 -4 4 -10z m165 -11 c0 -11 -2 -19 -5 -19 -3 0 -15 8 -26 19
-20 18 -20 19 5 19 19 0 26 -6 26 -19z m-14363 5 c-3 -3 -12 -4 -19 -1 -8 3
-5 6 6 6 11 1 17 -2 13 -5z m140 0 c-3 -3 -12 -4 -19 -1 -8 3 -5 6 6 6 11 1
17 -2 13 -5z m213 -4 c0 -5 -7 -7 -15 -4 -8 4 -15 8 -15 10 0 2 7 4 15 4 8 0
15 -4 15 -10z m14197 4 c-3 -3 -12 -4 -19 -1 -8 3 -5 6 6 6 11 1 17 -2 13 -5z
m-14056 -14 c14 -8 19 -7 19 2 0 9 3 9 11 1 22 -22 -2 -31 -62 -24 -4 1 -9 8
-13 16 -6 18 16 20 45 5z m13359 -10 c11 -7 4 -10 -27 -10 -24 0 -43 5 -43 10
0 13 50 13 70 0z m67 4 c-3 -3 -12 -4 -19 -1 -8 3 -5 6 6 6 11 1 17 -2 13 -5z
m263 2 c0 -3 -4 -8 -10 -11 -5 -3 -10 -1 -10 4 0 6 5 11 10 11 6 0 10 -2 10
-4z m92 -5 c-12 -7 -62 -4 -62 5 0 2 17 4 38 4 23 0 32 -3 24 -9z m-369 -205
c51 -3 75 -1 71 6 -4 6 1 8 12 4 22 -6 64 -8 156 -6 37 1 72 -1 78 -5 5 -3 10
-1 10 4 0 12 130 13 170 2 14 -4 40 -4 58 0 17 4 32 4 32 0 0 -3 27 -7 61 -9
65 -2 130 -35 121 -60 -3 -10 -9 -9 -25 5 -19 17 -20 17 -14 0 5 -14 3 -16
-11 -8 -16 8 -18 5 -18 -22 1 -28 -2 -32 -23 -29 -20 2 -22 0 -12 -12 10 -12
6 -17 -28 -27 -40 -12 -57 -39 -25 -39 8 0 12 -5 9 -11 -4 -6 -14 -8 -22 -5
-8 3 -29 -2 -46 -11 -18 -10 -36 -17 -41 -18 -5 0 -12 -9 -17 -20 -6 -17 -8
-17 -8 -2 -1 24 -21 22 -21 -2 0 -11 -4 -23 -10 -26 -5 -3 -10 -1 -10 5 0 7
-5 6 -14 -2 -8 -7 -10 -14 -5 -16 18 -7 8 -22 -15 -22 -13 0 -29 -7 -36 -15
-7 -8 -19 -15 -26 -15 -13 0 -37 -41 -38 -65 -1 -13 -43 -35 -67 -35 -19 0
-69 -44 -69 -62 0 -6 -9 -8 -20 -5 -13 3 -20 0 -20 -9 0 -8 -5 -14 -11 -14 -6
0 -8 -7 -5 -16 5 -13 1 -15 -21 -10 -20 5 -24 4 -13 -3 8 -6 11 -13 7 -17 -3
-4 -13 -1 -22 6 -12 10 -15 10 -15 -3 0 -9 -9 -19 -20 -22 -12 -4 -29 -16 -39
-27 -12 -12 -33 -20 -54 -21 -21 -1 -33 -5 -31 -12 10 -25 -36 -9 -47 16 -6
15 -18 30 -27 34 -14 5 -14 7 -2 16 13 8 13 11 -2 19 -9 6 -15 16 -12 24 10
26 9 246 -1 250 -6 3 -3 9 5 15 13 10 13 12 0 21 -10 6 -11 13 -5 18 6 4 10
30 10 57 -1 74 14 187 27 202 7 9 21 12 37 8 14 -3 61 -7 104 -9z m783 -11
c14 -13 13 -15 -5 -15 -21 0 -35 13 -24 24 9 9 13 8 29 -9z m-186 -225 c0 -5
-4 -10 -10 -10 -5 0 -10 5 -10 10 0 6 5 10 10 10 6 0 10 -4 10 -10z m-13970
-446 c0 -2 -7 -4 -15 -4 -8 0 -15 4 -15 10 0 5 7 7 15 4 8 -4 15 -8 15 -10z
m12560 -638 c0 -2 -7 -9 -15 -16 -13 -11 -14 -10 -9 4 5 14 24 23 24 12z
m-4225 -3146 c3 -5 1 -10 -4 -10 -6 0 -11 5 -11 10 0 6 2 10 4 10 3 0 8 -4 11
-10z m-5905 -1750 c-20 -13 -33 -13 -25 0 3 6 14 10 23 10 15 0 15 -2 2 -10z
m8380 1 c0 -5 -9 -7 -20 -4 -11 3 -20 7 -20 9 0 2 9 4 20 4 11 0 20 -4 20 -9z
m-10210 -1341 c0 -5 -5 -10 -11 -10 -5 0 -7 5 -4 10 3 6 8 10 11 10 2 0 4 -4
4 -10z m-45 -20 c-3 -5 -11 -10 -16 -10 -6 0 -7 5 -4 10 3 6 11 10 16 10 6 0
7 -4 4 -10z"/>
<path d="M7633 15123 c9 -2 25 -2 35 0 9 3 1 5 -18 5 -19 0 -27 -2 -17 -5z"/>
<path d="M7870 15095 c14 -8 34 -14 45 -14 11 0 2 6 -20 14 -50 18 -57 18 -25
0z"/>
<path d="M7411 15079 c-13 -5 -22 -12 -19 -14 6 -6 58 12 58 20 0 7 -11 5 -39
-6z"/>
<path d="M7990 15050 c0 -6 7 -10 15 -10 8 0 15 2 15 4 0 2 -7 6 -15 10 -8 3
-15 1 -15 -4z"/>
<path d="M7280 15010 c-9 -6 -10 -10 -3 -10 6 0 15 5 18 10 8 12 4 12 -15 0z"/>
<path d="M7240 14990 c0 -5 5 -10 10 -10 6 0 10 5 10 10 0 6 -4 10 -10 10 -5
0 -10 -4 -10 -10z"/>
<path d="M7194 14958 c-43 -32 -49 -38 -38 -38 10 1 82 60 72 60 -3 0 -18 -10
-34 -22z"/>
<path d="M8213 14910 c14 -11 28 -20 31 -20 5 0 80 -53 113 -80 7 -6 15 -10
18 -10 13 0 -9 22 -47 48 -23 15 -59 39 -82 54 -48 32 -71 37 -33 8z"/>
<path d="M7120 14905 c-11 -13 -10 -14 4 -9 9 3 16 10 16 15 0 13 -6 11 -20
-6z"/>
<path d="M6888 14751 c-90 -61 -88 -73 2 -14 39 26 70 50 70 55 0 10 6 14 -72
-41z"/>
<path d="M8535 14693 c23 -22 117 -84 122 -80 2 3 -19 21 -49 39 -68 44 -86
54 -73 41z"/>
<path d="M8670 14601 c0 -9 30 -24 36 -18 2 1 -6 8 -16 15 -11 7 -20 8 -20 3z"/>
<path d="M6600 14550 c-19 -16 -30 -29 -25 -29 6 0 26 13 45 29 19 16 31 29
25 29 -5 0 -26 -13 -45 -29z"/>
<path d="M8721 14566 c11 -11 80 -56 86 -56 10 0 -71 59 -81 60 -5 0 -7 -2 -5
-4z"/>
<path d="M6535 14510 c-3 -5 1 -10 9 -10 9 0 16 5 16 10 0 6 -4 10 -9 10 -6 0
-13 -4 -16 -10z"/>
<path d="M8865 14466 c22 -20 63 -51 90 -68 28 -18 52 -35 55 -38 7 -8 40 -21
40 -15 0 2 -28 23 -62 46 -35 23 -85 57 -113 76 l-50 35 40 -36z"/>
<path d="M6416 14425 c-11 -8 -15 -15 -9 -15 6 0 16 7 23 15 16 19 11 19 -14
0z"/>
<path d="M6286 14330 c-55 -42 -57 -46 -9 -19 24 13 45 30 48 37 6 16 6 16
-39 -18z"/>
<path d="M9060 14326 c0 -2 7 -7 16 -10 8 -3 12 -2 9 4 -6 10 -25 14 -25 6z"/>
<path d="M7300 14290 c-9 -6 -10 -10 -3 -10 6 0 15 5 18 10 8 12 4 12 -15 0z"/>
<path d="M9122 14284 c10 -10 20 -15 24 -12 3 4 -5 12 -18 18 -22 12 -22 12
-6 -6z"/>
<path d="M7240 14249 l-35 -30 37 23 c21 13 38 26 38 31 0 10 -2 9 -40 -24z"/>
<path d="M8125 14235 c32 -28 65 -49 65 -41 0 3 -21 19 -47 36 -41 27 -43 27
-18 5z"/>
<path d="M9216 14217 c3 -9 13 -19 22 -22 10 -2 31 -17 47 -31 17 -14 44 -33
60 -41 17 -9 42 -25 57 -36 15 -11 30 -19 32 -16 2 2 -39 33 -91 69 -52 36
-104 71 -114 79 -17 12 -19 12 -13 -2z"/>
<path d="M6065 14180 c-3 -5 -1 -10 4 -10 6 0 11 5 11 10 0 6 -2 10 -4 10 -3
0 -8 -4 -11 -10z"/>
<path d="M6030 14145 c-7 -8 -18 -15 -24 -15 -6 0 -24 -11 -41 -25 l-30 -25
47 25 c40 23 80 55 65 55 -2 0 -10 -7 -17 -15z"/>
<path d="M9490 14036 c0 -2 8 -10 18 -17 15 -13 16 -12 3 4 -13 16 -21 21 -21
13z"/>
<path d="M9534 14002 c4 -6 44 -37 89 -68 45 -32 91 -65 102 -74 11 -9 29 -20
39 -24 16 -5 17 -4 6 9 -7 8 -17 15 -23 15 -6 0 -20 8 -31 19 -33 28 -190 135
-182 123z"/>
<path d="M5780 13975 c-8 -9 -27 -23 -43 -31 -16 -9 -26 -18 -23 -21 4 -5 39
17 85 54 2 2 2 5 -1 8 -3 3 -11 -2 -18 -10z"/>
<path d="M5635 13874 c-66 -50 -98 -80 -48 -46 17 12 35 22 40 22 12 1 78 59
72 64 -2 2 -31 -16 -64 -40z"/>
<path d="M9820 13800 c35 -32 70 -54 70 -46 0 2 -24 20 -52 40 -48 34 -50 34
-18 6z"/>
<path d="M9920 13730 c14 -11 29 -20 34 -20 5 0 -3 9 -17 20 -14 11 -29 20
-34 20 -4 0 3 -9 17 -20z"/>
<path d="M5405 13710 c-3 -5 -1 -10 4 -10 6 0 11 5 11 10 0 6 -2 10 -4 10 -3
0 -8 -4 -11 -10z"/>
<path d="M5350 13675 c-19 -14 -29 -25 -23 -25 7 0 25 11 40 25 36 31 28 31
-17 0z"/>
<path d="M10010 13667 c14 -15 143 -98 146 -94 2 2 -19 20 -48 39 -52 34 -108
66 -98 55z"/>
<path d="M5245 13603 c-79 -54 -106 -75 -101 -80 2 -3 11 0 18 7 7 6 42 31 77
56 36 24 60 44 55 44 -5 0 -27 -12 -49 -27z"/>
<path d="M10184 13545 c11 -8 24 -15 30 -15 5 0 1 7 -10 15 -10 8 -23 14 -29
14 -5 0 -1 -6 9 -14z"/>
<path d="M5100 13500 c-14 -11 -20 -20 -14 -20 6 0 19 9 29 20 23 25 17 25
-15 0z"/>
<path d="M10240 13516 c0 -2 8 -10 18 -17 15 -13 16 -12 3 4 -13 16 -21 21
-21 13z"/>
<path d="M10280 13486 c0 -2 12 -12 28 -21 l27 -18 -19 21 c-17 20 -36 29 -36
18z"/>
<path d="M5040 13459 c0 -5 5 -7 10 -4 6 3 10 8 10 11 0 2 -4 4 -10 4 -5 0
-10 -5 -10 -11z"/>
<path d="M10375 13416 c22 -20 54 -43 70 -51 17 -7 51 -30 78 -50 26 -20 47
-33 47 -28 0 4 -53 43 -118 86 -70 47 -101 64 -77 43z"/>
<path d="M4855 13330 c-21 -16 -34 -30 -29 -30 10 1 82 59 73 60 -3 0 -23 -13
-44 -30z"/>
<path d="M4765 13264 l-30 -26 33 22 c17 12 32 23 32 26 0 7 -4 5 -35 -22z"/>
<path d="M10583 13274 c3 -5 32 -27 64 -49 32 -22 76 -54 98 -71 22 -18 117
-84 210 -146 227 -152 289 -196 358 -247 32 -24 60 -42 62 -39 7 7 -69 62
-365 263 -74 51 -154 105 -176 121 -229 161 -260 183 -251 168z"/>
<path d="M4699 13220 l-24 -20 28 11 c15 7 27 16 27 21 0 12 -5 10 -31 -12z"/>
<path d="M4465 13060 c-3 -6 1 -7 9 -4 18 7 21 14 7 14 -6 0 -13 -4 -16 -10z"/>
<path d="M4190 12870 c-9 -6 -10 -10 -3 -10 6 0 15 5 18 10 8 12 4 12 -15 0z"/>
<path d="M4135 12830 c-3 -5 -1 -10 4 -10 6 0 11 5 11 10 0 6 -2 10 -4 10 -3
0 -8 -4 -11 -10z"/>
<path d="M4062 12778 c-23 -18 -39 -34 -37 -36 4 -4 41 21 84 55 2 2 2 5 -1 8
-2 3 -23 -9 -46 -27z"/>
<path d="M3950 12700 c-25 -16 -41 -30 -36 -30 10 0 86 50 86 56 0 7 -4 5 -50
-26z"/>
<path d="M10400 12680 c0 -5 5 -10 11 -10 5 0 7 5 4 10 -3 6 -8 10 -11 10 -2
0 -4 -4 -4 -10z"/>
<path d="M4869 12623 c-13 -16 -12 -17 4 -4 16 13 21 21 13 21 -2 0 -10 -8
-17 -17z"/>
<path d="M4830 12600 c-9 -6 -10 -10 -3 -10 6 0 15 5 18 10 8 12 4 12 -15 0z"/>
<path d="M3490 12496 c0 -2 8 -10 18 -17 15 -13 16 -12 3 4 -13 16 -21 21 -21
13z"/>
<path d="M14080 12260 c0 -5 5 -10 11 -10 5 0 7 5 4 10 -3 6 -8 10 -11 10 -2
0 -4 -4 -4 -10z"/>
<path d="M9600 10376 c0 -2 8 -10 18 -17 15 -13 16 -12 3 4 -13 16 -21 21 -21
13z"/>
<path d="M5865 10229 c-4 -6 -5 -12 -2 -15 2 -3 7 2 10 11 7 17 1 20 -8 4z"/>
<path d="M8280 10026 c0 -2 8 -10 18 -17 15 -13 16 -12 3 4 -13 16 -21 21 -21
13z"/>
<path d="M6751 9583 c-10 -26 -10 -27 4 -9 8 11 15 23 15 28 0 15 -7 8 -19
-19z"/>
<path d="M8068 7483 c7 -3 16 -2 19 1 4 3 -2 6 -13 5 -11 0 -14 -3 -6 -6z"/>
<path d="M7848 7463 c7 -3 16 -2 19 1 4 3 -2 6 -13 5 -11 0 -14 -3 -6 -6z"/>
<path d="M14710 9191 c0 -5 5 -13 10 -16 6 -3 10 -2 10 4 0 5 -4 13 -10 16 -5
3 -10 2 -10 -4z"/>
<path d="M10735 13430 c-3 -6 1 -13 10 -16 19 -8 30 0 20 15 -8 14 -22 14 -30
1z"/>
<path d="M10770 13399 c0 -5 -5 -7 -12 -3 -7 4 -8 3 -4 -4 4 -6 13 -9 21 -5
17 6 20 23 5 23 -5 0 -10 -5 -10 -11z"/>
<path d="M13580 12450 c0 -5 7 -10 15 -10 8 0 15 5 15 10 0 6 -7 10 -15 10 -8
0 -15 -4 -15 -10z"/>
<path d="M14028 12443 c7 -3 16 -2 19 1 4 3 -2 6 -13 5 -11 0 -14 -3 -6 -6z"/>
<path d="M14156 10993 c-4 -9 -2 -21 4 -27 8 -8 9 -6 5 7 -4 10 -2 17 4 17 6
0 11 5 11 10 0 16 -17 11 -24 -7z"/>
<path d="M14940 10639 c0 -5 5 -7 10 -4 6 3 10 8 10 11 0 2 -4 4 -10 4 -5 0
-10 -5 -10 -11z"/>
<path d="M220 9571 c0 -5 5 -13 10 -16 6 -3 10 -2 10 4 0 5 -4 13 -10 16 -5 3
-10 2 -10 -4z"/>
<path d="M170 9560 c0 -5 7 -10 16 -10 8 0 12 5 9 10 -3 6 -10 10 -16 10 -5 0
-9 -4 -9 -10z"/>
<path d="M1075 9220 c3 -5 8 -10 11 -10 2 0 4 5 4 10 0 6 -5 10 -11 10 -5 0
-7 -4 -4 -10z"/>
<path d="M0 9182 c0 -4 4 -14 10 -22 6 -9 5 -17 -3 -23 -7 -5 -1 -6 16 -3 17
4 26 2 25 -5 -2 -6 17 -18 42 -28 28 -11 44 -23 42 -32 -2 -8 -1 -11 3 -7 4 4
12 3 19 -3 6 -5 22 -18 36 -28 29 -22 22 -38 -9 -21 -12 6 -21 8 -21 5 0 -3
18 -14 41 -24 22 -10 40 -21 40 -25 -4 -33 -1 -38 14 -26 12 10 13 16 4 27
-21 24 -3 24 23 -1 15 -13 48 -34 75 -46 42 -20 118 -72 133 -91 3 -3 24 -18
48 -33 23 -15 41 -30 38 -34 -3 -4 5 -9 17 -9 12 -1 26 -8 32 -15 13 -18 116
-80 122 -75 2 3 -11 16 -29 29 -71 53 -247 176 -318 223 -41 28 -81 55 -88 62
-25 24 -312 213 -312 205z"/>
<path d="M15205 9080 c-77 -55 -174 -122 -215 -151 -91 -63 -144 -100 -420
-292 -118 -82 -226 -158 -240 -168 -14 -10 -96 -69 -183 -130 -142 -100 -178
-129 -163 -129 18 0 167 103 226 157 14 13 29 23 33 23 8 0 77 48 87 61 3 4
23 16 46 27 22 11 46 28 53 36 8 9 17 16 22 16 5 0 17 8 27 18 31 29 50 42
252 177 106 72 199 135 205 142 7 6 43 30 81 54 38 23 83 53 101 66 30 23 61
24 47 2 -3 -5 -9 -7 -14 -4 -5 3 -11 1 -14 -4 -3 -5 1 -11 9 -15 8 -3 15 -9
15 -15 0 -13 -49 -20 -54 -7 -2 6 -5 3 -5 -8 -1 -12 4 -16 13 -13 36 14 86 19
86 8 0 -6 -9 -11 -20 -11 -24 0 -26 -15 -4 -24 21 -8 44 11 44 35 0 20 -33 43
-45 31 -5 -4 -5 1 -2 11 4 10 7 23 7 28 0 5 5 9 11 9 6 0 8 -9 4 -22 -5 -17
-4 -19 4 -8 17 25 49 -13 43 -51 -4 -24 -1 -30 9 -27 8 3 14 17 14 31 -1 16 5
27 13 27 7 0 12 6 11 13 -3 24 1 37 12 37 5 0 9 -8 7 -18 -4 -22 19 -52 38
-52 10 0 14 14 14 49 0 39 -4 51 -17 54 -17 4 -17 5 0 6 13 1 17 10 17 42 l0
41 -26 -17 c-43 -28 -59 -49 -56 -72 4 -27 -22 -32 -32 -7 -5 12 -2 15 9 10
10 -3 13 -2 10 5 -4 5 -15 7 -26 4 -34 -11 -20 13 17 31 21 10 48 28 62 41 13
12 28 20 33 17 5 -3 9 4 9 15 0 12 -3 21 -7 20 -5 0 -71 -45 -148 -99z m140
10 c3 -5 1 -10 -4 -10 -6 0 -11 5 -11 10 0 6 2 10 4 10 3 0 8 -4 11 -10z m1
-117 c-10 -10 -19 5 -10 18 6 11 8 11 12 0 2 -7 1 -15 -2 -18z"/>
<path d="M0 9101 c0 -5 6 -12 13 -15 10 -5 10 -7 0 -12 -19 -9 -16 -22 7 -29
11 -4 18 -11 14 -16 -4 -6 -10 -6 -18 0 -10 8 -13 1 -13 -34 0 -35 4 -46 19
-51 10 -3 16 -9 13 -14 -3 -5 -12 -7 -20 -4 -12 5 -14 -5 -12 -60 1 -36 6 -66
11 -66 5 0 3 -7 -5 -16 -10 -13 -10 -17 0 -24 9 -5 10 -13 5 -21 -21 -33 -14
-44 26 -44 22 0 40 3 40 7 0 5 -6 8 -12 8 -7 0 -5 5 4 11 10 5 18 15 18 22 0
8 -3 7 -9 -2 -5 -7 -14 -10 -21 -6 -8 5 -7 12 6 26 15 17 15 19 0 25 -9 3 -13
10 -10 15 3 5 10 7 15 4 5 -3 6 1 3 10 -4 9 -12 14 -18 12 -7 -3 -12 3 -12 13
0 10 6 16 13 13 7 -3 13 0 13 5 0 6 -9 14 -20 17 -23 7 -27 25 -6 25 7 0 20
-10 28 -22 13 -20 17 -21 32 -9 9 8 16 28 16 47 0 28 4 34 21 34 12 0 17 4 14
11 -4 5 -19 8 -33 6 -15 -2 -21 -2 -14 0 17 6 15 24 -5 38 -11 8 -13 14 -4 19
6 4 14 0 17 -8 6 -16 34 -23 34 -8 0 4 -9 15 -20 25 -11 9 -17 23 -14 31 3 8
1 17 -5 21 -7 4 -11 -4 -11 -19 0 -14 -4 -26 -9 -26 -5 0 -7 9 -4 20 4 14 0
20 -11 20 -9 0 -19 7 -22 15 -7 16 -54 21 -54 6z m40 -131 c0 -5 -4 -10 -10
-10 -5 0 -10 5 -10 10 0 6 5 10 10 10 6 0 10 -4 10 -10z m40 -10 c0 -5 -8 -10
-17 -10 -15 0 -16 2 -3 10 19 12 20 12 20 0z m0 -40 c0 -5 8 -10 17 -10 9 0
14 -3 10 -6 -8 -8 -47 5 -47 17 0 5 5 9 10 9 6 0 10 -4 10 -10z m-50 -80 c0
-5 -4 -10 -10 -10 -5 0 -10 5 -10 10 0 6 5 10 10 10 6 0 10 -4 10 -10z"/>
<path d="M165 8981 c-6 -11 13 -26 22 -17 4 3 1 6 -6 6 -7 0 -9 5 -6 10 3 6 4
10 1 10 -3 0 -7 -4 -11 -9z"/>
<path d="M15288 8933 c7 -3 16 -2 19 1 4 3 -2 6 -13 5 -11 0 -14 -3 -6 -6z"/>
<path d="M15065 8910 c3 -5 8 -10 11 -10 2 0 4 5 4 10 0 6 -5 10 -11 10 -5 0
-7 -4 -4 -10z"/>
<path d="M15330 8905 c0 -8 7 -15 15 -15 8 0 15 7 15 15 0 8 -7 15 -15 15 -8
0 -15 -7 -15 -15z"/>
<path d="M235 8870 c-3 -5 -1 -10 4 -10 6 0 11 5 11 10 0 6 -2 10 -4 10 -3 0
-8 -4 -11 -10z"/>
<path d="M15155 8870 c3 -5 8 -10 11 -10 2 0 4 5 4 10 0 6 -5 10 -11 10 -5 0
-7 -4 -4 -10z"/>
<path d="M15011 8854 c0 -11 3 -14 6 -6 3 7 2 16 -1 19 -3 4 -6 -2 -5 -13z"/>
<path d="M15240 8850 c0 -5 12 -10 26 -10 14 0 23 4 19 10 -3 6 -15 10 -26 10
-10 0 -19 -4 -19 -10z"/>
<path d="M190 8824 c0 -7 8 -10 20 -7 11 3 20 9 20 14 0 4 -9 7 -20 6 -11 -1
-20 -7 -20 -13z"/>
<path d="M15192 8820 c-7 -11 -10 -20 -6 -20 7 0 34 27 34 34 0 13 -16 5 -28
-14z"/>
<path d="M138 8823 c12 -2 22 -9 22 -14 0 -5 5 -9 11 -9 8 0 8 5 -1 15 -7 8
-22 14 -34 14 -20 -2 -20 -2 2 -6z"/>
<path d="M15150 8780 c0 -11 5 -20 10 -20 6 0 10 9 10 20 0 11 -4 20 -10 20
-5 0 -10 -9 -10 -20z"/>
<path d="M15211 8786 c-9 -10 -8 -15 4 -20 10 -4 15 1 15 14 0 24 -4 25 -19 6z"/>
<path d="M111 8781 c-10 -7 -10 -10 -1 -16 6 -4 16 -3 22 3 13 13 -4 23 -21
13z"/>
<path d="M102 8696 c1 -10 8 -17 13 -17 15 1 12 24 -3 29 -9 3 -13 -2 -10 -12z"/>
<path d="M15270 8681 c0 -5 5 -13 10 -16 6 -3 10 -2 10 4 0 5 -4 13 -10 16 -5
3 -10 2 -10 -4z"/>
<path d="M5 8659 c-3 -3 5 -9 16 -12 23 -6 49 1 49 12 0 10 -60 10 -65 0z"/>
<path d="M760 8650 c0 -5 5 -10 11 -10 5 0 7 5 4 10 -3 6 -8 10 -11 10 -2 0
-4 -4 -4 -10z"/>
<path d="M80 8626 c0 -13 -8 -27 -17 -30 -12 -5 -14 -9 -5 -18 6 -6 14 -9 18
-6 11 11 22 78 13 78 -5 0 -9 -11 -9 -24z"/>
<path d="M15240 8630 c0 -5 5 -10 10 -10 6 0 10 5 10 10 0 6 -4 10 -10 10 -5
0 -10 -4 -10 -10z"/>
<path d="M0 8610 c0 -19 3 -21 12 -12 9 9 9 15 0 24 -9 9 -12 7 -12 -12z"/>
<path d="M790 8621 c0 -8 18 -22 71 -56 8 -5 47 -30 85 -55 38 -25 76 -49 85
-55 38 -24 79 -53 149 -108 41 -33 81 -62 89 -65 8 -3 22 -12 30 -19 55 -49
171 -123 171 -109 0 5 -218 163 -308 223 -35 24 -89 62 -120 86 -66 51 -238
167 -246 167 -3 0 -6 -4 -6 -9z"/>
<path d="M115 8600 c3 -5 8 -10 11 -10 2 0 4 5 4 10 0 6 -5 10 -11 10 -5 0 -7
-4 -4 -10z"/>
<path d="M21 8514 c0 -11 3 -14 6 -6 3 7 2 16 -1 19 -3 4 -6 -2 -5 -13z"/>
<path d="M71 8514 c0 -11 3 -14 6 -6 3 7 2 16 -1 19 -3 4 -6 -2 -5 -13z"/>
<path d="M310 8490 c0 -5 5 -10 11 -10 5 0 7 5 4 10 -3 6 -8 10 -11 10 -2 0
-4 -4 -4 -10z"/>
<path d="M80 8460 c0 -13 11 -13 30 0 12 8 11 10 -7 10 -13 0 -23 -4 -23 -10z"/>
<path d="M2 8440 c0 -14 2 -19 5 -12 2 6 2 18 0 25 -3 6 -5 1 -5 -13z"/>
<path d="M46 8401 c-3 -5 1 -12 10 -15 20 -8 29 -1 19 13 -8 13 -22 14 -29 2z"/>
<path d="M0 8289 c0 -5 5 -7 10 -4 5 3 10 8 10 11 0 2 -4 4 -10 4 -5 0 -10 -5
-10 -11z"/>
<path d="M75 8250 c-3 -5 -1 -10 4 -10 6 0 11 5 11 10 0 6 -2 10 -4 10 -3 0
-8 -4 -11 -10z"/>
<path d="M13809 8102 c-177 -123 -260 -184 -255 -190 4 -4 97 60 143 98 7 6
14 10 17 10 10 0 96 61 96 68 0 4 13 13 29 20 25 11 113 83 100 82 -2 -1 -61
-40 -130 -88z"/>
<path d="M1490 8136 c0 -7 126 -101 188 -141 27 -17 36 -24 77 -60 22 -19 44
-35 49 -35 4 0 36 -19 70 -43 33 -23 68 -46 76 -51 33 -17 -52 49 -163 127
-65 45 -151 106 -190 135 -75 55 -107 76 -107 68z"/>
<path d="M13525 7900 c-3 -5 -1 -10 4 -10 6 0 11 5 11 10 0 6 -2 10 -4 10 -3
0 -8 -4 -11 -10z"/>
<path d="M13451 7850 c-28 -22 -53 -40 -56 -40 -3 0 -65 -43 -138 -95 -72 -52
-145 -104 -162 -115 -16 -12 -92 -65 -167 -118 -76 -53 -221 -155 -323 -226
-102 -71 -183 -132 -180 -134 3 -3 13 2 23 11 10 10 22 17 26 17 4 0 12 5 19
11 10 9 85 62 297 211 25 17 83 58 130 89 47 32 103 72 125 88 22 17 54 40 70
51 17 11 41 27 54 37 13 10 34 25 47 33 111 73 294 208 294 216 0 9 -11 2 -59
-36z"/>
<path d="M2080 7714 c0 -5 18 -20 39 -33 22 -13 54 -37 73 -52 18 -16 38 -29
44 -29 7 0 14 -6 17 -14 3 -7 15 -16 26 -19 34 -9 14 10 -75 71 -47 31 -94 63
-105 71 -10 7 -19 10 -19 5z"/>
<path d="M2323 7543 c24 -28 96 -77 102 -71 3 3 -23 24 -57 48 -35 24 -55 34
-45 23z"/>
<path d="M2450 7450 c8 -5 20 -10 25 -10 6 0 3 5 -5 10 -8 5 -19 10 -25 10 -5
0 -3 -5 5 -10z"/>
<path d="M2497 7419 c16 -20 182 -134 187 -128 2 2 -32 29 -76 59 -44 30 -90
62 -102 70 -19 13 -20 13 -9 -1z"/>
<path d="M2720 7266 c19 -25 90 -76 104 -76 6 0 -6 11 -27 24 -21 13 -50 34
-65 47 -17 15 -21 17 -12 5z"/>
<path d="M2879 7147 c7 -9 36 -30 65 -47 l51 -31 -35 31 c-19 17 -48 39 -65
47 -28 15 -29 15 -16 0z"/>
<path d="M12379 7093 c-13 -16 -12 -17 4 -4 9 7 17 15 17 17 0 8 -8 3 -21 -13z"/>
<path d="M3005 7060 c3 -5 11 -10 16 -10 6 0 7 5 4 10 -3 6 -11 10 -16 10 -6
0 -7 -4 -4 -10z"/>
<path d="M12304 7044 c-18 -14 -18 -15 4 -4 12 6 22 13 22 15 0 8 -5 6 -26
-11z"/>
<path d="M3067 7019 c12 -12 25 -20 28 -17 3 3 -7 13 -22 23 l-28 17 22 -23z"/>
<path d="M12220 6984 c-58 -46 -61 -50 -25 -31 25 13 87 68 74 66 -2 0 -24
-16 -49 -35z"/>
<path d="M12140 6925 c-11 -13 -10 -14 4 -9 9 3 16 10 16 15 0 13 -6 11 -20
-6z"/>
<path d="M3290 6861 c0 -5 7 -11 14 -14 10 -4 13 -1 9 9 -6 15 -23 19 -23 5z"/>
<path d="M3350 6815 c13 -14 26 -23 28 -20 6 6 -33 45 -44 45 -4 0 3 -11 16
-25z"/>
<path d="M11984 6814 c-18 -14 -18 -15 4 -4 12 6 22 13 22 15 0 8 -5 6 -26
-11z"/>
<path d="M3425 6765 c17 -14 39 -31 50 -36 11 -6 7 2 -10 16 -16 14 -39 31
-50 36 -11 6 -6 -2 10 -16z"/>
<path d="M11810 6694 c-36 -25 -82 -56 -102 -70 -21 -13 -38 -26 -38 -29 0 -8
41 17 85 51 22 17 54 38 71 47 26 13 64 47 53 47 -2 0 -33 -21 -69 -46z"/>
<path d="M11630 6569 c-22 -18 -22 -19 -3 -10 12 6 25 16 28 21 9 15 3 12 -25
-11z"/>
<path d="M3750 6538 c0 -9 101 -80 106 -75 3 3 -14 18 -38 34 -53 36 -68 45
-68 41z"/>
<path d="M11550 6509 l-35 -30 38 26 c33 24 43 35 34 35 -1 0 -18 -14 -37 -31z"/>
<path d="M3870 6454 c1 -9 151 -115 174 -123 6 -2 -25 22 -69 54 -44 31 -86
62 -92 67 -7 6 -13 7 -13 2z"/>
<path d="M11405 6409 c-39 -28 -77 -55 -85 -59 -8 -5 -12 -11 -9 -15 5 -4 125
80 164 116 24 23 -7 4 -70 -42z"/>
<path d="M11275 6320 c-3 -6 1 -7 9 -4 18 7 21 14 7 14 -6 0 -13 -4 -16 -10z"/>
<path d="M11139 6219 l-24 -20 28 17 c15 9 27 18 27 20 0 8 -8 4 -31 -17z"/>
<path d="M10940 6085 c-160 -115 -190 -137 -190 -142 0 -3 10 2 23 11 12 8 65
45 117 81 111 75 149 105 135 104 -5 0 -44 -25 -85 -54z"/>
<path d="M4380 6090 c0 -5 5 -10 11 -10 5 0 7 5 4 10 -3 6 -8 10 -11 10 -2 0
-4 -4 -4 -10z"/>
<path d="M4424 6061 c4 -6 16 -16 28 -22 15 -8 18 -8 14 0 -4 6 -16 16 -28 22
-15 8 -18 8 -14 0z"/>
<path d="M4515 5995 c20 -15 39 -24 42 -22 5 5 -60 47 -72 47 -4 0 9 -11 30
-25z"/>
<path d="M10702 5913 c-24 -24 -24 -25 -2 -8 42 33 44 35 37 35 -4 0 -19 -12
-35 -27z"/>
<path d="M7955 5907 c23 -16 55 -28 55 -22 0 6 -56 35 -67 35 -4 0 1 -6 12
-13z"/>
<path d="M8030 5872 c0 -9 59 -46 65 -40 2 2 -12 13 -31 26 -19 12 -34 19 -34
14z"/>
<path d="M4822 5784 c10 -10 20 -15 24 -12 3 4 -5 12 -18 18 -22 12 -22 12 -6
-6z"/>
<path d="M10494 5764 c-18 -14 -18 -15 4 -4 12 6 22 13 22 15 0 8 -5 6 -26
-11z"/>
<path d="M4875 5752 c18 -18 145 -111 168 -123 30 -15 14 -1 -58 52 -66 49
-126 87 -110 71z"/>
<path d="M10425 5720 c-3 -5 -1 -10 4 -10 6 0 11 5 11 10 0 6 -2 10 -4 10 -3
0 -8 -4 -11 -10z"/>
<path d="M10365 5675 c-16 -13 -25 -24 -19 -25 6 0 21 11 34 25 30 32 24 32
-15 0z"/>
<path d="M10270 5609 l-35 -30 38 22 c37 21 56 39 40 39 -4 0 -24 -14 -43 -31z"/>
<path d="M10170 5540 c-64 -46 -60 -54 5 -10 37 26 64 51 53 50 -2 0 -28 -18
-58 -40z"/>
<path d="M8525 5510 c3 -5 20 -19 38 -31 l32 -21 -34 31 c-34 31 -47 39 -36
21z"/>
<path d="M6770 5480 c-8 -5 -12 -11 -9 -14 3 -3 14 1 25 9 21 16 8 20 -16 5z"/>
<path d="M10030 5439 c-78 -57 -86 -69 -13 -20 34 22 65 45 68 51 9 15 5 12
-55 -31z"/>
<path d="M5290 5456 c0 -2 7 -7 16 -10 8 -3 12 -2 9 4 -6 10 -25 14 -25 6z"/>
<path d="M8607 5449 c7 -7 15 -10 18 -7 3 3 -2 9 -12 12 -14 6 -15 5 -6 -5z"/>
<path d="M6709 5433 c-13 -17 -13 -17 6 -3 11 8 22 16 24 17 2 2 0 3 -6 3 -6
0 -17 -8 -24 -17z"/>
<path d="M8664 5405 c16 -14 34 -25 39 -25 6 0 -4 11 -23 25 -44 32 -53 32
-16 0z"/>
<path d="M5382 5394 c10 -10 20 -16 22 -13 3 3 -5 11 -17 18 -21 13 -21 12 -5
-5z"/>
<path d="M5640 5210 c0 -5 5 -10 11 -10 5 0 7 5 4 10 -3 6 -8 10 -11 10 -2 0
-4 -4 -4 -10z"/>
<path d="M8930 5210 c0 -6 7 -10 15 -10 8 0 15 2 15 4 0 2 -7 6 -15 10 -8 3
-15 1 -15 -4z"/>
<path d="M9695 5210 c-3 -5 -1 -10 4 -10 6 0 11 5 11 10 0 6 -2 10 -4 10 -3 0
-8 -4 -11 -10z"/>
<path d="M8970 5186 c0 -2 7 -7 16 -10 8 -3 12 -2 9 4 -6 10 -25 14 -25 6z"/>
<path d="M5946 5133 c-6 -14 -5 -15 5 -6 7 7 10 15 7 18 -3 3 -9 -2 -12 -12z"/>
<path d="M6290 5125 c-11 -13 -10 -14 4 -9 9 3 16 10 16 15 0 13 -6 11 -20 -6z"/>
<path d="M6232 5086 c-41 -29 -48 -36 -36 -36 5 0 25 13 44 30 42 35 38 38 -8
6z"/>
<path d="M5814 4778 l-19 -23 23 19 c12 11 22 21 22 23 0 8 -8 2 -26 -19z"/>
<path d="M9575 4740 c10 -11 20 -20 23 -20 3 0 -3 9 -13 20 -10 11 -20 20 -23
20 -3 0 3 -9 13 -20z"/>
<path d="M9610 4716 c0 -2 8 -10 18 -17 15 -13 16 -12 3 4 -13 16 -21 21 -21
13z"/>
<path d="M5704 4694 c-18 -14 -18 -15 4 -4 12 6 22 13 22 15 0 8 -5 6 -26 -11z"/>
<path d="M5599 4620 c-13 -10 -20 -19 -16 -20 4 0 17 9 29 20 28 26 17 26 -13
0z"/>
<path d="M5469 4523 c-13 -16 -12 -17 4 -4 16 13 21 21 13 21 -2 0 -10 -8 -17
-17z"/>
<path d="M9937 4469 c7 -7 15 -10 18 -7 3 3 -2 9 -12 12 -14 6 -15 5 -6 -5z"/>
<path d="M5339 4432 c-25 -20 -59 -47 -75 -60 l-29 -23 30 18 c36 21 135 94
135 99 0 10 -19 0 -61 -34z"/>
<path d="M5169 4303 c-13 -16 -12 -17 4 -4 9 7 17 15 17 17 0 8 -8 3 -21 -13z"/>
<path d="M10210 4275 c7 -9 15 -13 17 -11 7 7 -7 26 -19 26 -6 0 -6 -6 2 -15z"/>
<path d="M10252 4244 c9 -10 32 -28 50 -38 39 -22 29 -11 -27 29 -23 17 -33
21 -23 9z"/>
<path d="M5005 4185 c-16 -14 -25 -25 -19 -25 6 0 21 11 34 25 30 32 24 31
-15 0z"/>
<path d="M10355 4170 c10 -11 20 -20 23 -20 3 0 -3 9 -13 20 -10 11 -20 20
-23 20 -3 0 3 -9 13 -20z"/>
<path d="M4905 4110 c-16 -11 -25 -20 -19 -20 11 0 64 39 54 40 -3 0 -18 -9
-35 -20z"/>
<path d="M10500 4067 c0 -2 15 -14 33 -27 20 -15 27 -17 18 -6 -13 16 -51 41
-51 33z"/>
<path d="M10610 3983 c0 -5 14 -17 30 -26 17 -10 30 -16 30 -13 0 2 -13 14
-30 26 -16 12 -30 18 -30 13z"/>
<path d="M10681 3927 c2 -2 18 -11 34 -21 l30 -17 -24 20 c-13 12 -28 21 -34
21 -6 0 -8 -1 -6 -3z"/>
<path d="M4550 3853 c-52 -36 -61 -50 -15 -23 46 27 60 38 54 43 -2 2 -20 -7
-39 -20z"/>
<path d="M10825 3820 c3 -5 11 -10 16 -10 6 0 7 5 4 10 -3 6 -11 10 -16 10 -6
0 -7 -4 -4 -10z"/>
<path d="M4460 3785 c-11 -13 -10 -14 4 -9 9 3 16 10 16 15 0 13 -6 11 -20 -6z"/>
<path d="M4365 3714 c-19 -15 -22 -21 -9 -15 18 9 52 41 43 41 -2 0 -17 -12
-34 -26z"/>
<path d="M10970 3716 c0 -2 7 -7 16 -10 8 -3 12 -2 9 4 -6 10 -25 14 -25 6z"/>
<path d="M11032 3674 c10 -10 20 -16 22 -13 3 3 -5 11 -17 18 -21 13 -21 12
-5 -5z"/>
<path d="M4218 3612 c-43 -31 -76 -58 -74 -60 5 -4 156 106 156 113 0 7 2 8
-82 -53z"/>
<path d="M11134 3601 c7 -11 46 -35 46 -28 0 3 -12 12 -26 22 -15 9 -23 12
-20 6z"/>
<path d="M4066 3505 c-16 -12 -17 -15 -4 -15 9 0 18 7 22 15 7 18 6 18 -18 0z"/>
<path d="M3995 3447 c-127 -92 -245 -179 -245 -183 0 -7 35 10 49 23 7 8 43
33 80 58 59 39 164 125 151 124 -3 -1 -19 -10 -35 -22z"/>
<path d="M11330 3451 c14 -11 39 -31 55 -45 17 -14 34 -26 38 -26 5 0 -15 20
-45 45 -29 24 -57 45 -63 44 -5 0 1 -8 15 -18z"/>
<path d="M3555 3127 c-173 -126 -268 -197 -290 -215 -6 -5 -24 -17 -40 -28
-17 -10 -88 -62 -160 -114 -71 -53 -186 -136 -254 -186 -68 -49 -146 -105
-172 -124 -27 -19 -102 -73 -166 -119 -65 -47 -171 -123 -235 -170 -152 -112
-286 -209 -408 -296 -374 -268 -598 -432 -610 -446 -3 -4 -19 -15 -35 -25 -17
-11 -102 -71 -189 -134 -167 -121 -239 -173 -358 -256 -73 -51 -322 -227 -447
-316 -36 -27 -89 -63 -116 -82 -58 -39 -79 -60 -73 -76 2 -7 19 2 38 19 39 34
52 39 44 16 -4 -10 0 -15 10 -15 13 0 15 4 7 19 -13 23 8 45 32 35 9 -3 14 0
14 8 -1 7 3 15 8 17 6 3 19 13 30 23 11 10 30 21 42 24 13 4 23 12 23 18 0 7
11 19 25 26 14 7 25 17 25 22 0 5 10 6 21 3 13 -4 19 -3 16 2 -4 6 5 21 18 33
14 13 25 20 25 17 0 -4 11 0 25 9 14 9 25 21 25 28 0 6 18 19 40 29 22 9 40
21 40 26 0 5 13 14 28 20 16 7 46 27 68 46 21 19 42 35 46 35 9 0 99 61 113
76 5 6 41 33 79 60 38 26 83 61 100 76 17 16 41 31 54 34 12 4 22 9 22 13 0 4
27 25 60 47 33 21 60 42 60 47 0 4 5 7 11 7 10 0 73 46 119 88 14 13 39 30 55
39 17 9 32 19 35 22 10 13 254 194 309 229 31 20 101 70 156 112 55 42 113 85
129 95 16 11 41 29 56 40 15 11 54 38 86 60 33 21 61 42 64 45 12 14 138 108
173 128 22 12 55 36 75 52 76 61 253 190 261 190 5 0 11 4 13 8 2 5 35 30 73
57 39 26 91 64 117 84 25 20 81 61 123 91 43 30 143 104 224 164 80 60 197
145 259 190 198 142 217 156 242 181 13 14 22 25 20 25 -3 -1 -86 -60 -185
-133z"/>
<path d="M11703 3180 c14 -11 28 -20 32 -20 4 0 -4 9 -18 20 -14 11 -28 20
-32 20 -4 0 4 -9 18 -20z"/>
<path d="M11750 3143 c0 -4 19 -19 43 -32 23 -13 37 -18 30 -10 -16 19 -73 52
-73 42z"/>
<path d="M11841 3077 c2 -1 13 -9 24 -17 19 -14 19 -14 6 3 -7 9 -18 17 -24
17 -6 0 -8 -1 -6 -3z"/>
<path d="M11920 3026 c0 -3 9 -10 20 -16 11 -6 20 -8 20 -6 0 3 -9 10 -20 16
-11 6 -20 8 -20 6z"/>
<path d="M2928 3013 c7 -3 16 -2 19 1 4 3 -2 6 -13 5 -11 0 -14 -3 -6 -6z"/>
<path d="M12030 2946 c0 -8 161 -128 165 -124 3 2 -28 29 -68 59 -79 61 -97
73 -97 65z"/>
<path d="M2690 2850 c0 -5 5 -10 10 -10 6 0 10 5 10 10 0 6 -4 10 -10 10 -5 0
-10 -4 -10 -10z"/>
<path d="M12210 2806 c0 -2 7 -7 16 -10 8 -3 12 -2 9 4 -6 10 -25 14 -25 6z"/>
<path d="M12280 2762 c0 -10 80 -66 85 -60 1 2 -17 18 -41 36 -24 18 -44 29
-44 24z"/>
<path d="M12385 2683 c18 -18 139 -108 176 -131 70 -43 52 -21 -35 41 -92 65
-158 107 -141 90z"/>
<path d="M12680 2471 c19 -16 37 -28 39 -25 5 5 -24 29 -54 45 -11 6 -4 -3 15
-20z"/>
<path d="M12825 2368 c6 -15 45 -42 45 -31 0 5 -12 16 -25 26 -16 11 -23 13
-20 5z"/>
<path d="M12907 2303 c33 -29 93 -68 93 -60 0 6 -86 69 -110 81 -8 4 -1 -5 17
-21z"/>
<path d="M1816 2224 c-9 -23 -2 -28 13 -10 7 8 8 17 3 20 -6 3 -13 -1 -16 -10z"/>
<path d="M13130 2153 c0 -9 40 -36 45 -31 2 2 -8 11 -21 21 -13 10 -24 14 -24
10z"/>
<path d="M13208 2084 c86 -69 249 -179 217 -146 -23 23 -212 159 -230 165 -12
5 -7 -3 13 -19z"/>
<path d="M13460 1906 c14 -15 39 -35 55 -43 17 -9 35 -22 40 -30 6 -8 20 -19
32 -26 12 -7 47 -29 78 -50 31 -22 58 -37 61 -35 4 5 -102 84 -178 133 -25 16
-61 41 -80 54 l-33 25 25 -28z"/>
<path d="M13765 1685 c63 -54 194 -155 203 -155 8 0 47 -28 102 -73 8 -7 47
-35 85 -62 39 -27 72 -53 73 -57 2 -5 8 -8 14 -8 6 0 22 -10 37 -22 15 -13 38
-31 52 -40 13 -10 62 -46 108 -80 46 -35 104 -78 129 -97 25 -18 56 -44 69
-57 13 -13 28 -24 32 -24 18 0 132 -91 126 -100 -3 -6 1 -7 9 -4 9 3 16 2 16
-3 0 -5 21 -20 46 -32 30 -15 42 -26 34 -31 -7 -4 -20 -6 -29 -3 -9 2 -25 -6
-36 -19 -19 -21 -19 -22 -1 -8 37 29 141 12 121 -20 -3 -5 -1 -18 5 -27 9 -16
10 -15 5 5 -9 31 4 28 65 -18 29 -22 50 -40 47 -40 -4 0 0 -12 9 -27 14 -25
13 -24 -16 6 -29 30 -31 31 -25 10 4 -13 13 -31 20 -39 7 -8 10 -21 7 -29 -3
-8 0 -11 7 -7 6 4 11 2 11 -3 0 -6 -3 -11 -7 -11 -14 0 -34 17 -32 26 3 19 -1
34 -11 34 -19 0 -10 -37 15 -60 32 -30 35 -62 3 -34 -12 10 -18 13 -14 6 5 -8
1 -21 -10 -33 -21 -24 -11 -38 11 -15 22 21 36 20 42 -4 6 -22 18 -26 28 -10
8 13 25 13 25 -1 0 -6 -9 -13 -20 -16 -11 -3 -19 -12 -18 -21 5 -26 -21 -25
-28 2 -6 24 -24 37 -24 17 0 -5 -9 -11 -19 -14 -15 -3 -20 2 -25 25 -7 35 -1
48 22 48 12 0 13 3 5 11 -21 21 -46 -16 -41 -61 2 -22 0 -40 -5 -40 -5 0 -1
-7 7 -16 20 -19 20 -25 1 -18 -11 5 -13 2 -9 -11 5 -13 3 -16 -7 -13 -8 3 -13
16 -12 29 1 13 -1 18 -3 11 -3 -6 -10 -10 -15 -7 -5 4 -6 -2 -2 -11 5 -13 3
-16 -10 -11 -12 4 -17 1 -17 -9 0 -10 -6 -14 -14 -11 -9 4 -17 -1 -19 -11 -4
-16 -5 -15 -6 1 0 9 -6 17 -12 17 -6 0 -9 -14 -7 -32 2 -26 -1 -33 -17 -36
-17 -2 -17 -1 -5 7 13 10 13 12 0 21 -12 8 -13 12 -2 19 11 7 11 9 -1 14 -8 3
-20 0 -26 -6 -6 -6 -20 -11 -31 -12 -16 -1 -23 6 -27 27 -3 15 -9 28 -13 28
-12 0 -21 -46 -13 -66 4 -12 2 -15 -8 -12 -8 3 -14 11 -14 18 0 7 -6 15 -13
18 -7 2 -11 -2 -10 -10 2 -8 -5 -12 -19 -11 -24 3 -31 -11 -12 -23 19 -11 -13
-24 -63 -24 -26 0 -49 4 -53 9 -3 6 -18 16 -34 24 -27 13 -28 13 -24 -12 4
-25 4 -26 -12 -6 -13 16 -17 17 -24 6 -5 -8 -16 -11 -25 -8 -10 4 -16 1 -16
-8 0 -8 -4 -15 -10 -15 -5 0 -10 5 -10 10 0 6 -7 10 -15 10 -8 0 -15 5 -15 10
0 6 -4 10 -10 10 -5 0 -10 -7 -10 -15 0 -8 5 -15 12 -15 27 0 -3 -11 -40 -15
-37 -4 -40 -2 -36 18 5 22 5 22 -5 1 -9 -20 -13 -21 -58 -12 -53 10 -242 4
-270 -9 -10 -5 -35 -8 -55 -8 -21 0 -38 -3 -38 -7 0 -17 -22 -7 -27 12 -4 17
-8 17 -27 6 -23 -14 -35 -15 -54 -2 -7 4 -18 4 -25 -1 -14 -9 -94 -9 -152 1
-31 5 -35 4 -17 -3 12 -6 22 -13 22 -16 0 -9 -104 7 -111 17 -3 5 -9 -1 -13
-14 -5 -19 -8 -20 -16 -8 -8 13 -11 13 -19 1 -5 -7 -14 -10 -20 -7 -6 4 -11 1
-11 -6 -1 -8 -6 -6 -14 5 -12 15 -18 16 -35 8 -13 -7 -28 -8 -45 -1 -29 11
-63 12 -181 5 -174 -9 -307 -11 -311 -3 -3 4 -13 4 -22 -1 -9 -4 -23 -6 -29
-4 -7 3 -13 0 -13 -5 0 -12 -73 -10 -82 2 -4 6 -37 6 -88 0 -45 -5 -84 -6 -86
-2 -3 5 -14 4 -24 -2 -25 -13 -51 -13 -30 0 8 5 13 10 10 10 -82 6 -176 6
-150 1 35 -7 35 -8 8 -15 -14 -4 -66 -3 -115 3 -48 6 -101 11 -118 10 -26 0
-27 -2 -10 -9 17 -7 14 -9 -13 -9 -18 -1 -31 2 -29 7 3 4 -8 7 -25 8 -16 1
-25 -2 -19 -5 5 -4 -67 -6 -162 -5 -95 1 -177 -2 -183 -7 -6 -5 -25 -4 -45 1
-19 6 -35 6 -37 1 -2 -6 -104 -6 -161 1 -3 0 -8 -1 -11 -2 -16 -8 -66 -5 -72
4 -6 7 -11 6 -18 -4 -9 -13 -11 -13 -19 -1 -8 12 -12 12 -25 2 -12 -11 -16
-11 -16 -1 0 10 -3 10 -14 0 -11 -9 -56 -10 -174 -4 -150 6 -160 6 -170 -12
-10 -16 -11 -17 -12 -2 0 13 -12 17 -55 20 -30 1 -55 1 -55 -2 0 -3 -43 -5
-95 -4 -52 1 -98 -2 -101 -7 -3 -5 -13 -5 -22 -1 -9 5 -93 8 -187 7 -104 -1
-175 2 -183 8 -9 7 -17 6 -28 -4 -11 -12 -28 -13 -95 -5 -66 7 -83 6 -89 -5
-7 -11 -10 -10 -16 5 -5 13 -9 15 -15 5 -6 -10 -65 -13 -265 -11 -193 1 -260
-2 -266 -11 -5 -9 -14 -8 -35 5 -25 14 -36 15 -88 4 -33 -6 -77 -9 -98 -5 -41
6 -83 5 -148 -6 -22 -4 -39 -3 -39 3 0 10 -132 8 -149 -2 -5 -4 -12 -2 -16 4
-10 17 -53 12 -58 -8 -3 -12 -5 -10 -6 7 -1 23 -2 24 -21 6 -18 -16 -24 -14
-21 7 0 4 -15 0 -35 -8 -20 -8 -33 -10 -29 -5 8 13 3 14 -29 1 -16 -6 -27 -6
-31 0 -9 14 -72 12 -78 -2 -4 -10 -6 -10 -6 -1 -1 7 -7 10 -15 7 -8 -3 -17 -1
-21 5 -10 16 -23 13 -28 -7 -4 -16 -5 -16 -6 1 -1 21 -21 23 -21 2 0 -13 -3
-13 -20 -3 -17 11 -22 10 -30 -2 -6 -10 -10 -11 -10 -2 0 14 -36 16 -45 2 -10
-17 -35 -11 -35 8 -1 16 -2 15 -15 -2 -12 -15 -17 -17 -29 -7 -8 7 -20 10 -25
6 -6 -3 -20 -1 -31 5 -11 6 -20 7 -20 3 0 -4 -23 -9 -50 -11 -39 -2 -52 1 -56
13 -6 14 -8 13 -21 -4 -11 -17 -17 -19 -33 -9 -14 9 -22 9 -34 -2 -9 -7 -19
-10 -23 -6 -3 3 -1 6 5 6 7 0 12 7 12 17 0 14 -2 14 -21 -3 -17 -15 -23 -16
-40 -6 -16 10 -19 10 -19 -4 0 -12 -3 -14 -12 -6 -21 17 -62 18 -76 2 -11 -13
-11 -13 -7 1 5 12 -1 16 -25 16 -16 0 -30 -4 -30 -8 0 -4 -13 -2 -29 4 -17 6
-35 7 -47 1 -22 -10 -304 -12 -304 -2 0 3 6 9 13 12 6 3 1 3 -13 0 -14 -4 -28
-11 -31 -16 -4 -6 -9 -6 -13 1 -5 8 -13 8 -26 1 -13 -7 -21 -7 -25 0 -4 6 -11
8 -16 4 -5 -3 -7 -10 -4 -15 4 -5 1 -9 -5 -9 -7 0 -9 8 -4 22 6 20 5 21 -10 9
-13 -11 -19 -11 -31 -1 -10 9 -15 9 -15 1 0 -6 5 -11 11 -11 5 0 7 -5 4 -10
-11 -18 -25 -11 -25 13 0 18 -2 19 -10 7 -7 -12 -13 -13 -27 -4 -14 9 -21 8
-32 -3 -15 -16 -108 -16 -128 0 -9 7 -13 5 -13 -7 0 -20 -9 -20 -29 -2 -16 15
-71 11 -71 -4 0 -5 -15 -4 -32 1 -42 12 -61 12 -53 -1 4 -7 -3 -7 -20 0 -33
13 -102 13 -107 1 -2 -6 -28 -7 -63 -3 -33 4 -76 5 -96 2 -20 -4 -44 -3 -55 1
-25 10 -117 10 -177 0 -45 -7 -47 -7 -42 13 4 12 3 17 -2 11 -21 -26 -48 -32
-72 -16 -18 12 -26 12 -29 3 -2 -7 -8 -10 -13 -7 -5 3 -18 1 -29 -5 -15 -8
-18 -8 -15 2 3 8 -4 14 -20 14 -14 1 -25 -2 -25 -7 0 -5 5 -9 12 -9 6 0 9 -2
6 -5 -7 -7 -60 16 -70 30 -5 7 -8 6 -8 -1 0 -6 -16 -11 -36 -12 -20 -1 -39 -4
-42 -7 -3 -3 -12 1 -20 7 -11 10 -18 8 -33 -10 -18 -23 -18 -23 -29 -2 -13 24
-35 26 -44 4 -5 -13 -9 -14 -20 -5 -8 7 -32 11 -53 10 -89 -3 -353 0 -428 6
-44 3 -144 2 -222 -3 -83 -5 -185 -5 -245 0 -91 7 -104 6 -115 -8 -10 -14 -15
-15 -27 -5 -8 7 -36 11 -63 10 -27 -1 -54 0 -59 4 -5 3 -16 2 -24 -3 -10 -6
-21 -3 -32 7 -10 9 -18 12 -18 6 0 -6 -35 -8 -92 -6 -195 8 -384 8 -396 -1 -7
-5 -17 -4 -25 2 -10 9 -52 10 -52 2 0 -8 -152 -7 -165 0 -10 5 -21 6 -25 2 -4
-4 -31 -7 -61 -7 -39 0 -54 4 -54 14 0 10 -4 11 -12 3 -7 -5 -39 -13 -71 -17
-49 -6 -57 -5 -57 9 0 9 -4 16 -10 16 -5 0 -10 -4 -10 -10 0 -6 -30 -8 -80 -4
-44 3 -80 2 -80 -3 0 -4 -11 -9 -25 -9 -14 -1 -25 2 -25 7 0 10 -85 7 -96 -3
-3 -4 -15 -2 -25 5 -14 9 -26 9 -50 0 -18 -7 -37 -10 -42 -6 -6 3 -77 7 -158
9 -81 1 -152 4 -157 8 -6 3 -13 0 -15 -6 -4 -10 -8 -9 -16 2 -10 13 -12 13
-21 0 -5 -8 -10 -10 -10 -4 0 7 -15 9 -46 4 -26 -4 -61 -4 -78 -1 -17 3 -44 6
-61 5 -132 -7 -157 -9 -162 -17 -3 -5 -12 2 -21 14 -14 20 -16 21 -28 5 -11
-16 -13 -16 -22 1 -10 17 -11 17 -17 1 -7 -17 -35 -26 -35 -10 0 13 -113 18
-210 8 -25 -3 -37 -3 -27 0 21 7 23 24 1 24 -9 0 -18 -9 -21 -20 -7 -25 -12
-25 -29 -3 -13 17 -13 17 -14 1 0 -19 -20 -26 -20 -8 0 6 -33 10 -77 11 -43 0
-100 4 -126 8 -26 4 -50 4 -53 0 -2 -4 -14 -6 -27 -3 -12 3 -44 7 -72 11 -27
3 -58 10 -67 15 -11 5 -18 5 -18 -1 0 -15 -62 -20 -114 -9 -36 8 -54 7 -72 -2
-19 -11 -26 -11 -39 0 -8 7 -27 10 -42 7 -25 -5 -26 -4 -10 8 13 9 15 15 6 20
-6 4 -15 2 -19 -5 -10 -15 -80 -5 -80 12 0 6 -3 9 -6 6 -3 -4 0 -17 6 -30 9
-19 7 -18 -15 6 -24 26 -28 28 -37 13 -11 -21 -29 -23 -22 -2 7 17 -11 21 -21
5 -8 -13 -45 -13 -45 0 0 6 -4 10 -10 10 -5 0 -10 -7 -10 -16 0 -13 -7 -11
-36 11 -19 15 -38 24 -42 20 -4 -4 -1 -10 6 -12 6 -3 9 -9 6 -14 -3 -6 -16 -3
-31 6 -18 12 -28 14 -36 6 -16 -16 -27 -13 -27 7 -1 16 -1 16 -14 0 -16 -21
-66 -24 -66 -4 0 17 -71 30 -81 14 -4 -6 -12 -7 -19 -3 -9 5 -4 12 16 20 l29
12 -24 7 c-13 5 -27 4 -34 -3 -16 -16 -47 -14 -47 3 0 16 -21 26 -57 26 -22 0
-25 -4 -21 -25 3 -14 1 -28 -5 -32 -5 -3 -7 -1 -3 5 3 6 2 13 -4 17 -5 3 -10
16 -10 28 0 22 0 22 -19 -2 l-18 -24 -6 24 c-4 13 -7 35 -8 49 -1 17 -3 19 -6
8 -5 -18 -23 -25 -23 -9 0 5 -13 14 -30 20 -16 5 -30 17 -30 25 0 9 -4 16 -10
16 -5 0 -10 -9 -10 -20 0 -28 -29 -25 -40 5 -11 28 -33 35 -23 7 5 -15 4 -15
-8 1 -14 17 -16 17 -41 -6 l-27 -25 -1 -251 0 -251 7680 0 7680 0 0 268 0 268
-42 35 c-24 20 -56 44 -73 55 -16 10 -32 21 -35 25 -3 4 -35 27 -73 53 -80 54
-128 89 -358 256 -94 69 -181 132 -193 140 -11 8 -46 33 -76 56 -30 24 -76 57
-101 76 -26 18 -72 52 -102 75 -30 23 -90 66 -134 96 -92 63 -193 135 -318
227 -98 73 -138 97 -90 55z m1393 -1025 c12 -11 26 -20 32 -20 5 0 10 -4 10
-10 0 -18 -29 -11 -40 10 -6 11 -17 20 -25 20 -8 0 -15 5 -15 10 0 16 14 12
38 -10z m-25 -17 c-7 -2 -19 -2 -25 0 -7 3 -2 5 12 5 14 0 19 -2 13 -5z m117
-68 c-7 -8 -17 -15 -23 -15 -6 0 -2 7 9 15 25 19 30 19 14 0z m-130 -20 c0 -8
-2 -15 -4 -15 -2 0 -6 7 -10 15 -3 8 -1 15 4 15 6 0 10 -7 10 -15z m-15060
-45 c0 -5 -4 -10 -10 -10 -5 0 -10 5 -10 10 0 6 5 10 10 10 6 0 10 -4 10 -10z
m125 -40 c3 -5 -1 -10 -9 -10 -9 0 -16 5 -16 10 0 6 4 10 9 10 6 0 13 -4 16
-10z m14864 -7 c-7 -10 -14 -20 -16 -22 -1 -2 -1 6 0 18 1 11 8 21 15 21 12 0
12 -3 1 -17z m120 3 c8 -10 9 -16 1 -21 -5 -3 -13 1 -16 9 -3 9 -10 13 -15 10
-5 -3 -9 0 -9 5 0 16 26 13 39 -3z m-14929 -15 c0 -10 -60 -24 -68 -16 -3 3 2
5 11 5 10 0 17 5 17 10 0 6 9 10 20 10 11 0 20 -4 20 -9z m14838 -22 c-2 -6
-8 -10 -13 -10 -5 0 -11 4 -13 10 -2 6 4 11 13 11 9 0 15 -5 13 -11z m52 -4
c0 -8 5 -15 12 -15 6 0 8 -3 5 -6 -8 -8 -37 14 -37 27 0 5 5 9 10 9 6 0 10 -7
10 -15z m-94 -32 c-10 -10 -19 5 -10 18 6 11 8 11 12 0 2 -7 1 -15 -2 -18z
m-14646 -3 c0 -5 -7 -10 -15 -10 -8 0 -15 5 -15 10 0 6 7 10 15 10 8 0 15 -4
15 -10z m14365 -11 c4 -12 2 -26 -5 -33 -10 -8 -12 -6 -7 12 3 12 1 22 -4 22
-5 0 -9 5 -9 10 0 18 19 10 25 -11z m352 5 c-3 -3 -12 -4 -19 -1 -8 3 -5 6 6
6 11 1 17 -2 13 -5z m-177 -14 c0 -5 -4 -10 -10 -10 -5 0 -10 5 -10 10 0 6 5
10 10 10 6 0 10 -4 10 -10z m-140 -20 c0 -5 -5 -10 -11 -10 -5 0 -7 5 -4 10 3
6 8 10 11 10 2 0 4 -4 4 -10z m-266 -19 c4 -5 -3 -7 -14 -4 -23 6 -26 13 -6
13 8 0 17 -4 20 -9z m-10481 -78 c-7 -2 -19 -2 -25 0 -7 3 -2 5 12 5 14 0 19
-2 13 -5z m5230 -28 c-3 -9 -8 -14 -10 -11 -3 3 -2 9 2 15 9 16 15 13 8 -4z
m3044 -1 c-3 -3 -12 -4 -19 -1 -8 3 -5 6 6 6 11 1 17 -2 13 -5z"/>
<path d="M580 1020 c-9 -6 -10 -10 -3 -10 6 0 15 5 18 10 8 12 4 12 -15 0z"/>
<path d="M14905 800 c3 -5 11 -10 16 -10 6 0 7 5 4 10 -3 6 -11 10 -16 10 -6
0 -7 -4 -4 -10z"/>
<path d="M406 785 c-3 -8 -1 -15 4 -15 6 0 10 7 10 15 0 8 -2 15 -4 15 -2 0
-6 -7 -10 -15z"/>
<path d="M14710 789 c0 -5 5 -7 10 -4 6 3 10 8 10 11 0 2 -4 4 -10 4 -5 0 -10
-5 -10 -11z"/>
<path d="M14770 769 c0 -5 5 -7 10 -4 6 3 10 8 10 11 0 2 -4 4 -10 4 -5 0 -10
-5 -10 -11z"/>
<path d="M450 751 c0 -5 5 -13 10 -16 6 -3 10 -2 10 4 0 5 -4 13 -10 16 -5 3
-10 2 -10 -4z"/>
<path d="M14980 745 c0 -8 5 -15 10 -15 6 0 10 7 10 15 0 8 -4 15 -10 15 -5 0
-10 -7 -10 -15z"/>
<path d="M297 733 c-13 -12 -7 -25 8 -19 8 3 15 0 15 -6 0 -6 2 -9 5 -6 7 7
-5 38 -14 38 -4 0 -11 -3 -14 -7z"/>
<path d="M15010 720 c-22 -22 -26 -45 -10 -55 6 -4 10 5 10 21 0 15 8 33 18
40 9 7 14 14 10 14 -5 0 -17 -9 -28 -20z"/>
<path d="M14961 714 c0 -11 3 -14 6 -6 3 7 2 16 -1 19 -3 4 -6 -2 -5 -13z"/>
<path d="M276 675 c8 -37 14 -45 14 -19 0 10 -5 26 -10 34 -8 11 -9 7 -4 -15z"/>
<path d="M14515 670 c3 -5 8 -10 11 -10 2 0 4 5 4 10 0 6 -5 10 -11 10 -5 0
-7 -4 -4 -10z"/>
<path d="M14961 658 c0 -10 -7 -18 -13 -18 -7 -1 2 -7 21 -16 24 -10 38 -11
45 -4 7 7 2 10 -16 10 -20 0 -28 6 -31 23 -3 14 -5 16 -6 5z"/>
<path d="M190 650 c0 -5 7 -10 16 -10 8 0 12 5 9 10 -3 6 -10 10 -16 10 -5 0
-9 -4 -9 -10z"/>
<path d="M315 650 c-3 -5 -1 -10 4 -10 6 0 11 5 11 10 0 6 -2 10 -4 10 -3 0
-8 -4 -11 -10z"/>
<path d="M123 585 c0 -8 4 -12 9 -9 4 3 8 0 8 -5 0 -6 5 -11 10 -11 6 0 5 8
-2 20 -15 24 -25 26 -25 5z"/>
<path d="M14962 587 c-8 -10 -6 -13 9 -14 19 -2 26 11 10 21 -5 3 -14 0 -19
-7z"/>
<path d="M14956 545 c-14 -10 -17 -18 -10 -25 7 -7 14 -3 22 15 13 29 13 29
-12 10z"/>
<path d="M14916 491 c-3 -5 5 -11 19 -13 17 -4 25 -1 25 8 0 15 -36 19 -44 5z"/>
<path d="M520 435 c-10 -12 -10 -15 4 -15 9 0 16 7 16 15 0 8 -2 15 -4 15 -2
0 -9 -7 -16 -15z"/>
<path d="M14850 431 c0 -5 9 -11 20 -14 12 -3 20 0 20 7 0 6 -9 12 -20 13 -11
1 -20 -2 -20 -6z"/>
<path d="M580 389 c0 -5 5 -7 10 -4 6 3 10 8 10 11 0 2 -4 4 -10 4 -5 0 -10
-5 -10 -11z"/>
<path d="M14544 376 c-9 -23 11 -36 59 -36 42 0 44 3 18 31 -12 13 -21 17 -26
10 -3 -6 -1 -11 4 -11 6 0 11 -4 11 -10 0 -18 -29 -10 -44 12 -14 20 -16 20
-22 4z"/>
<path d="M1101 347 c-9 -12 -8 -16 3 -20 19 -7 32 11 19 24 -6 6 -14 5 -22 -4z"/>
<path d="M14290 346 c0 -9 5 -16 10 -16 6 0 10 4 10 9 0 6 -4 13 -10 16 -5 3
-10 -1 -10 -9z"/>
<path d="M13868 323 c7 -3 16 -2 19 1 4 3 -2 6 -13 5 -11 0 -14 -3 -6 -6z"/>
<path d="M2200 290 c0 -5 5 -10 11 -10 5 0 7 5 4 10 -3 6 -8 10 -11 10 -2 0
-4 -4 -4 -10z"/>
<path d="M7568 263 c6 -2 18 -2 25 0 6 3 1 5 -13 5 -14 0 -19 -2 -12 -5z"/>
</g>
</svg>
