<?xml version="1.0" encoding="utf-8"?>
<!-- Generator: Adobe Illustrator 25.4.0, SVG Export Plug-In . SVG Version: 6.00 Build 0)  -->
<svg version="1.1" id="Layer_1" xmlns="http://www.w3.org/2000/svg" xmlns:xlink="http://www.w3.org/1999/xlink" x="0px" y="0px"
	 viewBox="0 0 258.3 70.7" style="enable-background:new 0 0 258.3 70.7;" xml:space="preserve">
<style type="text/css">
	.st0{fill:#4fc3f7;}
	.st1{fill:#4fc3f7;}
</style>
<path class="st0" d="M97.8,31.5c1.2-0.7,2.7-1,4.3-1v5.2h-1.3c-2,0-3.5,0.5-4.5,1.5c-1,1-1.5,2.7-1.5,5.2v12.7h0c-2.8,0-5-2.2-5-5
	V30.8h5v3.5C95.6,33.1,96.5,32.2,97.8,31.5z"/>
<path class="st0" d="M126.1,44.8h-18.5c0.1,1.9,0.9,3.5,2.2,4.7c1.3,1.2,2.9,1.8,4.7,1.8c2.7,0,4.6-1.1,5.7-3.4h5.4
	c-0.7,2.2-2.1,4.1-4,5.5c-1.9,1.4-4.3,2.1-7.1,2.1c-2.3,0-4.4-0.5-6.2-1.6c-1.8-1-3.3-2.5-4.3-4.4c-1-1.9-1.6-4.1-1.6-6.6
	c0-2.5,0.5-4.7,1.5-6.6c1-1.9,2.4-3.3,4.3-4.4c1.8-1,3.9-1.5,6.3-1.5c2.3,0,4.3,0.5,6.1,1.5c1.8,1,3.2,2.4,4.2,4.2
	c1,1.8,1.5,3.9,1.5,6.2C126.3,43.3,126.2,44.1,126.1,44.8z M121,40.8c0-1.8-0.7-3.3-2-4.4c-1.3-1.1-2.9-1.7-4.8-1.7
	c-1.7,0-3.2,0.5-4.4,1.6c-1.2,1.1-2,2.6-2.2,4.5H121z"/>
<path class="st0" d="M151.5,44.8H133c0.1,1.9,0.9,3.5,2.2,4.7c1.3,1.2,2.9,1.8,4.7,1.8c2.7,0,4.6-1.1,5.7-3.4h5.4
	c-0.7,2.2-2.1,4.1-4,5.5c-1.9,1.4-4.3,2.1-7.1,2.1c-2.3,0-4.4-0.5-6.2-1.6c-1.8-1-3.3-2.5-4.3-4.4c-1-1.9-1.6-4.1-1.6-6.6
	c0-2.5,0.5-4.7,1.5-6.6c1-1.9,2.4-3.3,4.3-4.4c1.8-1,3.9-1.5,6.3-1.5c2.3,0,4.3,0.5,6.1,1.5c1.8,1,3.2,2.4,4.2,4.2
	c1,1.8,1.5,3.9,1.5,6.2C151.6,43.3,151.6,44.1,151.5,44.8z M146.4,40.8c0-1.8-0.7-3.3-2-4.4c-1.3-1.1-2.9-1.7-4.8-1.7
	c-1.7,0-3.2,0.5-4.4,1.6s-2,2.6-2.2,4.5H146.4z"/>
<path class="st0" d="M154.7,36.4c1-1.9,2.4-3.3,4.1-4.4c1.7-1,3.7-1.6,5.8-1.6c1.6,0,3.1,0.3,4.7,1c1.5,0.7,2.8,1.6,3.7,2.7V22.5
	h5.1v32.5h-1.4c-2,0-3.6-1.6-3.6-3.6v0c-0.8,1.2-2,2.1-3.4,2.9c-1.5,0.8-3.1,1.1-5,1.1c-2.1,0-4-0.5-5.8-1.6
	c-1.7-1.1-3.1-2.6-4.1-4.5c-1-1.9-1.5-4.1-1.5-6.5C153.1,40.4,153.6,38.3,154.7,36.4z M171.9,38.6c-0.7-1.2-1.6-2.2-2.7-2.8
	c-1.1-0.6-2.3-1-3.6-1c-1.3,0-2.5,0.3-3.6,0.9c-1.1,0.6-2,1.6-2.7,2.8c-0.7,1.2-1,2.7-1,4.3c0,1.7,0.3,3.1,1,4.4
	c0.7,1.3,1.6,2.2,2.7,2.9c1.1,0.7,2.3,1,3.6,1c1.3,0,2.5-0.3,3.6-1c1.1-0.6,2-1.6,2.7-2.8c0.7-1.2,1-2.7,1-4.4
	S172.6,39.8,171.9,38.6z"/>
<path class="st0" d="M181.2,26.7c-0.6-0.6-0.9-1.4-0.9-2.3c0-0.9,0.3-1.7,0.9-2.3c0.6-0.6,1.4-0.9,2.3-0.9c0.9,0,1.6,0.3,2.2,0.9
	c0.6,0.6,0.9,1.4,0.9,2.3c0,0.9-0.3,1.7-0.9,2.3c-0.6,0.6-1.4,0.9-2.2,0.9C182.6,27.6,181.8,27.3,181.2,26.7z M186,30.8v24.2l0,0
	c-2.8,0-5-2.2-5-5V30.8H186z"/>
<path class="st0" d="M193.6,54.4c-1.5-0.7-2.7-1.6-3.6-2.8c-0.9-1.2-1.3-2.5-1.4-4h5.2c0.1,1,0.6,1.9,1.5,2.6c0.9,0.7,2,1,3.4,1
	c1.4,0,2.5-0.3,3.3-0.8c0.8-0.5,1.2-1.2,1.2-2.1c0-0.9-0.4-1.6-1.3-2c-0.9-0.4-2.2-0.9-4.1-1.5c-1.8-0.5-3.3-1-4.4-1.5
	c-1.1-0.5-2.1-1.2-3-2.2c-0.8-1-1.3-2.2-1.3-3.8c0-1.3,0.4-2.5,1.1-3.5c0.8-1.1,1.9-1.9,3.3-2.5c1.4-0.6,3.1-0.9,4.9-0.9
	c2.8,0,5,0.7,6.7,2.1c1.7,1.4,2.6,3.3,2.7,5.7h-5c-0.1-1.1-0.5-1.9-1.3-2.6c-0.8-0.6-1.9-1-3.2-1c-1.3,0-2.3,0.2-3,0.7
	c-0.7,0.5-1.1,1.2-1.1,2c0,0.6,0.2,1.2,0.7,1.6c0.5,0.4,1,0.8,1.7,1c0.7,0.2,1.7,0.6,3,0.9c1.8,0.5,3.2,0.9,4.3,1.4
	c1.1,0.5,2.1,1.2,2.9,2.1c0.8,0.9,1.2,2.2,1.3,3.7c0,1.4-0.4,2.6-1.1,3.7c-0.8,1.1-1.8,1.9-3.2,2.6c-1.4,0.6-3,0.9-4.9,0.9
	C196.8,55.5,195.1,55.1,193.6,54.4z"/>
<path class="st0" d="M211.2,26.7c-0.6-0.6-0.9-1.4-0.9-2.3c0-0.9,0.3-1.7,0.9-2.3s1.4-0.9,2.3-0.9c0.9,0,1.6,0.3,2.2,0.9
	s0.9,1.4,0.9,2.3c0,0.9-0.3,1.7-0.9,2.3c-0.6,0.6-1.4,0.9-2.2,0.9C212.6,27.6,211.8,27.3,211.2,26.7z M216,30.8v24.2h0
	c-2.8,0-5-2.2-5-5V30.8H216z"/>
<path class="st0" d="M225.8,34.9v13.4c0,0.9,0.2,1.6,0.6,2c0.4,0.4,1.1,0.6,2.2,0.6h0c1.7,0,3.1,1.4,3.1,3.1v1.1h-4
	c-2.3,0-4-0.5-5.2-1.6c-1.2-1.1-1.8-2.8-1.8-5.1V34.9h-2.9v-4.1h2.9v-6h5.1v6h5.9v4.1H225.8z"/>
<path class="st0" d="M253.7,30.8l-14.9,35.6h0c-2.5,0-4.1-2.5-3.2-4.8l2.9-7L229,30.8h5.6l6.8,18.5l7.1-18.5H253.7z"/>
<path class="st1" d="M80.5,26.2H53.2v0c0-3.5,2.9-6.4,6.4-6.4h27.3v0C86.9,23.4,84,26.2,80.5,26.2z"/>
<path class="st0" d="M62.5,31v6.4v12.7c0,3.5,2.9,6.4,6.4,6.4V37.4h11.8c3.5,0,6.4-2.9,6.4-6.4H62.5z"/>
<path class="st1" d="M48.1,24.2c0.1,2.2-0.4,4.3-1,6.3c-1.4,4.4-3.4,8.5-5.5,12.5c-4.5,8.4-9.6,16.4-14.9,24.3
	c-0.2,0.3-0.3,0.4-0.5,0C20.3,58.8,14.7,50.1,10,40.8c-1.7-3.4-3.3-6.9-4.4-10.6c-1.6-5.1-1.1-10,1.2-14.7C9.9,9,15.2,5,22.2,3.5
	c8.6-1.7,17.5,2,22.3,9.4C46.8,16.4,47.9,20.1,48.1,24.2z M12.1,24.6c0,7.8,6.4,14.2,14.2,14.3c7.9,0,14.3-6.4,14.3-14.2
	c0-7.9-6.4-14.3-14.2-14.3C18.5,10.3,12.1,16.7,12.1,24.6z"/>
<path class="st0" d="M26.4,41.7c-9.3,0-16.8-7.5-16.8-16.8S17.1,8.1,26.4,8.1s16.8,7.5,16.8,16.8S35.6,41.7,26.4,41.7z M26.4,11
	c-7.7,0-13.9,6.2-13.9,13.9s6.2,13.9,13.9,13.9s13.9-6.2,13.9-13.9S34,11,26.4,11z"/>
<path class="st0" d="M21.5,19.8c-3.1,0-6.3,0-9.4,0c-1.4,0-1.5-0.1-0.9-1.4c2.6-5.7,6.9-9.1,13.2-10C34.3,7.2,43.1,15,43,25.1
	c-0.1,8-6.2,14.9-14.1,16.1c-0.5,0.1-1,0.2-1-0.5c0-0.6-0.4-1.5,0.7-1.7c1.7-0.3,3.3-0.8,4.9-1.7c4.2-2.5,6.6-6.1,7.2-11
	c0.9-7.4-4.2-14-11.1-15.4c-4.8-1-9.2,0.2-12.8,3.5c-0.3,0.2-0.7,0.5-0.6,0.9c0.1,0.4,0.7,0.2,1,0.2c5.8,0,11.6,0,17.4,0
	c1.2,0,1.3,0.2,1,1.3c-0.6,1.9-2.2,3-4.3,3C27.9,19.8,24.7,19.8,21.5,19.8z"/>
<path class="st0" d="M19,30.6c0-1.8,0-3.6,0-5.5c0-0.7,0.3-1,1-1c4.9,0,9.8,0,14.7,0c0.8,0,0.9,0.3,0.8,1c-0.4,2-2.1,3.4-4.4,3.5
	c-2.2,0-4.3,0-6.5,0c-1,0-1.3,0.3-1.3,1.3c0,3.4,0,6.8,0,10.2c0,0.7-0.1,1-1,0.9c-6.9-1.6-12.5-8.5-12.5-15.6c0-0.8,0.1-1.2,1-1.2
	c0.9,0,1.2,0.3,1.3,1.2c0.1,4.6,2.1,8.3,5.8,11.1c0.3,0.2,0.5,0.6,0.9,0.4c0.4-0.2,0.2-0.6,0.2-0.9C19,34.1,19,32.3,19,30.6
	C19,30.6,19,30.6,19,30.6z"/>
</svg>
